<?xml version="1.0" standalone="no"?>
<!DOCTYPE svg PUBLIC "-//W3C//DTD SVG 1.1//EN" "http://www.w3.org/Graphics/SVG/1.1/DTD/svg11.dtd" >
<svg xmlns="http://www.w3.org/2000/svg" xmlns:xlink="http://www.w3.org/1999/xlink" version="1.1">
<metadata>
Created by FontForge 20180930 at Mon Oct  8 19:01:02 2018
 By root
</metadata>
<defs>
<font id="BudapestRegular" horiz-adv-x="771" >
  <font-face 
    font-family="Budapest"
    font-weight="400"
    font-stretch="normal"
    units-per-em="1000"
    panose-1="0 0 0 0 0 0 0 0 0 0"
    ascent="800"
    descent="-200"
    x-height="398"
    cap-height="1017"
    bbox="-499.981 -661 1457.03 1468.4"
    underline-thickness="50"
    underline-position="-150"
    unicode-range="U+0020-F05D"
  />
    <missing-glyph />
    <glyph glyph-name="yx.liga" unicode="yx" horiz-adv-x="836" 
d="M859 15q3 -8 -1 -16t-12 -10q-20 -8 -38 -8q-22 0 -41 10q-38 18 -61 64t-51 129l-179 -190q-6 -7 -15 -7q-8 0 -14 6q-7 6 -7 14.5t6 14.5l194 207q-20 57 -39 93t-44 49q-33 12 -107 -102v-1q-70 -102 -163 -185q-5 -19 -10 -36q-15 -56 -37 -140.5t-64.5 -229.5
t-60.5 -180q-25 -55 -65.5 -87.5t-88.5 -35.5h-10q-41 0 -78 21t-61 59q-34 53 -30.5 121t42.5 138q21 37 54 76t76.5 77.5t77 65.5t78.5 62q-14 0 -22 2q-67 13 -88 83q-7 24 -6.5 57t4.5 61.5t15 70t18 64.5t20 64q13 37 17 50q1 4 3.5 7.5t6 5.5t7.5 2.5t8 -1.5
q9 -2 13 -9.5t2 -15.5q-4 -14 -17 -52q-10 -31 -15.5 -48.5t-15 -49.5t-14 -55t-8.5 -50t-3.5 -49.5t5.5 -39.5q14 -46 56 -54q21 -4 44.5 0.5t38.5 12t19 12.5q24 30 46.5 90t33.5 103t27 116q12 52 18 75q2 8 9.5 12.5t15.5 2.5q1 0 1.5 -0.5l0.5 -0.5q8 3 15 0
q8 -3 11.5 -11t0.5 -16q-7 -19 -34 -130q-22 -94 -34 -142q60 63 106 131q46 71 83 101t76 16q55 -29 98 -146l135 144q6 6 14.5 6.5t15 -5.5t6.5 -14.5t-6 -15.5l-150 -159q1 -3 3 -8.5t3 -7.5q12 -38 19.5 -58t20 -48.5t25 -44.5t27.5 -24q20 -10 47 0q9 3 16.5 -1
t10.5 -12zM77 -484q39 71 153 518q-16 -15 -73 -57q-40 -30 -63 -48t-64.5 -52.5t-68.5 -60.5t-55.5 -60t-45.5 -64q-33 -59 -36.5 -115.5t23.5 -100.5q19 -30 49 -46.5t62 -13.5q76 5 119 100z" />
    <glyph glyph-name="space" unicode=" " horiz-adv-x="504" 
 />
    <glyph glyph-name="exclam" unicode="!" horiz-adv-x="334" 
d="M90 -19q-17 0 -28.5 12t-11.5 28.5t11.5 28t28.5 11.5t28.5 -11.5t11.5 -28t-11.5 -28.5t-28.5 -12zM278 1008q13 -20 0 -94t-60 -270q-19 -81 -30 -129t-26.5 -120t-20.5 -114.5t1 -56.5q14 -8 9 -24q-5 -14 -20 -14q-3 0 -6 1q-12 3 -18.5 14.5t-7.5 36t2.5 57t14.5 87
t25 116.5t36 156q71 296 65 330q-9 8 -6 20q1 8 8.5 13t15.5 3q11 -2 18 -12z" />
    <glyph glyph-name="quotedbl" unicode="&#x22;" horiz-adv-x="347" 
d="M293 944q21 -103 -60 -170q-6 -5 -13 -5q-10 0 -16 8q-6 6 -5 15t7 14q52 43 49 107q-1 19 -6.5 37t-11.5 28.5t-11 16.5q-8 0 -14 6t-6 14.5t6 14.5q11 11 26 7q17 -6 33 -33.5t22 -59.5zM89 1036q12 -3 23.5 -18t19.5 -34.5t12 -39.5q21 -103 -60 -170q-6 -5 -13 -5
q-10 0 -16 8q-6 6 -5 15t8 14q51 43 48 107q-1 27 -10.5 49.5t-18.5 32.5q-8 0 -14 6t-6 14.5t6 14.5q11 11 26 6z" />
    <glyph glyph-name="numbersign" unicode="#" horiz-adv-x="813" 
d="M742 482q9 0 15 -6t6 -14.5t-6 -15t-15 -6.5h-176l-78 -171h160q9 0 15 -6t6 -14.5t-6 -15t-15 -6.5h-178l-119 -263q-6 -12 -19 -12q-5 0 -9 2q-8 3 -11 11t1 16l111 246h-128l-112 -262q-5 -13 -19 -13q-4 0 -8 2q-8 3 -11.5 11t0.5 16l104 246h-179q-9 0 -15 6.5
t-6 15t6 14.5t15 6h197l73 171h-176q-9 0 -15 6.5t-6 15t6 14.5t15 6h194l121 284q3 8 11 11.5t16 0t11 -11.5t0 -16l-114 -268h134l123 271q3 8 11 11t16 -0.5t11 -11.5t0 -16l-115 -254h158zM442 269l78 171h-134l-72 -171h128z" />
    <glyph glyph-name="dollar" unicode="$" horiz-adv-x="580" 
d="M325 433l46 -11.5t43.5 -14.5t41 -21t33 -28.5t26 -39.5t13 -53t0.5 -68q-19 -96 -74.5 -143.5t-128.5 -54.5v-115q0 -8 -6 -14.5t-15 -6.5t-15 6.5t-6 14.5v115q-24 1 -30 2q-90 16 -151.5 80.5t-49.5 149.5q1 8 8 13t16 4q8 -1 13 -8t4 -15q-9 -67 42 -118.5t125 -64.5
q10 -1 23 -2v360q-30 7 -51 13.5t-47.5 18.5t-43.5 27.5t-32 40t-21 55.5q-10 79 10 139.5t69 95.5t116 37v127q0 9 6 15t15 6t15 -6t6 -15v-129q41 -6 75 -23q49 -24 77 -64.5t29 -90.5q0 -5 -2.5 -10t-7 -8t-10.5 -3t-11 2.5t-7.5 7t-3.5 10.5q-1 38 -22.5 69t-60.5 50
q-25 13 -56 18v-350zM129 562q6 -28 19.5 -48.5t36 -34t44 -21.5t54.5 -16v344q-53 -3 -92 -30q-80 -58 -62 -194zM487 203q4 40 -2.5 70t-19 48.5t-37 32.5t-46.5 21t-57 15v-350q59 7 103 46.5t59 116.5z" />
    <glyph glyph-name="percent" unicode="%" horiz-adv-x="810" 
d="M204 585q-17 0 -32 4q-69 17 -102.5 92t-11.5 164.5t86.5 140.5t133.5 34t102 -92t11 -165q-19 -78 -72.5 -128t-114.5 -50zM99 835q-18 -72 6.5 -132.5t76.5 -73.5q52 -12 101.5 30t67.5 114q9 36 6.5 70.5t-13 62.5t-30.5 47.5t-46 26.5q-11 2 -23 2q-47 0 -88.5 -41
t-57.5 -106zM644.5 978q7.5 -4 10.5 -12t-1 -16l-475 -926q-5 -11 -18 -11q-5 0 -10 2q-7 4 -10 12t1 16l474 926q4 8 12.5 10.5t16 -1.5zM638 458q69 -17 102.5 -92.5t11.5 -164.5q-20 -78 -73 -128.5t-115 -50.5q-16 0 -32 4q-69 17 -102 92.5t-11 164.5t86 140.5
t133 34.5zM711 211q11 50 4.5 92.5t-30 74t-57.5 39.5q-11 3 -22 3q-48 0 -89.5 -41.5t-57.5 -105.5q-18 -72 6.5 -132.5t76.5 -73.5t101.5 29t67.5 115z" />
    <glyph glyph-name="ampersand" unicode="&#x26;" horiz-adv-x="654" 
d="M603 -20q2 -5 1 -10.5t-4.5 -10t-8.5 -6.5q-8 -3 -16 0.5t-11 11.5q-4 8 -74 78l-21 21q-24 -33 -61 -64q-73 -49 -142 -51q-6 -1 -9 -1q-92 0 -150 62q-32 34 -46.5 82t-8.5 101q2 24 11.5 47.5t21 41.5t31 38t35.5 33.5t40 32.5q-89 136 -76 223q16 69 55.5 102.5
t85.5 33.5h1q30 0 57 -12.5t46 -35.5t26 -52q8 -46 0 -85.5t-32 -73t-47.5 -56.5t-59.5 -52q73 -103 214 -247q14 31 16 62.5t-8 61.5t-23.5 55.5t-33.5 54.5q-5 7 -3.5 15.5t8.5 13.5t15.5 3.5t13.5 -8.5q23 -32 38 -61.5t26.5 -67.5t7 -79t-25.5 -81l28 -28
q47 -47 63 -64.5t20 -27.5zM156 601q-10 -71 67 -189l24.5 21t23 20.5t21.5 21.5t18.5 22t16 24t12 25.5t7.5 27.5t2 30t-2 32q-8 29 -33 48.5t-56 19.5h-1q-36 -1 -62.5 -28t-37.5 -75zM383 34q35 29 57 60q-149 150 -226 258q-56 -46 -86.5 -82t-34.5 -81q-10 -92 45 -150
q48 -52 127 -49q56 2 118 44z" />
    <glyph glyph-name="quotesingle" unicode="'" horiz-adv-x="210" 
d="M159 936q10 -105 -76 -164q-6 -3 -12 -3q-11 0 -17 9q-5 7 -3.5 15.5t8.5 13.5q56 37 59 102q1 27 -6 50t-15 34q-8 1 -13 7q-6 7 -5 15.5t8 14.5q11 9 25 3q17 -7 30 -36t17 -61z" />
    <glyph glyph-name="parenleft" unicode="(" horiz-adv-x="465" 
d="M413.5 999q2.5 -8 -1.5 -16t-12 -10q-77 -24 -137 -80t-96.5 -130t-55.5 -157t-19 -167q-1 -178 69 -305.5t187 -164.5q8 -3 12 -10.5t2 -15.5q-5 -15 -20 -15q-4 0 -7 1q-130 41 -208 179.5t-77 330.5q0 90 21 179t60.5 168.5t106 140t150.5 86.5q8 2 15.5 -2t10 -12z
" />
    <glyph glyph-name="parenright" unicode=")" horiz-adv-x="465" 
d="M77 1013q84 -26 150 -86.5t106 -140t60.5 -168.5t21.5 -179q0 -127 -35 -233t-99.5 -178t-151.5 -99q-3 -1 -6 -1q-15 0 -20 15q-2 8 2 15.5t12 10.5q117 36 186.5 164t69.5 306q0 84 -19 167t-55.5 157t-97 130t-136.5 80q-8 2 -12.5 10t-2 16t10.5 12t16 2z" />
    <glyph glyph-name="asterisk" unicode="*" horiz-adv-x="668" 
d="M617 815q1 -4 0.5 -8t-2 -7.5t-5 -6.5t-7.5 -4l-235 -77l145 -200q6 -7 4.5 -15.5t-8.5 -13.5q-6 -4 -12 -4q-11 0 -17 8l-146 201l-146 -201q-6 -9 -17 -9q-6 0 -12 4q-7 6 -8 14.5t4 15.5l145 200l-236 77q-8 2 -12 10t-1 16t10.5 12t15.5 1l236 -76v248q0 8 6 14
t14.5 6t15 -6t6.5 -14v-248l235 76q9 3 16.5 -1t10.5 -12z" />
    <glyph glyph-name="plus" unicode="+" 
d="M701 442q8 0 14 -6.5t6 -15t-6 -14.5t-14 -6h-294v-294q0 -9 -6.5 -15t-15 -6t-14.5 6t-6 15v294h-294q-9 0 -15 6t-6 15t6 15t15 6h294v294q0 8 6 14.5t14.5 6.5t15 -6.5t6.5 -14.5v-294h294z" />
    <glyph glyph-name="comma" unicode="," horiz-adv-x="226" 
d="M158 46q11 -12 15.5 -37.5t1.5 -50.5q-11 -91 -97 -124q-3 -2 -7 -2q-14 0 -20 14q-2 5 -1 10.5t4.5 9.5t8.5 7q51 19 66 69q6 20 5 42q-1 0 -2 -0.5t-2 -0.5q-16 0 -27 11t-11 27t11 27t27 11q12 0 23 -8h0.5t0.5 -1q3 -2 4 -4z" />
    <glyph glyph-name="hyphen" unicode="-" horiz-adv-x="523" 
d="M452 425q8 0 14.5 -6.5t6.5 -15t-6.5 -14.5t-14.5 -6h-381q-9 0 -15 6t-6 14.5t6 15t15 6.5h381z" />
    <glyph glyph-name="period" unicode="." horiz-adv-x="180" 
d="M90 -21q-17 0 -28.5 11.5t-11.5 28.5t11.5 28.5t28.5 11.5t28.5 -11.5t11.5 -28.5t-11.5 -28.5t-28.5 -11.5z" />
    <glyph glyph-name="slash" unicode="/" horiz-adv-x="448" 
d="M383 1013.5q8 -2.5 12 -10t2 -16.5l-306 -994q-5 -14 -20 -14q-3 0 -6 1q-9 2 -13 9.5t-1 16.5l306 994q3 8 10.5 12t15.5 1.5z" />
    <glyph glyph-name="zero" unicode="0" horiz-adv-x="914" 
d="M583 1045q79 -19 141 -77t96 -140t43 -183t-19 -206q-16 -67 -45 -128t-68 -112.5t-87 -90.5q-113 -93 -238 -93q-38 0 -75 9q-78 19 -140 77t-96.5 140t-43 183t18.5 206q25 102 76.5 187.5t123.5 144.5q73 59 154 81t159 2zM804 449q25 97 17.5 189.5t-37.5 168
t-85 128t-126 70.5q-32 8 -64 8q-111 0 -213 -84q-66 -54 -114 -134t-71 -175q-26 -97 -18.5 -189.5t37.5 -167.5t85.5 -128t125.5 -70q69 -17 140.5 2.5t136.5 72.5q66 55 114 134.5t72 174.5z" />
    <glyph glyph-name="one" unicode="1" horiz-adv-x="549" 
d="M457 46q9 0 15 -6t6 -15t-6 -15t-15 -6l-178 2l-4 -1q-1 -1 -2 -1q-4 0 -8 2l-194 2q-9 0 -15 6t-6 14.5t6.5 15t14.5 5.5l181 -1q8 89 124 593q73 318 80 368q-22 -7 -64.5 -35t-87.5 -66t-83.5 -87t-48.5 -90q-2 -8 -9.5 -12.5t-16 -2.5t-13 9.5t-2.5 16.5
q8 28 26.5 60t43.5 61.5t55 58t60.5 51.5t59 41t52.5 28t39 10h3q12 -1 20 -8.5t9 -18.5q2 -25 -82 -393q-115 -498 -123 -584z" />
    <glyph glyph-name="two" unicode="2" horiz-adv-x="773" 
d="M644 58q5 0 10 -3t7.5 -7.5t2.5 -10.5q0 -9 -6 -15t-14 -6q-193 0 -391 -2h-17q-136 -1 -222 -1q-16 0 -20 15.5t9 23.5q298 177 497 311q63 42 105.5 85t64.5 88.5t30.5 88.5t8.5 96q0 126 -56 204q-67 94 -207 94q-31 0 -60.5 -7t-59 -23.5t-54 -41.5t-44.5 -62.5
t-30 -84.5q-2 -9 -9.5 -13.5t-15.5 -2.5q-6 1 -10 4.5t-5.5 9t-0.5 11.5q14 66 45.5 117t72 79.5t83.5 42t87 13.5h1q161 0 241 -112q63 -89 63 -228q1 -46 -4.5 -84.5t-20.5 -80t-40 -78t-65.5 -75t-96.5 -75.5q-168 -113 -434 -273q77 0 163 1q199 2 392 2z" />
    <glyph glyph-name="three" unicode="3" horiz-adv-x="770" 
d="M578 488q30 -17 54 -42q43 -44 57 -105t-4 -128q-15 -48 -51.5 -88t-101.5 -78q-73 -35 -155 -35q-63 0 -122 20.5t-103 54.5q-59 46 -85 107t-13 124q2 9 9 14t16 3q5 -1 9.5 -5t6 -9t0.5 -11q-10 -52 11.5 -101.5t71.5 -88.5q41 -32 93.5 -50t117.5 -16t123 30
q57 34 88.5 67.5t43.5 73.5q32 116 -42 192q-37 38 -89 52q-49 -8 -103 1q-17 2 -17.5 19t16.5 22q52 13 106 0q51 11 87 39.5t51 66.5q33 100 22 183t-66 138q-47 48 -116 64.5t-133 -4.5q-62 -20 -101.5 -69t-50.5 -118q-2 -9 -9 -14t-15 -4q-6 1 -10.5 4.5t-6.5 9
t-1 10.5q13 82 60.5 139.5t120.5 81.5q77 25 156.5 5.5t135.5 -75.5q22 -23 38.5 -51.5t31 -73t11 -107t-27.5 -133.5q-31 -78 -114 -115z" />
    <glyph glyph-name="four" unicode="4" horiz-adv-x="762" 
d="M692.5 902.5q5.5 -0.5 10 -3.5t7 -8t1.5 -11l-82 -868q-1 -8 -7 -13.5t-14 -5.5l-2 1q-8 0 -13.5 7t-5.5 15l29 306q-271 40 -645 32q-14 0 -19 13q-6 13 4 23q159 157 328.5 351.5t262.5 320.5q5 7 13.5 8.5t15.5 -3.5t8.5 -13.5t-3.5 -15.5q-88 -120 -246.5 -303
t-312.5 -338q347 4 598 -33l50 520q0 6 3.5 10.5t8.5 6.5t10.5 1.5z" />
    <glyph glyph-name="five" unicode="5" horiz-adv-x="657" 
d="M531 610q27 -22 47 -52.5t34.5 -76t12 -111.5t-23.5 -145q-23 -64 -58 -111.5t-77 -74t-85 -39t-89 -12.5q-29 0 -57 5q-113 19 -191 97t-78 171q0 8 6 14t15 6t15 -6t6 -14q0 -79 67.5 -144.5t166.5 -82.5q109 -19 193.5 35t125.5 168q65 241 -57 341q-49 40 -125 53
t-145 2t-120 -36q-30 -15 -43 -29q-4 -12 -8 -23q-7 -15 -23 -12q-17 3 -18 19q0 19 13 36q23 65 54.5 178.5t46 172.5t19.5 84q4 16 21 16q286 0 431 -2q8 0 14 -6t6 -14.5t-6 -14.5t-15 -6q-145 1 -414 1q-53 -222 -98 -363h1q32 16 73 27t89.5 15.5t96 0.5t94.5 -21
t83 -46z" />
    <glyph glyph-name="six" unicode="6" horiz-adv-x="687" 
d="M438 1105q8 0 17 -0.5t29.5 -4.5t39.5 -10.5t42 -21t41.5 -34.5t34 -52t23.5 -71q1 -8 -4 -15.5t-13 -8.5q-4 -1 -8.5 0t-7.5 3t-5.5 5.5t-3.5 7.5q-8 44 -28 76.5t-41.5 48t-47.5 24.5t-40.5 10.5t-27.5 1.5q-49 -1 -100 -31q-59 -37 -119 -136t-102 -231.5t-51 -256.5
q123 142 295 163q61 8 109.5 -15.5t77.5 -74.5q46 -82 33.5 -197.5t-76.5 -197.5q-79 -102 -200 -102q-39 0 -80 12q-81 22 -131 88.5t-65 172.5q-5 31 -6 67q-10 12 -1 25v0.5t1 0.5q-1 138 43 290.5t112 268t139 158.5q60 36 121 37zM366 531q-180 -23 -302 -192
q1 -40 6 -76q13 -93 55 -150t111 -76q146 -40 236 75q56 72 68 175.5t-28 173.5q-47 82 -146 70z" />
    <glyph glyph-name="seven" unicode="7" horiz-adv-x="805" 
d="M841 1044q11 -26 -35.5 -96t-209.5 -280q-111 -141 -174 -223.5t-154 -213.5t-145 -227q-6 -11 -19 -11q-5 0 -10 3q-7 4 -9.5 12.5t1.5 16.5q55 97 147 228.5t155.5 215t174.5 225.5q53 69 81.5 106t67.5 89t60 83.5t27 48.5q-74 3 -485 -21q-174 -10 -242 -14
q-4 0 -8 1.5t-7 4t-5 6.5t-2 8q0 9 5.5 15.5t14.5 6.5q72 3 242 13q444 26 504 20q18 -1 25 -17z" />
    <glyph glyph-name="eight" unicode="8" horiz-adv-x="782" 
d="M731 852q6 -208 -175 -356q65 -105 62 -231q-3 -70 -26 -123.5t-58.5 -83.5t-76 -45.5t-85.5 -15.5h-4q-73 0 -142 32t-117.5 94.5t-55.5 140.5q-8 47 4 96t42 95t63.5 84t79.5 81q-94 124 -75 235q6 77 56 139.5t120 94.5t143 31q35 -1 68 -10t64.5 -29.5t55.5 -50.5
t39.5 -76t17.5 -102zM209 850q-17 -99 71 -212q4 -2 7 -5t4 -7q28 -26 62 -44t57 -25.5t64 -18.5q35 -10 51 -15q170 136 165 327q-5 106 -59.5 166.5t-145.5 61.5h-4q-46 0 -93 -16.5t-85.5 -45.5t-64 -72.5t-29.5 -93.5zM372 38q91 2 145 62.5t59 166.5q3 118 -61 215
q-21 7 -52 15q-40 11 -64 19t-61.5 27.5t-67.5 45.5q-42 -40 -73 -74.5t-59 -76t-39 -85t-4 -84.5q4 -51 30 -95t64.5 -73t85 -46t92.5 -17h5z" />
    <glyph glyph-name="nine" unicode="9" horiz-adv-x="755" 
d="M700 797q11 -13 1 -26v-0.5t-1 -0.5q-1 -138 -47 -290t-116 -266.5t-141 -156.5q-61 -35 -122 -35q-8 0 -17.5 0.5t-30 5t-39 11.5t-41.5 22t-41 35t-33 52t-22 71q-1 9 4 16t13.5 8.5t15.5 -3.5t8 -13q7 -37 21 -66t33 -45.5t37.5 -28t38.5 -16t31.5 -6t21.5 -1.5
q50 0 101 29q60 36 121 134t105 230t55 256q-125 -140 -297 -159q-62 -7 -109.5 17t-76.5 76q-45 82 -30.5 197.5t79.5 196.5q52 66 125 88.5t156 -2.5q81 -23 130 -90t62 -173q4 -32 5 -67zM354 595q181 20 305 188q0 40 -5 75q-24 189 -162 229q-38 11 -73 11
q-98 0 -165 -83q-57 -71 -70 -174t26 -173q45 -83 144 -73z" />
    <glyph glyph-name="colon" unicode=":" horiz-adv-x="311" 
d="M88 -17q-16 0 -27 11t-11 27t11 27t27 11t27 -11t11 -27t-11 -27t-27 -11zM223.5 507q-15.5 0 -27 11t-11.5 27t11.5 27t27 11t27 -11t11.5 -27t-11.5 -27t-27 -11z" />
    <glyph glyph-name="semicolon" unicode=";" horiz-adv-x="311" 
d="M158 46q11 -12 15.5 -37.5t1.5 -50.5q-11 -91 -97 -124q-3 -2 -7 -2q-14 0 -20 14q-2 5 -1 10.5t4.5 9.5t8.5 7q51 19 66 69q6 20 5 42q-1 0 -2 -0.5t-2 -0.5q-16 0 -27 11t-11 27t11 27t27 11q12 0 23 -8h0.5t0.5 -1q3 -2 4 -4zM220.5 507q-16.5 0 -28.5 11.5t-12 28
t12 28.5t28.5 12t28 -12t11.5 -28.5t-11.5 -28t-28 -11.5z" />
    <glyph glyph-name="less" unicode="&#x3c;" horiz-adv-x="645" 
d="M583 168q8 -3 11 -11t-1 -16q-5 -13 -19 -13q-4 0 -8 2l-504 230q-12 6 -12 19.5t13 18.5l503 219q8 4 16 0.5t11.5 -11t0.5 -16t-11 -11.5l-461 -201z" />
    <glyph glyph-name="equal" unicode="=" horiz-adv-x="618" 
d="M71 530q-9 0 -15 6.5t-6 15t6 14.5t15 6h477q8 0 14 -6t6 -14.5t-6 -15t-14 -6.5h-477zM548 309q8 0 14 -6t6 -15t-6 -15t-14 -6h-477q-9 0 -15 6t-6 15t6 15t15 6h477z" />
    <glyph glyph-name="greater" unicode="&#x3e;" horiz-adv-x="645" 
d="M583 398q12 -5 12 -18.5t-12 -19.5l-503 -230q-5 -2 -9 -2q-14 0 -19 13q-4 8 -1 16t11 11l461 210l-460 201q-8 3 -11.5 11.5t0 16t11.5 11t16 -0.5z" />
    <glyph glyph-name="question" unicode="?" horiz-adv-x="721" 
d="M157.5 -21q-16.5 0 -28 11.5t-11.5 28.5t11.5 28.5t28 11.5t28.5 -11.5t12 -28.5t-12 -28.5t-28.5 -11.5zM670 740q3 -45 -6.5 -90t-28.5 -81t-35 -59t-32 -42q-18 -20 -46 -40t-49 -31.5t-62 -32.5q-37 -20 -56 -30.5t-49.5 -31t-46.5 -37.5t-31 -41.5t-20 -51.5
q-1 -8 -7 -13t-13 -5q-2 0 -4 1q-5 1 -9.5 4.5t-6.5 8.5t-1 11q4 23 14 45.5t21.5 39t31.5 34.5t34.5 29.5t40.5 27t40.5 23.5t42.5 23q38 19 57.5 30t45.5 29.5t41 35.5t29.5 37.5t31.5 52.5t25.5 71.5t5.5 78.5q-10 115 -126 209q-59 34 -123 34t-113.5 -23.5t-90.5 -62.5
q-53 -51 -73.5 -109.5t0.5 -98.5q4 -7 1.5 -15.5t-10.5 -12.5t-16 -1.5t-12 10.5q-28 53 -5 124.5t86 132.5q34 33 75.5 56t90.5 35.5t104.5 4t108.5 -38.5q133 -107 145 -240z" />
    <glyph glyph-name="at" unicode="@" horiz-adv-x="913" 
d="M829.5 420q8.5 -2 12.5 -9.5t2 -16.5q-45 -185 -170 -304.5t-269 -119.5q-38 0 -74 9q-78 20 -140 78t-96.5 140t-43 182.5t18.5 206.5q24 98 79 183.5t124.5 142t151.5 81.5t158 8q18 -4 37.5 -9.5t49 -19t55.5 -31t53.5 -45.5t46 -62.5t29.5 -83.5t9 -106
q-4 -69 -32.5 -138.5t-68.5 -120t-85 -80.5q-84 -47 -120 -16q-11 9 -17 28q-90 -94 -164 -94q-29 0 -52 14q-48 30 -54 104t33 158q2 5 8 8q21 35 48 60t56 37.5t56 20t54 7.5t43.5 -1t31.5 -4l6 26q2 8 9 12.5t15.5 2.5t13 -9.5t2.5 -15.5l-52 -219q-9 -23 -13 -47
q2 -8 -3 -16q-3 -33 6 -41q14 -12 71 20q62 43 112 128t54 177q2 49 -7 91.5t-24 72.5t-38 55t-45 40.5t-48.5 27.5t-45.5 18t-39 10q-41 11 -87 3t-91.5 -26t-90 -53t-81.5 -79t-67 -103.5t-46 -126.5q-26 -96 -18.5 -189t37.5 -168t85.5 -128t125.5 -70q94 -23 189.5 20
t168.5 140t105 224q2 9 9.5 13.5t16 2.5zM346 273q11 -10 31.5 -8t43.5 12t54 36t64 66q5 30 15 57l36 151q-17 3 -35.5 4.5t-50.5 -2.5t-59.5 -15t-57.5 -37.5t-49 -66.5l-1.5 -1.5l-1.5 -1.5q-27 -71 -22.5 -123.5t33.5 -70.5z" />
    <glyph glyph-name="A" unicode="A" horiz-adv-x="604" 
d="M622 519q8 0 14.5 -6t6.5 -14.5t-6.5 -14.5t-14.5 -6h-60q0 -91 -6 -164t-19.5 -141.5t-39 -116.5t-62.5 -71q-32 -20 -71 -20q-50 0 -111 32q-8 5 -10.5 13t1.5 15.5t12.5 10t16.5 -1.5q87 -47 140 -14q104 65 107 458h-121q-102 -184 -230 -336t-202 -180
q-15 -6 -27 -6q-22 0 -35 16q-6 7 -5 15.5t8 14t15.5 4.5t13.5 -7q3 -3 15 2q61 23 181.5 164.5t218.5 312.5h-64q-9 0 -15 6t-6 14.5t6 14.5t15 6h87q136 251 131 411l0.5 1.5l0.5 1.5q-1 50 -1 79q1 9 7 15t15 5q8 0 14 -6t6 -15q-1 -58 6 -224q7 -176 8 -268h60zM514 735
q-32 -100 -92 -216h98q-1 88 -6 216z" />
    <glyph glyph-name="B" unicode="B" horiz-adv-x="775" 
d="M693 455q96 -91 56 -254q-22 -66 -68 -121.5t-112.5 -95.5t-147.5 -60q-72 -18 -144 -18q-130 0 -235 57q-6 -3 -9 -3t-6 1q-15 4 -15 20q-29 20 -49 39q-7 6 -7 15t6 15t14.5 6.5t14.5 -5.5q11 -11 32 -26l253 964q-23 -6 -45 -16.5t-50.5 -34.5t-51.5 -56t-44 -85
t-32 -119q-1 -8 -8 -13t-15.5 -4t-13.5 8t-4 16q10 62 28.5 113.5t40 86.5t48.5 62.5t50.5 43t49 26t42 14.5t31.5 6h1q55 5 114.5 -4.5t119.5 -38t100 -73.5q86 -96 58 -237q-33 -108 -109 -166q66 -23 107 -63zM606 893q-49 55 -129 81t-156 22l-119 -454q186 27 332 -8
q87 49 121 161q23 117 -49 198zM455 505q-81 10 -175 4q95 -21 175 -4zM709 212q33 135 -41 210q-45 44 -129 67q-88 -42 -207 -30q-8 0 -28.5 3.5t-57.5 12.5t-56 20l-130 -494q73 -41 164 -50.5t187 13.5q111 29 190 94.5t108 153.5z" />
    <glyph glyph-name="C" unicode="C" horiz-adv-x="696" 
d="M478 998q106 10 183 -36.5t85 -125.5q1 -3 0 -6.5t-2.5 -6t-4 -5t-5.5 -3.5l-6 -2q-5 0 -9 1t-7 3.5t-5 6.5t-2 8q-7 61 -70.5 96.5t-152.5 28.5q-66 -6 -126 -34.5t-112 -83t-88.5 -130t-53 -182t-7.5 -231.5q15 -98 58.5 -162.5t111.5 -91.5q53 -20 108.5 -16t100 20
t72.5 39q32 27 29 45q-1 8 4 15t13.5 8.5t15.5 -3.5t9 -14q6 -42 -45 -83q-38 -31 -94.5 -50t-117.5 -19q-59 0 -110 19q-31 12 -58.5 31.5t-56 52.5t-50 85.5t-32.5 118.5q-9 134 9.5 248t58 194.5t96.5 139t123 89t138 36.5z" />
    <glyph glyph-name="D" unicode="D" horiz-adv-x="775" 
d="M645 876q97 -104 112 -269.5t-54 -371.5q-47 -110 -127.5 -183.5t-186.5 -101.5q-59 -16 -121 -16q-101 0 -192 41l-5 -24q-4 -17 -21 -17h-4q-5 2 -9.5 5.5t-6 8.5t-0.5 11l7 36q-26 15 -45 29q-7 6 -8 14.5t4 15t13.5 8t15.5 -4.5q9 -6 29 -19l182 905
q-31 -12 -66.5 -37t-69.5 -59t-57.5 -78.5t-26.5 -88.5q-1 -9 -7.5 -14.5t-14.5 -4.5q-6 0 -10.5 3t-7 8t-2.5 11q4 57 35.5 113t75 95t86 65t74.5 35l5 25q2 8 9 13t15.5 3t13.5 -9t3 -16l-2 -8q101 15 199 -17.5t165 -105.5zM664 250q64 193 51.5 347.5t-100.5 250.5
q-63 68 -155.5 96.5t-186.5 10.5l-189 -938q67 -32 143 -39t151 12q96 25 170 92.5t116 167.5z" />
    <glyph glyph-name="E" unicode="E" horiz-adv-x="664" 
d="M408 1036q70 -1 133 -27.5t100.5 -70.5t36.5 -92q0 -9 -6 -15t-14 -6h-1q-8 0 -14 6.5t-6 14.5q0 53 -68 100t-161 48q-21 0 -43 -2.5t-55.5 -13.5t-63.5 -30t-63 -54t-58.5 -82.5t-46 -119.5t-28.5 -161h359q9 0 15 -6t6 -15t-6 -15t-15 -6h-362q-2 -35 -2 -64
q0 -69 11 -127t28 -98t41.5 -72t48.5 -51t51.5 -32.5t48 -19.5t40.5 -9q79 -11 146 12t77 55q2 9 10 13t16 1.5t12 -10.5t2 -16q-13 -43 -75.5 -71.5t-140.5 -28.5q-27 0 -53 4q-23 3 -46 9.5t-54.5 22t-58.5 36.5t-54.5 56t-47 79t-32 108t-12.5 139q0 35 3 75q-3 5 -3 10
q0 6 4 12q7 78 22 144t34.5 114t45.5 88t52.5 66t56.5 45.5t56 30t53 17t45.5 8t35.5 1.5z" />
    <glyph glyph-name="F" unicode="F" horiz-adv-x="455" 
d="M598 1032q8 -3 11.5 -10.5t1 -15t-9 -12t-14.5 -2.5q-138 23 -175 -66q-16 -44 -43 -163q-25 -107 -44 -176h79q9 0 15 -6t6 -14.5t-6 -15t-15 -6.5h-91q0 -1 -3.5 -13t-5.5 -18q-24 -101 -43.5 -173t-41.5 -137.5t-42.5 -107.5t-45 -73.5t-51.5 -45.5t-58 -14
q-19 0 -40 5q-8 2 -12.5 9.5t-2.5 15.5t9 13t16 2q34 -8 60.5 3t52 43t50.5 95.5t51 152.5t58 222q1 4 3 11t3 10h-160q-8 0 -14.5 6.5t-6.5 15t6.5 14.5t14.5 6h172q20 74 46 186q28 122 46 168q23 58 79 82q-96 5 -172 -40q-138 -82 -163 -292q-1 -6 -4 -10.5t-8 -7
t-11 -1.5q-9 1 -14 8t-4 16q27 230 182 323q72 42 159.5 45.5t179.5 -32.5z" />
    <glyph glyph-name="G" unicode="G" 
d="M826 422q9 2 15.5 -3.5t8 -14t-4 -15.5t-13.5 -8q-84 -11 -161 -8q-6 -113 -54 -200t-131 -135q-75 -44 -160 -44q-82 0 -150 41q-23 13 -43.5 31t-45 50.5t-41.5 71.5t-27.5 98t-7.5 127q33 385 231 530q74 55 169.5 72t198.5 -7q18 -4 35 -11.5t32.5 -18t29.5 -23.5
t25.5 -27.5t19.5 -30.5q30 -58 11 -109q-3 -8 -11 -11.5t-16 -0.5t-12 11t0 16q12 34 -9 75q-17 32 -48 56.5t-67 33.5q-32 7 -66.5 10t-80.5 0.5t-95 -20t-91 -48.5q-183 -134 -215 -500q-4 -119 33.5 -207t111.5 -132q60 -36 132 -35.5t136 38.5q74 43 116.5 121.5
t47.5 179.5q-84 9 -116 41l-4 4q-25 44 0 77q13 17 36.5 23t47.5 -1q33 -9 53.5 -36.5t24.5 -67.5q78 -3 155 7zM544 444q22 -20 85 -26q-8 50 -47 61q-28 8 -40 -8q-8 -10 2 -27z" />
    <glyph glyph-name="H" unicode="H" horiz-adv-x="814" 
d="M745 519q9 0 15 -6t6 -14.5t-6 -14.5t-15 -6h-39q-26 -94 -42 -164t-26 -142t-4 -120.5t30 -72.5q6 -6 6 -14.5t-6 -14.5t-15 -6q-8 0 -14 6q-29 28 -39.5 79.5t-1.5 126t25 147.5t43 175h-346q-65 -259 -103 -316q-57 -94 -130.5 -143.5t-154.5 -49.5q-36 0 -73 9
q-8 3 -12 10.5t-2 15.5t9.5 12.5t15.5 2.5q87 -24 168.5 19.5t143.5 145.5q33 50 95 294h-20q-9 0 -15 6t-6 14.5t6 14.5t15 6h30q54 220 105 473q-67 -24 -118 -80q-83 -91 -72 -229q0 -8 -5.5 -14.5t-14.5 -7.5q-8 -1 -14.5 5t-7.5 14q-4 49 3 92.5t22.5 76.5t33 59.5
t40 47t39 32.5t33.5 22q75 41 99 25q11 -8 8 -22q-60 -300 -108 -494h348q7 28 28 101q28 99 42.5 151.5t31 125t23.5 122.5q1 9 7.5 14.5t15.5 4.5q9 -2 14 -8.5t4 -15.5q-6 -51 -23 -125t-31.5 -127t-43.5 -154q-17 -60 -25 -89h28z" />
    <glyph glyph-name="I" unicode="I" horiz-adv-x="432" 
d="M481 1011.5q9 -9.5 4 -22.5q-18 -45 -73 -307q-31 -145 -48.5 -224t-45.5 -180t-50 -145q-32 -65 -75.5 -106t-86.5 -47q-7 -1 -14 -1q-41 0 -71 34q-5 6 -4.5 15t7 14.5t15 5t14.5 -6.5q20 -24 47 -20q32 5 68 41t62 90q22 42 49.5 143.5t45 179t46.5 216.5
q43 201 59 263q-61 -45 -110.5 -123.5t-47.5 -164.5q0 -9 -6 -15t-14 -7q-5 0 -10 2.5t-8 7.5t-3 11q-2 62 22 124.5t60.5 108t75.5 77t70 42.5q13 4 22 -5.5z" />
    <glyph glyph-name="J" unicode="J" horiz-adv-x="718" 
d="M772 1020q9 -10 4 -22q-18 -46 -75 -317q-32 -150 -50 -231t-47 -185t-52 -150q-28 -57 -93.5 -90t-151.5 -33q-16 0 -33 1q-110 9 -192 67.5t-109 148.5q-2 6 -5 17.5t-7 41.5t-3.5 59.5t9.5 68.5t27 72q4 7 12 9.5t16 -1.5t10.5 -12t-2.5 -16q-15 -29 -22.5 -63.5
t-8 -60t3.5 -53t6 -36t4 -14.5q9 -30 25.5 -56.5t38 -46t46 -34.5t51 -25t52.5 -16t51 -8q82 -7 147.5 20.5t90.5 78.5q17 33 35.5 92t39.5 148.5t34 149t36 166.5q46 217 63 280q-33 -15 -67 -33.5t-75 -47.5t-71.5 -59.5t-51 -69.5t-19.5 -78q0 -9 -6 -15t-14 -6
q-9 -1 -15.5 5t-6.5 15q-1 44 18.5 86.5t49 75t69 63t74.5 51t70 37.5t50.5 23t21.5 8q13 5 22 -5z" />
    <glyph glyph-name="K" unicode="K" horiz-adv-x="793" 
d="M762 971q32 -12 50 -51t12 -77q-1 -8 -7.5 -13t-15.5 -4t-14 8t-4 15q3 24 -7 50t-28 33q-19 7 -44.5 -13t-52.5 -62l-48 -78q-34 -57 -54 -88t-52.5 -77t-64 -76t-63.5 -48q28 -14 54 -35q131 -108 149 -361q3 -46 28 -73q19 -21 40 -18q32 6 67.5 56t57.5 103
q4 8 12 11t16 0t11 -11t0 -16q-6 -16 -16.5 -36t-32 -55.5t-50.5 -61.5t-58 -31q-6 -1 -13 -1q-36 0 -65 32q-34 38 -39 98q-16 235 -134 332q-40 33 -87 45q-24 -5 -50 -1q-18 -93 -33 -164t-27.5 -126t-18.5 -70q-15 -48 -51 -80.5t-74 -32.5h-4q-13 0 -24.5 5t-26 16.5
t-26.5 36t-19 59.5q-2 8 2.5 15t13 9t16 -3t8.5 -13q17 -82 58 -84q24 0 50 25t37 61q16 39 81 367q-1 4 -1 6q0 5 4 10q47 240 86 460q-69 -37 -124 -130q-26 -43 -38 -83t-6 -64q2 -8 -2.5 -15.5t-12.5 -10.5q-5 -1 -10.5 0.5t-9.5 5.5t-5 10q-9 32 4 79.5t44 99.5
q34 57 82.5 103t100.5 58q11 3 19 -5t6 -19q-36 -200 -90 -479q22 0 40 -3q24 5 47.5 19t47 39t42.5 47t44 59.5t39 60t40 65.5q31 52 48 78q75 118 146 92z" />
    <glyph glyph-name="L" unicode="L" horiz-adv-x="913" 
d="M944 339q8 -3 11.5 -11t0.5 -16q-91 -228 -251 -293q-40 -16 -83.5 -22.5t-88.5 -1t-82 13t-83.5 24.5t-73 28.5t-68.5 30.5q-22 -42 -62.5 -71t-78.5 -29q-6 0 -12 1q-10 1 -19 5t-20 13.5t-18 28.5t-7 46q0 30 23 57t63 34q30 5 107 -29q37 136 159 816q-24 -1 -54 -22
q-54 -37 -95 -111.5t-41 -148.5q0 -9 -6 -15t-15 -6t-15 6t-6 15q0 86 46.5 169t107 125t109.5 24q16 -6 13 -23q-127 -716 -165 -846q43 -20 68 -30.5t69.5 -27.5t78.5 -23.5t76 -12t81.5 0t76.5 20.5q143 58 227 269q1 4 4 7t7 4.5t8 2t8 -1.5zM79 34q24 -4 57 18.5
t51 56.5q-62 27 -81 27h-4q-26 -5 -38.5 -20t-12.5 -30q0 -48 28 -52z" />
    <glyph glyph-name="M" unicode="M" horiz-adv-x="1118" 
d="M1204 953q8 -36 -19 -48q-8 -4 -16 -0.5t-12 11.5q-7 15 7 25q0 7 -6.5 18.5t-15.5 19.5q-11 9 -16 7q-8 -2 -15 -23q2 -7 -1 -13q-1 -2 -3 -5q-1 -3 -2 -4v-1.5v-2.5q-134 -751 -162 -820q-5 -18 -7 -38t5 -44t24 -34q8 -5 10 -13t-2 -16q-6 -10 -18 -10q-6 0 -11 3
q-28 17 -40 49.5t-10 61.5t10 55q25 63 144 728q-56 -68 -209 -217q-98 -95 -141 -141q29 -86 33 -111q5 -34 -18.5 -61t-57.5 -33q-6 -1 -13 -1q-26 0 -46.5 16.5t-27.5 52.5q-9 46 82 146q-36 97 -76 189.5t-93 181t-94 109.5q-12 7 -22 5q-19 -53 -78 -317
q-27 -118 -41.5 -182t-38 -158.5t-43.5 -155.5t-38 -96q-36 -76 -134 -107q-3 -1 -6 -1q-15 0 -20 14q-3 9 1 16.5t12 10.5q81 26 110 85q17 34 36.5 95t43 155.5t38 157t39.5 175.5q49 220 68 286q-34 -20 -67 -47.5t-65 -65t-51.5 -84.5t-18.5 -94q0 -6 -2.5 -10.5
t-7.5 -7.5t-10 -3q-9 -1 -15.5 5t-6.5 15q-1 52 19 103.5t51.5 91t69.5 73t71.5 54t60.5 29.5q30 13 65 -5t74.5 -71t76.5 -125.5t67 -143t57 -142.5q39 41 128 127q53 51 82 80t69 71.5t65.5 74.5t39.5 59q17 70 61 71q27 1 49 -23.5t28 -51.5zM648 337q17 3 30.5 17
t11.5 29q-3 18 -25 82q-60 -70 -56 -93q8 -40 39 -35z" />
    <glyph glyph-name="N" unicode="N" horiz-adv-x="878" 
d="M900 1017q8 -2 12.5 -9.5t1.5 -16.5q-28 -99 -153 -389q-82 -191 -115 -278q46 -169 50 -206q4 -46 -19.5 -84.5t-58.5 -42.5h-5q-9 0 -17.5 3t-20 12t-20 30t-12.5 51q-7 64 59 240q-40 143 -87 281t-99 252t-83 121q-4 1 -9 -8q-2 -3 -6 -5q-18 -59 -69 -299
q-31 -151 -49.5 -233.5t-47.5 -187.5t-53 -151q-25 -51 -57 -79.5t-79 -41.5q-3 -1 -6 -1q-16 0 -20 15q-2 8 2 15.5t12 10.5q40 11 65 33.5t46 66.5q22 43 51 149t47 187t49 225q45 216 63 280q-29 -17 -56 -43t-51.5 -60.5t-39 -79.5t-13.5 -92q0 -9 -6 -15t-14 -6
q-9 -1 -15 5t-7 15q-1 55 15.5 106t42.5 88t58 67.5t61 48.5t53 26q4 1 10 0q16 9 33 5q32 -8 71 -69.5t77.5 -159t71.5 -196t64 -206.5q29 73 96 228q124 288 151 384q2 5 6 9t9 5t11 0zM654 114q-3 33 -32 143q-42 -121 -37 -165q3 -30 11.5 -45.5t17.5 -13.5
q14 1 28.5 25.5t11.5 55.5z" />
    <glyph glyph-name="O" unicode="O" horiz-adv-x="850" 
d="M1042.5 871.5q1.5 -5.5 0 -11t-5.5 -9t-10 -5.5q-104 -26 -215 -34q39 -86 45.5 -188.5t-21.5 -213.5q-27 -102 -81 -187.5t-129 -142.5q-114 -89 -239 -89q-42 0 -83 10q-80 21 -142.5 79.5t-99.5 147.5q-36 87 -41 188t22 203q31 119 99 215q-16 2 -32 6q-5 1 -9.5 4.5
t-6 9t-0.5 10.5q1 9 8.5 13.5t15.5 3.5q26 -6 54 -8q69 81 155 125q5 2 11.5 5.5t22.5 8.5t30.5 8t33 2.5t32.5 -5.5q74 -43 56 -92q-12 -31 -63.5 -54t-120 -33.5t-138.5 -7.5q-75 -96 -108 -222q-25 -95 -20.5 -189t38.5 -175q33 -79 88 -131.5t125.5 -71t144.5 0
t142 70.5q69 54 119 134t75 175q27 107 19 207t-49 182h-8h-9.5h-8.5q-143 0 -186 40q-26 27 -33 54.5t-2.5 42t14.5 26.5q18 24 48.5 34t52.5 -1h1l1 -1v0q97 -48 157 -152q115 6 225 34q6 1 11 -0.5t9 -5.5t5.5 -9.5zM346 961q-65 -33 -119 -90q88 1 162.5 22.5t83.5 46.5
q6 16 -34 39q-7 3 -17 3q-35 0 -76 -21zM583 880q30 -29 160 -28q-51 79 -127 116l-1 1v0q-7 3 -23.5 -2.5t-26.5 -18.5q-22 -28 18 -68z" />
    <glyph glyph-name="P" unicode="P" horiz-adv-x="788" 
d="M725 947q68 -65 84 -156.5t-22 -192.5q-37 -69 -89.5 -118.5t-109 -75.5t-109.5 -37.5t-106 -11.5q-43 0 -80 7l-1 1q-51 -213 -89 -287q-28 -59 -96 -93t-157 -34h-27q-9 1 -14.5 7.5t-5 15t7 14.5t14.5 5q84 -5 150 23t91 80q35 70 85 279q-73 25 -78 67q-1 9 4 15.5
t13.5 7.5t15.5 -4t8 -14q1 -6 13 -14.5t34 -16.5q19 85 55 255q47 224 65 288q-29 -17 -57 -42t-54 -59t-41.5 -79.5t-14.5 -94.5q0 -6 -2.5 -10.5t-7 -7.5t-10.5 -3q-9 -1 -15 5t-6 15q-2 54 15 105t43 87.5t58.5 67t62.5 48.5t56 27h0.5h0.5q74 31 163 11.5t153 -80.5z
M749 615q21 57 24 107.5t-11 88t-30 62t-36 44.5q-54 51 -128 69t-136 -6q-19 -55 -75 -319q-36 -173 -56 -258q26 -5 54.5 -6t63.5 2t69.5 11.5t71 25.5t69.5 40.5t64.5 59t55.5 79.5z" />
    <glyph glyph-name="Q" unicode="Q" horiz-adv-x="1015" 
d="M1036 259q9 -2 13.5 -9t2.5 -16q-26 -119 -98 -156q-32 -16 -73 -16q-33 0 -74.5 11t-68.5 22.5t-75 32.5q-14 6 -18 8q-28 -26 -59 -42q-20 -10 -51 -15q4 -14 -8 -22q-28 -21 -95 -39q-37 -10 -76 -10q-48 0 -95 15q-75 25 -130.5 87.5t-83.5 146t-26.5 186.5t34.5 205
q50 152 154 258q86 88 187.5 120.5t195.5 2.5q75 -25 130.5 -87.5t83.5 -146.5t26.5 -186.5t-34.5 -204.5q-50 -152 -122 -236q1 0 2 -0.5t2 -1.5q29 -13 45 -20t44.5 -18t47 -15t41.5 -8t42 -1t35 11q55 28 76 128q1 6 5 10t9.5 5.5t10.5 0.5zM567 131q18 10 35 23
q-57 23 -85 23t-38 -21q-6 -24 3 -32q14 -8 41 -5t44 12zM636 185q72 78 122 232q31 94 33 188.5t-22 171t-73.5 133.5t-116.5 79q-82 27 -172.5 -3t-167.5 -109q-97 -99 -144 -242q-31 -94 -33 -188.5t22 -171t73.5 -133.5t116.5 -79q75 -25 147 -5q34 10 61 22
q-17 4 -27 12q-31 26 -15 79q10 21 26 32.5t34 14t42 -1.5t45 -11.5t49 -19.5z" />
    <glyph glyph-name="R" unicode="R" horiz-adv-x="908" 
d="M933 176q8 -3 11 -11t0 -16q-60 -149 -142 -160q-7 -1 -14 -1q-21 0 -43 8.5t-45.5 27.5t-42.5 36t-46 50.5t-42.5 54t-46.5 60.5q-27 37 -42 56t-40.5 51t-43 49.5t-39.5 38t-42.5 31.5t-39.5 15h-1q-57 -255 -97 -332q-30 -54 -80.5 -88t-114.5 -45q-1 -1 -3 -1
q-5 0 -9.5 2.5t-7.5 6.5t-4 9q-1 8 4 15t13 9q113 19 165 111q37 72 93 321q-32 9 -51.5 25.5t-22.5 36.5q0 8 5 15t14 8t15.5 -4.5t7.5 -13.5q0 -3 4.5 -7.5t14.5 -9.5t22 -9q13 56 36 168q51 239 69 294q-77 5 -97 -9q-6 -7 -14.5 -7t-14.5 6t-6 15t6 15q16 17 69 22
t124.5 -8.5t124.5 -45.5q23 -14 42 -31.5t35.5 -44t24 -58t4.5 -74.5t-20 -92q-43 -87 -112 -136.5t-149 -61.5q19 -14 40 -34.5t37.5 -38.5t39.5 -46.5t36.5 -46.5t38.5 -51q33 -45 51 -68.5t48.5 -58.5t51 -52.5t45 -30t44.5 -9.5q58 7 109 134q4 8 12 11t16 0zM390 972
q-18 -47 -71 -298q-22 -107 -36 -167q1 -1 2 -1h1q19 -1 39 -1t43.5 5t46.5 12.5t47.5 22t46 33t42 45t35.5 58.5q54 158 -51 236q-56 42 -145 55z" />
    <glyph glyph-name="S" unicode="S" horiz-adv-x="708" 
d="M653 459q52 -17 57 -69q5 -44 -27.5 -106t-85.5 -122t-116.5 -114t-120.5 -87q-88 -49 -172 -49q-73 0 -127 37q-48 34 -69 91.5t-11 128.5q2 8 9 13.5t15.5 4t13.5 -8.5t4 -15q-9 -60 7 -106t55 -73q47 -33 115.5 -29.5t139.5 42.5q74 44 152.5 117.5t130 150
t46.5 120.5q-3 25 -31 35q-27 12 -68.5 18.5t-71.5 7.5t-85 2q-47 0 -70.5 1t-62 4.5t-61 10.5t-46 20t-36.5 32q-40 54 -10 153q14 79 66 155.5t118 128.5t139.5 79.5t131.5 16.5q18 -3 34 -10t34.5 -20.5t31.5 -37.5t22 -56t8.5 -80t-10.5 -106q-2 -8 -9 -13t-15.5 -3.5
t-13.5 8.5t-3 15q20 116 -2 183.5t-85 78.5q-49 9 -115 -17.5t-125.5 -75t-106.5 -117.5t-59 -139q-25 -81 2 -118q13 -17 37 -28t62.5 -15.5t66 -6t77.5 -1.5q44 -1 67.5 -2t59.5 -3.5t63 -9t50 -16.5z" />
    <glyph glyph-name="T" unicode="T" horiz-adv-x="842" 
d="M952 990.5q7 -4.5 8.5 -13t-2.5 -15.5q-65 -97 -208 -97q-20 0 -48 3q-12 -85 -25.5 -176t-34.5 -223.5t-38.5 -227t-26.5 -116.5q-20 -71 -57.5 -112.5t-86.5 -45.5h-10q-42 0 -79.5 28.5t-60.5 78.5q-4 8 -1 16t11 11.5t16 0.5t12 -11q19 -41 48 -63t60 -19
q35 3 63.5 37t44.5 93q27 65 124 734q-81 12 -247 62q-35 11 -53 16t-51.5 14.5t-51.5 13.5t-46.5 10t-46 6.5t-40.5 1.5t-38 -3.5t-31 -10.5t-27.5 -17t-19.5 -26q-4 -7 -12.5 -9.5t-16 2t-10 12.5t2.5 16q11 19 24.5 33.5t32.5 23t36 14.5t42.5 6h45t51 -6t51.5 -10
t56 -14t55.5 -15.5t58.5 -17.5q165 -49 242 -61q6 13 22 12q14 -2 17 -17q155 -14 216 76q5 7 13.5 8.5t15.5 -3z" />
    <glyph glyph-name="U" unicode="U" horiz-adv-x="842" 
d="M859 73q9 2 16 -2.5t9 -13.5q1 -6 -0.5 -11t-6 -8.5t-9.5 -5.5q-20 -4 -38 -4q-53 0 -86 34q-70 73 -40 316q-32 -92 -65 -162t-64.5 -115t-60.5 -74.5t-60.5 -44t-57.5 -20t-58 -5.5q-17 0 -54 2q-28 2 -42 2q-82 2 -141 66q-46 51 -67.5 127.5t-16.5 145.5
q25 240 93 488q-30 10 -95 34l-53 19q-8 3 -12 10.5t-1 16t11 12t16 0.5l53 -19q64 -23 93 -33q52 176 92 197q34 18 61.5 -4t34 -77.5t-8.5 -100.5q-22 -74 -75 -80q-26 -2 -75 12q-68 -244 -93 -479q-4 -61 14.5 -128.5t59.5 -112.5q46 -51 111 -52q13 0 43 -2
q29 -6 60.5 -1.5t61.5 10.5t62.5 35t65 71.5t68 120.5t71.5 182t75.5 256t80.5 341q0 1 0.5 2l0.5 1q1 3 1 4l3 3l3 3l1 1h1q3 2 5 2h2h1.5t0.5 1h3h1v-1h1t2 -0.5l1 -0.5q3 -1 4 -1l3 -3t2.5 -3t2 -3.5t1.5 -3.5v-4l1 -1v-2q-6 -60 -51 -253q-14 -62 -22 -96t-21 -97
t-19.5 -102t-14.5 -94t-8.5 -92t1.5 -76t11.5 -65.5t25.5 -42.5q29 -30 85 -19zM233 988q-25 -15 -71 -173q43 -12 59 -10q26 3 40 50q11 40 7 81t-19 53q-6 4 -16 -1z" />
    <glyph glyph-name="V" unicode="V" horiz-adv-x="916" 
d="M1290 905q6 1 11 -1t9 -6t5 -10q1 -8 -3.5 -15.5t-13.5 -8.5q-14 -3 -32 -6t-58.5 -9.5t-75.5 -9t-82.5 -4.5t-80.5 4q-31 -83 -96 -226t-140 -295.5t-112 -227t-61 -121.5q-6 -12 -19 -12q-4 0 -8 2q-8 3 -11 11t0 15q41 117 57 223t10 186t-29 151.5t-52.5 119.5
t-67.5 90q-91 101 -216 148.5t-209 27.5q-47 -12 -55 -42q-2 -8 -9.5 -12.5t-16 -2.5t-12.5 9.5t-2 15.5q13 54 85 72q95 24 230.5 -26.5t235.5 -161.5q34 -36 60.5 -77t50.5 -98.5t37 -120.5t13 -144t-16 -169q240 485 312 672q-37 9 -58 25q-29 21 -32 55q-1 34 11.5 59.5
t34.5 38.5q38 20 72 -2q45 -29 38 -100q-1 -15 -11 -43q67 -6 155.5 3.5t151.5 22.5zM952 926q5 46 -18 61q-7 4 -15 4q-7 0 -15 -4q-25 -14 -24 -59q1 -13 15 -24q16 -12 47 -19q9 28 10 41z" />
    <glyph glyph-name="W" unicode="W" horiz-adv-x="904" 
d="M861 1003q30 -78 37 -175.5t-4 -186.5t-36 -188t-50.5 -171t-56 -144t-44 -99.5t-22.5 -44.5q-8 -16 -25 -10t-14 23q10 57 11.5 105t-5 85t-16 65.5t-26.5 53.5t-30.5 41t-33.5 35q-49 -72 -138 -177.5t-137 -158t-86 -92.5q-6 -7 -15 -7q-6 0 -11 4q-14 8 -8 24
q55 156 81.5 293.5t26 240t-21 186t-54.5 137t-81 85.5q-28 20 -57.5 29t-51.5 6t-36 -14q-7 -6 -15.5 -5t-14 7.5t-4.5 15.5t8 14q34 28 89 23t106 -42q20 -14 39.5 -33t46 -57.5t46 -85.5t32.5 -120t12 -157t-21 -199.5t-60 -245.5q203 223 295 358q-27 27 -42 50t-18 52
q-1 69 45 95q37 21 71 -2q43 -28 36 -97q-3 -31 -39 -91q28 -27 46.5 -49t40.5 -59t33 -86.5t10 -111.5q30 69 55.5 139t53.5 170.5t41 191t8 189.5t-35 176q-3 8 0.5 16t11.5 11q4 2 8 1.5t7.5 -2t6.5 -4.5t5 -7zM567 523q4 44 -18 58q-6 5 -14 5q-7 0 -13 -4
q-25 -14 -24 -57q3 -30 41 -68q26 44 28 66z" />
    <glyph glyph-name="X" unicode="X" horiz-adv-x="847" 
d="M865 17q6 1 11 -1t8.5 -6.5t4 -10.5t-1.5 -11t-6.5 -8.5t-10.5 -3.5q-10 -1 -20 -1q-80 -1 -157 66t-122 177l-10 24q-76 181 -118 271l-452 -570q-6 -8 -16 -8q-7 0 -13 5q-7 5 -8 13.5t5 15.5l464 586q-158 323 -298 378q-66 26 -132 -3q-7 -4 -15.5 -0.5t-12 11
t0 15.5t10.5 12q83 37 164 4q151 -60 312 -381l347 438q5 6 13.5 7t15.5 -4t8 -14t-5 -15l-359 -454q47 -98 128 -291l10 -24q43 -105 114.5 -165t140.5 -52z" />
    <glyph glyph-name="Y" unicode="Y" horiz-adv-x="730" 
d="M734 1020q4 -2 7 -5t4.5 -6.5t1.5 -7.5t-1 -8q-19 -47 -76 -318q-32 -150 -50 -231.5t-47 -186t-52 -150.5q-12 -28 -30.5 -51t-42.5 -39.5t-53.5 -27t-63.5 -12.5q-12 -1 -24 -1q-78 0 -148 39t-112 107q-9 14 -21 28t-32 31t-46.5 27t-55.5 9q-9 0 -15 6t-6 14.5t6 15
t14 6.5q30 0 58.5 -9t48 -21t38 -29t28.5 -29.5t18 -25.5q40 -64 106.5 -98.5t139.5 -28.5q27 3 51.5 11t44 21.5t35 32.5t24.5 42q43 85 113 405q7 83 -73 192t-181 168q-110 63 -167 23q-7 -5 -15.5 -3t-13.5 9t-3.5 15.5t8.5 13.5q38 26 93 20.5t119 -42.5
q80 -47 152 -128t104 -163q3 15 10 48q58 275 78 325q3 8 11 11.5t16 0.5z" />
    <glyph glyph-name="Z" unicode="Z" horiz-adv-x="1068" 
d="M1035 233q8 -2 12.5 -9.5t1.5 -15.5q-37 -138 -142 -193q-68 -36 -165 -36q-66 0 -153 19t-141 36t-145 49q-56 20 -80 28q-52 -52 -71 -61q-58 -28 -101 3q-33 23 -30 61q5 41 51 61q35 16 140 -17q173 181 566 664q-60 17 -194 74q-53 22 -80 33t-74 28.5t-77.5 24
t-67.5 11.5t-66 0t-54 -19q-79 -45 -101 -196q-1 -9 -8 -14t-16 -4q-8 1 -13.5 8t-3.5 15q24 172 122 227q28 16 61.5 23t74 2.5t73 -11t82.5 -25t79.5 -30t84.5 -35.5q147 -62 207 -76q71 87 98 122q28 36 64 30q34 -6 45 -41q9 -27 -1.5 -59t-38.5 -61q-49 -55 -151 -37
q-391 -482 -567 -668q27 -9 61 -21q61 -22 95.5 -33.5t96.5 -30t106 -25.5t96.5 -12t96.5 3t80 27q88 46 121 167q2 5 6 9t9 5.5t11 -0.5zM938 954q-9 -11 -84 -104q60 -6 89 27q43 45 32 79q-4 11 -13 13q-11 2 -24 -15zM134 87q13 6 45 38q-51 15 -74 15q-10 0 -16 -3
q-24 -11 -26 -27q-1 -14 12 -23q23 -16 59 0z" />
    <glyph glyph-name="bracketleft" unicode="[" horiz-adv-x="295" 
d="M224 -34q9 0 15 -6t6 -14.5t-6 -14.5t-15 -6h-153q-9 0 -15 6t-6 14v1048q0 8 6 14.5t15 6.5h153q9 0 15 -6.5t6 -15t-6 -14.5t-15 -6h-132v-1006h132z" />
    <glyph glyph-name="backslash" unicode="\" horiz-adv-x="448" 
d="M397 6q2 -9 -2 -16.5t-12 -9.5q-3 -1 -6 -1q-16 0 -20 14l-306 994q-3 9 1 16.5t12.5 10t16 -1.5t10.5 -12z" />
    <glyph glyph-name="bracketright" unicode="]" horiz-adv-x="295" 
d="M224 1014q9 0 15 -6.5t6 -14.5v-1048q0 -8 -6 -14t-15 -6h-153q-9 0 -15 6t-6 14.5t6 14.5t15 6h132v1006h-132q-9 0 -15 6t-6 14.5t6 15t15 6.5h153z" />
    <glyph glyph-name="asciicircum" unicode="^" horiz-adv-x="591" 
d="M539 361q3 -8 0 -16t-11 -11.5t-16 -0.5t-11 10l-210 461l-201 -460q-5 -13 -19 -13q-4 0 -8 2q-8 3 -11.5 11t0.5 16l219 504q5 12 19 13q12 2 19 -13z" />
    <glyph glyph-name="underscore" unicode="_" horiz-adv-x="695" 
d="M624 35q9 0 15 -6t6 -14.5t-6 -14.5t-15 -6h-553q-9 0 -15 6t-6 14.5t6 14.5t15 6h553z" />
    <glyph glyph-name="grave" unicode="`" horiz-adv-x="283" 
d="M168 778q31 -26 52 -68t9 -101q-1 -7 -6 -11q-7 -8 -18 -6q-9 2 -13.5 9t-3.5 15q13 66 -30 114q-18 20 -39.5 31.5t-34.5 13.5q-7 -5 -15 -5q-9 1 -14.5 8t-4.5 15q2 15 16 21q17 7 47 -4.5t55 -31.5z" />
    <glyph glyph-name="a" unicode="a" horiz-adv-x="480" 
d="M501 245.5q7 -5.5 8.5 -14t-4.5 -15.5l-6 -8t-15 -20.5t-21 -28t-24 -32t-22.5 -31t-19 -26.5t-12.5 -17q-50 -60 -84 -60q-8 0 -16 3q-36 17 -35 100q-89 -94 -164 -94q-28 0 -52 15q-47 29 -53 103t33 158q2 5 8 9q21 36 50 61.5t59 38t58 19t55.5 6t43 -2t27.5 -4.5
l5 22q2 5 6 9t9 5.5t11 0.5q8 -2 12.5 -9.5t2.5 -15.5l-65 -271q-5 -37 -3.5 -71.5t9.5 -40.5v1q16 3 48 40q1 1 2 3q16 25 120 163q5 7 13.5 8.5t15.5 -4zM56.5 52q29.5 -18 81.5 7.5t117 105.5l4 3l47 197q-15 3 -32 5t-50 -0.5t-62 -13t-61 -38t-53 -69.5l-1 -1l-1 -1
q-28 -72 -23.5 -124.5t34 -70.5z" />
    <glyph glyph-name="b" unicode="b" horiz-adv-x="389" 
d="M225 91q-78 -110 -140 -110q-11 0 -21 3q-17 6 -31 20t-22.5 32.5t-15 38.5t-9.5 40t-4.5 34t-1.5 24q1 54 10 124v2q22 161 79 356.5t106 309.5q28 70 89.5 97.5t118.5 7.5q49 -17 73 -65t3 -114q-45 -143 -115 -264.5t-152 -210.5q32 3 60 -10q13 -6 24 -17
q112 26 172 25q9 0 15 -6t6 -15q-1 -19 -22 -21q-46 3 -149 -21q1 -3 1 -5q14 -56 -16 -136t-58 -119zM111 338q-42 -34 -81 -56q-8 -61 -8 -110q-1 -40 14.5 -90t40.5 -58q19 -6 49 17.5t65 73.5q25 34 52 105.5t16 115.5l-2 6q-1 -1 -5 -2q-86 -20 -105 -18q-26 3 -36 16z
M369 1031q-17 6 -36 6q-37 0 -69.5 -22.5t-49.5 -65.5q-45 -104 -98 -282t-78 -332q108 73 215 226t166 342q16 51 0 83.5t-50 44.5zM214 374q-4 1 -9 1q-20 0 -41 -11q16 2 50 10z" />
    <glyph glyph-name="c" unicode="c" horiz-adv-x="440" 
d="M483 251q6 -6 6 -14.5t-6 -15.5q-237 -238 -374 -238q-6 0 -10 1q-58 3 -86 38q-33 40 -22 115q2 17 14 54q9 29 24 53t32 40.5t37.5 29t40 20t39.5 12.5t35.5 6.5t29.5 2t20 0.5h8q8 -1 14 -7.5t5 -15t-7.5 -14.5t-15.5 -5q-4 1 -12 1t-27 -1.5t-37 -5.5t-41.5 -13.5
t-42 -23.5t-36 -38t-26.5 -54q-11 -33 -13 -47q-8 -57 13 -82q17 -21 57 -24q118 -8 351 226q7 6 15.5 6t14.5 -6z" />
    <glyph glyph-name="d" unicode="d" horiz-adv-x="495" 
d="M661 780q-94 -199 -191.5 -327t-213.5 -202q-4 -27 -7 -57q7 -11 1 -21q0 -1 -1 -2t-1 -2q-5 -59 1 -94q5 -33 15 -37q13 -5 47 21q37 28 133 137q42 47 52 56q6 6 15 5t14.5 -7t5 -15t-6.5 -14q-8 -7 -49 -53q-99 -111 -138 -142q-40 -31 -69 -31q-10 0 -19 4
q-33 13 -42 69q-2 18 -3 43q-41 -49 -88 -96q-35 -32 -65 -32q-23 0 -40 17q-40 39 -29 135t64 157q28 33 58.5 55t57 30t44 10t33.5 0q32 150 80.5 308.5t70.5 208.5q22 60 63.5 98t92.5 45q36 5 68.5 -8t53.5 -42q14 -19 21.5 -43t2.5 -71.5t-31 -102.5zM429 888
q-29 -63 -82 -244.5t-81 -335.5q67 48 127 117t117 161t113 212q27 54 29.5 100t-18.5 75q-24 33 -69 33q-7 0 -14 -1q-39 -5 -71.5 -36t-50.5 -81zM87 45l3 3l8.5 8.5t12 12.5t15 16t17 18.5t17.5 20t17.5 20.5t16 20t13.5 19q2 32 6 60q-2 2 -3 4q-4 7 -2 15.5t9 13.5h1
q5 30 13 70q-13 1 -27 -1t-34.5 -9.5t-45 -25.5t-47.5 -45q-29 -34 -43.5 -85t-11.5 -93t18 -57q15 -14 47 15z" />
    <glyph glyph-name="e" unicode="e" horiz-adv-x="305" 
d="M353 270q-20 -51 -68 -116.5t-110.5 -116.5t-108.5 -51h-6q-53 4 -67 72q-6 29 -7.5 60t1.5 57.5t10 53.5t14.5 48.5t17.5 42t17.5 34.5t16 26.5t11 16.5t4.5 6q14 19 42.5 30.5t49.5 0.5q35 -18 17 -75q-6 -25 -160 -229q0 -33 7 -64q8 -37 29 -39q24 -1 61.5 24.5
t73.5 64t68.5 85t47.5 84.5q4 8 12 11.5t16 0.5t11 -11t0 -16zM150 398h-1q-7 0 -19 -6t-19 -15q-6 -7 -16 -22t-29.5 -58t-29.5 -86q104 141 111 160q3 12 3 27z" />
    <glyph glyph-name="f" unicode="f" horiz-adv-x="278" 
d="M-299 -661h-15q-65 0 -100 52q-30 44 -24 110t46 142q128 227 288 361l-0.5 0.5l-0.5 0.5q-6 15 -0.5 32t22.5 30t36 15.5t34 -6.5q33 145 45 204q23 72 70 109.5t87 25.5q7 -2 13.5 -5.5t15 -13t13 -23t4 -37.5t-8.5 -53q-27 -84 -174 -228q141 63 237 208q5 8 13.5 9.5
t15.5 -3t9 -13t-3 -15.5q-46 -71 -105.5 -124.5t-109.5 -81t-99 -41.5q-101 -422 -153 -518q-23 -58 -65 -94.5t-91 -42.5zM-35 -16q-17 -2 -29 -1q-163 -132 -291 -360q-35 -65 -41.5 -119.5t16.5 -88.5q27 -40 76 -34q39 4 71.5 34t52.5 79q48 89 145 490zM177 375
q-3 1 -7 1q-23 0 -52.5 -29.5t-45.5 -77.5q-3 -19 -39 -174q131 130 153 200q9 32 6.5 54t-15.5 26z" />
    <glyph glyph-name="g" unicode="g" horiz-adv-x="428" 
d="M469.5 245q6.5 -5 7.5 -14t-5 -15q-94 -116 -217 -178q-115 -452 -169 -558q-21 -46 -60 -69t-85 -23q-28 0 -54 9q-53 18 -85 69.5t-16 130.5q46 211 304 389h-1.5h-2.5q-7 0 -13 1q-63 8 -88 52q-35 62 16 185q2 5 7 8q23 48 57 81.5t59.5 47t52.5 20.5q65 16 118 -7
q1 2 2.5 8.5t2.5 9.5q2 8 9.5 12.5t16 2.5t13 -9.5t1.5 -15.5q-4 -16 -9 -38q2 -10 -5 -18q-13 -51 -25 -101q-21 -85 -31 -127v-4q94 55 170 148q5 7 14 7.5t15.5 -4.5zM79 28q26 -3 65.5 17.5t84.5 60.5q14 58 32 129q14 59 24 97q-42 23 -98 8q-18 -4 -36 -13.5t-41 -27
t-44.5 -49t-36.5 -73.5l-1 -1q-27 -80 -7 -116q15 -26 58 -32zM48 -502q51 98 156 512q-51 -31 -94 -60.5t-91.5 -71.5t-84.5 -84.5t-65.5 -96t-41.5 -109.5q-13 -60 10 -99t64 -52q41 -14 84 1t63 60z" />
    <glyph glyph-name="h" unicode="h" horiz-adv-x="386" 
d="M465 1003q14 -19 21.5 -43t2.5 -72t-31 -102q-127 -271 -267 -415q32 4 51 -8q32 -21 25 -73l-3.5 -16.5t-8.5 -38.5t-11 -51t-11.5 -55t-9.5 -49t-5 -34q0 -8 7 -12q11 -7 32 3q8 6 30.5 36t55.5 84.5t56 107.5q4 8 12.5 11.5t17 -0.5t11.5 -12.5t-1 -16.5
q-25 -56 -59.5 -113.5t-62.5 -94t-41 -42.5q-21 -10 -41 -10q-19 0 -34 10q-26 17 -26 51q4 51 49 249q3 24 -5 29q-12 7 -47 -4.5t-74 -33.5q-26 -20 -51 -35q-50 -204 -66 -265q-4 -15 -20 -15h-5q-9 2 -13 9.5t-2 16.5q15 58 64 258q-4 13 6 22l13 53q135 516 163 578
q22 60 63.5 97.5t92.5 45.5q36 5 68.5 -8.5t53.5 -41.5zM420 804q27 54 29.5 100t-18.5 75q-29 40 -83 32q-39 -5 -71.5 -36t-50.5 -81q-29 -64 -162 -572q0 -2 -1 -4q8 5 20 12q93 73 175 188.5t162 285.5z" />
    <glyph glyph-name="i" unicode="i" horiz-adv-x="182" 
d="M222.5 272.5q7.5 -4.5 9 -13t-3.5 -15.5q-121 -185 -152 -218q-39 -41 -67 -41q-7 0 -14 3q-28 11 -30 62q0 83 87 348q3 8 10.5 12t16 1t12 -10.5t1.5 -16.5q-10 -28 -24.5 -74t-37.5 -136t-23 -123q0 -18 4 -24l4 2t12.5 9t18.5 17q28 30 147 212q5 7 13.5 8.5t16 -3z
M103 467q-13 0 -22 9t-9 22t9 22t22 9l36 -1q-5 -35 -5 -37q-3 -11 -11.5 -17.5t-19.5 -6.5z" />
    <glyph glyph-name="j" unicode="j" horiz-adv-x="217" 
d="M258.5 271q6.5 -6 7 -14.5t-5.5 -14.5q-28 -33 -89.5 -80t-120.5 -77q-117 -475 -171 -581q-10 -24 -26.5 -42t-35.5 -29t-40 -16.5t-43 -5.5q-27 0 -53 9q-53 17 -85.5 68.5t-16.5 130.5q15 70 52.5 139t84 122.5t102.5 101.5t104 79t92 53q16 67 44 181q29 120 38 159
q2 9 9.5 13.5t16 2t13 -9.5t2.5 -16q-10 -40 -39 -159q-25 -104 -35 -145q50 29 97.5 67t68.5 62q5 6 14 7t15.5 -5zM-158 -478q50 99 158 538q-42 -24 -85.5 -54.5t-92 -74.5t-87.5 -91.5t-70.5 -107.5t-44.5 -121q-9 -42 0.5 -75t29 -50.5t44.5 -26.5q42 -13 84.5 2.5
t63.5 60.5zM132 474q-13 1 -21.5 11t-7.5 23t10.5 21.5t22.5 7.5l35 -4q-6 -34 -7 -36q-3 -11 -12 -17t-20 -6z" />
    <glyph glyph-name="k" unicode="k" horiz-adv-x="364" 
d="M465 1011q14 -19 21.5 -43.5t2.5 -72t-31 -101.5q-127 -271 -267 -416q20 -2 33 -15q19 -19 20.5 -56t-11.5 -65q-17 -45 -52 -64q19 -43 25 -129q2 -11 8 -19.5t13 -10.5q18 -3 43 38q14 20 53 101q42 88 56 105q5 7 13.5 7.5t15.5 -5t8 -14t-5 -14.5q-11 -14 -50 -97
q-41 -84 -56 -106q-35 -57 -76 -57q-5 0 -10 1q-20 4 -35 22t-19 44q-7 92 -25 123q-19 0 -59 7q-32 6 -45 7h-1q-2 0 -5 1h-1t-1 1q-33 -134 -47 -187q-4 -16 -20 -16q-3 0 -5 1q-9 2 -13 9.5t-2 15.5q15 59 64 259q-4 12 6 22l13 53q135 516 163 578q22 59 63.5 97
t92.5 45q36 5 68.5 -8t53.5 -41zM194 257q9 25 8.5 47t-8.5 30q-6 6 -19 1q-26 -9 -63 -29q-33 -25 -65 -45q-3 -11 -9 -38q42 10 72 6t47 -18q24 10 37 46zM420 812q27 54 29.5 99.5t-18.5 74.5q-29 40 -83 33q-39 -6 -71.5 -37t-50.5 -80q-29 -64 -162 -573v-1q8 5 22 12
q92 73 173.5 188t160.5 284z" />
    <glyph glyph-name="l" unicode="l" horiz-adv-x="285" 
d="M169 32q-43 -40 -88 -40q-15 0 -28 5q-25 9 -40 32t-20 56q-10 71 13 205t61.5 267t73 238.5t52.5 144.5q22 59 63 97t92 45q25 4 47.5 -1t42 -17t32.5 -31q14 -19 22 -43.5t3 -72t-31 -101.5q-97 -205 -197.5 -334.5t-220.5 -203.5q-21 -124 -11 -187q5 -45 32 -55
q32 -12 75 28q60 46 152 217q4 8 12.5 10.5t16 -1.5t10 -12.5t-1.5 -15.5q-97 -180 -162 -230zM437 1008q-25 34 -69 34q-7 0 -14 -1q-39 -6 -71.5 -37t-50.5 -80q-31 -69 -87.5 -251.5t-87.5 -337.5q103 72 192.5 193t176.5 306q26 54 29 99.5t-18 74.5z" />
    <glyph glyph-name="m" unicode="m" horiz-adv-x="642" 
d="M668.5 241.5q7.5 -4.5 10 -12.5t-1.5 -16q-25 -44 -45 -72t-71 -91l-10 -13q-52 -59 -86 -59q-9 0 -17 4q-18 8 -25.5 31t-6 41.5t1.5 28.5q1 25 23 127q18 88 21 116q4 35 -17 40q-22 6 -55.5 -8t-67.5 -46.5t-52 -73.5l-0.5 -0.5t-0.5 -1.5q-4 -23 -11 -55
q-29 -149 -30 -172q-1 -8 -7 -14t-14 -6h-1q-9 1 -15 7.5t-5 14.5q1 25 31 178q23 117 26 142q4 30 -15 35q-34 10 -92 -25.5t-84 -92.5q-2 -4 -7 -8l-68 -235q-4 -15 -20 -15q-3 0 -6 1q-8 2 -12.5 9.5t-1.5 16.5l117 408q2 4 4.5 7.5t6 5.5t7.5 2.5t8 -1.5q9 -2 13 -9.5
t1 -15.5l-19 -68q40 36 85.5 53t78.5 7q24 -7 36 -26.5t10 -47.5q40 42 88 63t82 12q9 -3 16.5 -7t16.5 -13.5t13.5 -26.5t2.5 -39q-4 -29 -23 -120q-20 -99 -21 -122q-3 -21 -1 -38.5t6 -20.5h0.5t2 0.5l3 1t4 2t5.5 3.5t7.5 5.5t9 8t10 10.5t12.5 13l10 13
q49 61 68.5 87.5t42.5 68.5q4 8 12.5 10.5t16 -2z" />
    <glyph glyph-name="n" unicode="n" horiz-adv-x="418" 
d="M433.5 217.5q7.5 -4.5 9.5 -12.5t-3 -16q-36 -58 -114 -150q-41 -45 -73 -45q-8 0 -15 2q-13 5 -21.5 17t-12 27t-4.5 24t-1 16q1 26 21 120q18 81 21 107q3 30 -16 35q-31 9 -85 -26.5t-78 -90.5q-2 -4 -6 -8l-64 -234q-4 -15 -20 -15q-3 0 -6 1q-8 2 -12.5 9.5
t-1.5 15.5l110 407q3 8 10.5 12.5t15.5 2t12.5 -10t2.5 -15.5l-18 -66q37 34 79 50.5t72 8.5q17 -5 28 -16t15.5 -27.5t2.5 -37.5q-3 -27 -21 -111q-19 -91 -20 -112q0 -15 4 -28.5t8 -15.5q11 -2 41 32q76 89 111 144q4 8 12.5 9.5t16 -3z" />
    <glyph glyph-name="o" unicode="o" horiz-adv-x="450" 
d="M333 116q-18 -43 -46.5 -75t-63.5 -50t-72 -18q-10 0 -20 2q-24 6 -36.5 23.5t-8.5 40.5q12 32 61.5 56t141.5 49q7 2 11 4q4 11 7 22q20 77 -5 142t-80 79t-108 -30.5t-73 -122.5q-22 -88 12 -157q7 -16 18 -19q9 -3 13 -10.5t1 -16t-10.5 -12.5t-15.5 -1q-31 10 -44 42
q-41 81 -14 185q24 94 91.5 147.5t139.5 34.5q69 -17 103 -92t16 -165q34 24 107 108q5 6 14 7t15.5 -5t7 -14.5t-5.5 -15.5q-59 -68 -90 -95.5t-66 -42.5zM139 15q37 -5 73.5 17.5t63.5 64.5q-139 -40 -150 -69q-1 -9 13 -13z" />
    <glyph glyph-name="p" unicode="p" horiz-adv-x="384" 
d="M424 270q7 -5 8.5 -13.5t-3.5 -15.5q-15 -22 -43 -69q-14 -25 -22 -37t-23 -33.5t-27 -33t-30.5 -26t-37 -21.5t-43.5 -11.5t-53 -3.5q-9 1 -22 5q-7 -3 -14 -7q-37 -16 -72 -16q-36 0 -65 18q-113 -434 -150 -504q-23 -56 -65.5 -91.5t-94.5 -40.5q-9 -1 -17 -1
q-38 0 -70 16.5t-52 46.5q-11 16 -18 36.5t-9.5 51t8 73t36.5 89.5q41 74 89.5 138t85.5 103t81 74t64 48.5t49 29.5q10 6 14 9q0 3 1 6q4 8 12 11t16 0q1 0 2 -1q20 72 55 218q28 113 36 135q3 8 10.5 11.5t16 0.5t12 -11t0.5 -16q-4 -11 -11 -38q43 37 97 14
q42 -17 69.5 -62.5t27.5 -97.5q0 -62 -25.5 -115t-67.5 -91q26 2 48.5 11t37.5 20t32 33t26.5 37t26.5 44q28 48 45 72q5 7 13.5 8.5t15.5 -3.5zM-211 -480q39 72 154 524q-1 0 -4 -2t-4 -3q-29 -17 -48.5 -29.5t-62 -46.5t-77 -70.5t-80.5 -97.5t-86 -133q-33 -62 -38 -116
t19 -90q11 -16 26.5 -27t34.5 -15.5t39 -2.5q41 4 74.5 33t52.5 76zM-7 44q30 -21 72 -12q-60 20 -72 12zM122 56q46 30 77 83t31 115q0 42 -21.5 76t-49.5 46q-33 14 -58 -10l-41 -37q-2 -8 -5 -21q-34 -143 -56 -221q30 2 103 -24q11 -4 20 -7z" />
    <glyph glyph-name="q" unicode="q" horiz-adv-x="437" 
d="M473 267.5q8 -3.5 11.5 -11t0.5 -15.5q-21 -56 -85.5 -116.5t-119.5 -75.5q3 -5 11 -21q22 -43 34.5 -73t31.5 -86.5t26.5 -126t3.5 -148.5q-4 -57 -18.5 -103t-38.5 -77.5t-56 -45.5q-24 -11 -49 -11q-42 0 -77 28q-39 31 -55 84t-5 117q3 52 117 446q-65 -38 -107 -38
h-4q-63 4 -91 46q-40 59 2 185h1v1q25 63 65.5 103.5t91.5 53.5q73 18 135 -24q5 20 7 27q1 6 4.5 10t9 6t10.5 0q9 -1 13.5 -8.5t3.5 -15.5q-6 -26 -69 -244q-5 -20 -13 -46q37 6 99.5 60t82.5 107q3 8 11 12t16 0.5zM97 36q19 -2 57 16t69 43q2 7 14 51q37 127 49 170
l-1 0.5l-1 0.5q-48 41 -111 25q-41 -10 -74 -44t-54 -87q-36 -106 -8 -148q17 -24 60 -27zM346 -404q3 75 -4 141t-25 120t-30 82.5t-33 69.5l-8 16q-113 -394 -117 -444q-9 -54 3 -97t42 -67q39 -30 82 -11q38 17 61.5 66.5t28.5 123.5z" />
    <glyph glyph-name="r" unicode="r" horiz-adv-x="365" 
d="M411 226q-21 -40 -43.5 -76.5t-51.5 -76t-59.5 -63.5t-55.5 -24q-4 0 -8 1q-37 6 -46 57q-4 22 4 55t18 56t31 65q48 102 40 114q-4 2 -15 1q-74 -7 -121 36q-7 -20 -24 -61q-20 -49 -28 -74q-2 -5 -6.5 -9t-9.5 -5t-11 1q-8 3 -12 10.5t-1 15.5q9 26 30 76q25 62 31 88
q-13 26 -16 57q-5 53 24 56q18 2 26 -16t11 -52q2 -18 -1 -38l6 -8q32 -41 98 -35q38 4 53 -19q8 -11 9 -26.5t-7 -38.5t-15 -40t-24 -51q-17 -36 -26 -56.5t-17.5 -49.5t-5.5 -44q4 -23 12 -24q12 -1 34.5 18t61 71t78.5 129q4 8 12.5 10.5t16 -1.5t10 -12.5t-1.5 -16.5z
" />
    <glyph glyph-name="s" unicode="s" horiz-adv-x="297" 
d="M336.5 294q7.5 -5 9 -13.5t-2.5 -15.5q-41 -63 -157 -151q-12 -28 -38.5 -62t-48.5 -49q-17 -13 -31 -13q-6 0 -11 2q-21 11 -22 29q-2 20 19.5 41.5t80.5 65.5q2 2 7.5 5.5t7.5 5.5q-2 6 -36 15q-65 17 -98 45q-37 30 -7 92q18 35 57 76.5t74 60.5l1 1q24 13 39 10h4
q24 -6 24 -34q0 -8 -5.5 -14.5t-14.5 -6.5q-14 1 -19 12q-3 -1 -7 -4q-2 0 -3 -1q-30 -17 -68 -56.5t-50 -75.5q-7 -21 2 -28q26 -23 81 -37q47 -12 59 -30q91 71 125 123q4 8 12.5 10t16 -3z" />
    <glyph glyph-name="t" unicode="t" horiz-adv-x="334" 
d="M370 286.5q8 -3.5 11 -11.5t0 -16q-12 -27 -43 -69.5t-71 -85.5t-86.5 -73.5t-82.5 -30.5h-8q-55 5 -72 78q-20 115 17 275l-42 -2h-1q-6 0 -10.5 2.5t-7.5 7t-3 10.5q-1 9 5 15t15 7l55 3q20 76 52.5 161.5t64.5 154.5t69.5 140.5t62.5 115t49 81.5q5 8 13.5 10
t15.5 -2.5t9 -13t-2 -16.5q-26 -41 -55.5 -94t-76 -142t-89.5 -193.5t-69 -199.5l124 6q5 1 10 -1.5t8.5 -7.5t3.5 -10q0 -9 -5.5 -15.5t-14.5 -6.5l-137 -7q-39 -159 -21 -270q10 -42 36 -44h4q33 0 86 43t97 97.5t62 93.5q3 8 11 11t16 -0.5z" />
    <glyph glyph-name="u" unicode="u" horiz-adv-x="420" 
d="M459.5 295.5q7.5 -4.5 9.5 -12.5t-3 -16q-131 -211 -160 -242q-26 -28 -48 -28q-6 0 -12 2q-32 12 -35 85v3v3q-24 -44 -45 -70q-13 -16 -38 -29.5t-50 -13.5q-8 0 -15 2q-48 9 -67 72q-13 43 5 125.5t39.5 138.5t35.5 85q4 8 12.5 10.5t16 -1t10.5 -12t-1 -16.5
q-32 -63 -62 -166.5t-16 -151.5q11 -39 35 -43q16 -4 35 5.5t28 20.5q32 40 66 114.5t59 151.5q15 50 27 88q3 8 10.5 12t16 1.5t12.5 -10.5t1 -16l-1 -3t-3 -9.5t-4 -12.5q-6 -25 -19 -62q-46 -161 -46 -215q1 -33 7 -45q7 3 16 13q26 29 155 236q4 7 12.5 9t16 -2.5z" />
    <glyph glyph-name="v" unicode="v" horiz-adv-x="374" 
d="M416.5 273.5q6.5 -5.5 6.5 -14.5t-5 -15q-50 -53 -111 -91t-105 -23q-31 -48 -56 -82q-38 -61 -83 -61q-8 0 -16 2q-21 6 -34.5 25.5t-14.5 45.5q-1 53 10 194q4 52 5 70q3 29 -7 40q-6 7 -5.5 15.5t7 14.5t15 5.5t14.5 -7.5q22 -24 18 -71q-1 -19 -5 -71
q-4 -42 -5.5 -67t-3.5 -61.5t-1 -60.5q0 -12 5.5 -21t12.5 -11q23 -6 53 43q33 46 60 87q-11 26 -9 52.5t16 57.5t30 54.5t35 44.5q52 58 78 41q24 -16 -2 -71q-37 -80 -94 -171q26 -2 71.5 27.5t90.5 77.5q6 7 14.5 7t15 -5.5zM207 227q-3 -9 -4 -16q42 69 71 130
q-51 -58 -67 -114z" />
    <glyph glyph-name="w" unicode="w" horiz-adv-x="435" 
d="M478 273.5q6 -5.5 6.5 -14t-5.5 -15.5q-21 -23 -49.5 -45.5t-66 -39.5t-66.5 -13q-38 -61 -65 -97q-37 -58 -79 -58q-8 0 -15 2q-34 9 -45 50q-42 -46 -77 -46h-1q-36 0 -58 40q-7 17 -8 37.5t3.5 42.5t9.5 40t15.5 41t16.5 35.5t17 32.5q10 18 14 27q6 12 20 36
q21 38 27 56q3 8 10.5 12t16 1t12 -10.5t1.5 -15.5q-7 -22 -31 -63q-13 -23 -19 -34q-3 -7 -14 -28l-14.5 -29t-15.5 -31.5t-14.5 -36t-9.5 -33.5t-4.5 -34t5.5 -29q9 -17 20 -16q33 1 94 96q7 17 22 41q9 14 12 20q1 0 2 2l1 1l1 1t1 2l3.5 1.5t3.5 2.5h2.5h1.5
q4 1 4.5 0.5t2.5 -0.5q1 0 1 -1h1.5t2.5 -1h1l3 -2l3 -3l2 -3q0 -1 0.5 -2t1.5 -2v-4q1 -3 0 -4l-1 -4v-1.5t-1 -2.5q-15 -31 -35 -63q-9 -23 -13 -53q0 -8 5 -16t12 -10q20 -5 48 40q31 42 63 93q-19 24 -16 56.5t17.5 61.5t38.5 58q62 73 95 52q26 -16 0 -71
q-29 -64 -72 -135q26 6 62 30.5t63 53.5q6 7 15 7t15 -5.5zM286 207q42 71 71 133l1 1q-52 -46 -68 -99q-7 -20 -4 -35z" />
    <glyph glyph-name="x" unicode="x" horiz-adv-x="409" 
d="M432.5 18q2.5 -8 -1 -16t-11.5 -11q-21 -7 -39 -7q-22 0 -41 10q-37 18 -60.5 64t-51.5 129l-178 -190q-7 -7 -16 -7q-8 0 -14 6t-6.5 14.5t5.5 14.5l194 207q-19 57 -38.5 93t-44.5 49q-19 7 -47.5 -22t-58.5 -85q-4 -8 -12 -10.5t-15.5 1.5t-10.5 12t1 16q20 39 41 66
t37.5 40t33 19t27.5 5.5t21 -4.5q56 -29 98 -146l135 144q6 6 14.5 6.5t15 -5.5t7 -14.5t-5.5 -15.5l-150 -159q2 -6 5 -17q17 -50 27 -76.5t28 -57t38 -40.5t47 0q8 3 16 -1t10.5 -12z" />
    <glyph glyph-name="y" unicode="y" horiz-adv-x="438" 
d="M474 316q12 -5 13 -18q2 -23 -187 -205q-7 -22 -13 -44q-12 -48 -36 -138.5t-66 -234t-60 -177.5q-25 -55 -65.5 -87.5t-88.5 -35.5h-10q-42 0 -79 21t-60 59q-34 53 -31 121t43 137q20 37 53.5 76t76.5 78t76.5 66t79.5 62q-14 0 -22 2q-67 13 -88 83q-7 24 -6.5 57
t4.5 61.5t15 70t18 64.5t20 64q12 36 16 50q2 6 6 9.5t9.5 5t10.5 -0.5q9 -2 13 -9.5t1 -16.5q-4 -16 -16 -51q-10 -31 -15.5 -48.5t-15 -49.5t-14 -55t-8.5 -50t-3.5 -49.5t5.5 -39.5q14 -46 56 -54q30 -6 62 4.5t40 20.5q24 30 46.5 90t33.5 103t27 116q13 54 18 74
q1 6 5 10t9.5 5.5t10.5 -0.5h1.5h0.5q8 2 15 0q8 -3 11.5 -11t0.5 -16q-7 -19 -34 -131q-19 -82 -32 -132q110 111 126 132q3 9 11 12t16 0zM87 -483q39 71 153 519q-16 -15 -73 -57q-51 -39 -81.5 -63t-78.5 -65.5t-82 -80.5t-55 -76q-33 -60 -36.5 -116.5t23.5 -99.5
q19 -30 48.5 -46.5t62.5 -14.5q76 6 119 100z" />
    <glyph glyph-name="z" unicode="z" horiz-adv-x="437" 
d="M472.5 287.5q7.5 -4.5 9 -13t-3.5 -16.5q-25 -37 -146 -156q5 -10 9 -24q27 -94 -2.5 -249.5t-122.5 -313.5q-92 -159 -198 -159q-21 0 -40 6q-51 18 -78 72.5t-18 118.5q9 54 39 116t66 114t92.5 116.5t97 106t100.5 101.5q-24 11 -50 -6t-70 -63q-1 -2 -3.5 -4.5
l-3.5 -3.5q-16 -19 -31 -33q-6 -5 -15 -5t-15 6t-5.5 15t6.5 15q1 0 12 12l0.5 0.5l0.5 0.5q6 6 15 16q30 34 50 72.5t27.5 66t9.5 55t1 37t-2 14.5q-9 50 -31 62q-17 11 -51 -2q-25 -11 -49 -42t-33 -57q-3 -8 -11 -12t-16 -1q-5 2 -9 6.5t-5 9.5t1 11q12 33 41 70.5
t65 53.5q54 19 88 0q39 -23 51 -92q2 -9 3 -25t-4.5 -57.5t-21.5 -81.5q40 17 76 -2l10 -6q113 111 135 144q5 8 13.5 9.5t16 -3zM180 -464q48 82 79 166.5t42 153.5t10.5 122.5t-10.5 88.5l-1 2v1q-57 -56 -97 -97t-93 -102t-87.5 -110t-62.5 -107t-36 -108q-8 -48 12 -90
t56 -54q43 -15 93 20.5t95 113.5z" />
    <glyph glyph-name="braceleft" unicode="{" horiz-adv-x="385" 
d="M319 1012q8 -2 13 -9.5t3 -16t-9 -13t-16 -2.5q-16 3 -27 -5q-19 -14 -33.5 -59.5t-21 -83.5t-15.5 -109q-8 -61 -13 -91.5t-14.5 -72t-23 -64.5t-32.5 -35q10 -22 10.5 -62t-3 -71.5t-13.5 -94.5q-4 -27 -6 -41.5t-5 -41t-4 -42t-2 -37t1 -35t5.5 -27t10 -21.5t16.5 -11
q5 -1 9 -5.5t5 -9.5t0 -11q-5 -14 -20 -14q-4 0 -7 1q-15 4 -27 13.5t-18.5 25.5t-11 31t-4.5 40v42.5t3.5 48.5t6 48.5t7.5 51.5q7 44 10 68t6 59t0 55.5t-12 30.5l-1 1q-11 2 -24 7q-15 7 -11.5 23.5t20.5 16.5q16 0 29 -6q4 1 8 3q12 7 22.5 28.5t18.5 60t12 66t11 78.5
q8 61 13 92.5t15 76t24.5 71t34.5 40.5q26 19 60 12z" />
    <glyph glyph-name="verticalbar" unicode="|" horiz-adv-x="142" 
d="M71 997q9 0 15 -6t6 -15v-984q0 -8 -6 -14t-15 -6t-15 6t-6 14v984q0 9 6 15t15 6z" />
    <glyph glyph-name="braceright" unicode="}" horiz-adv-x="385" 
d="M323 490q15 -7 11.5 -23.5t-20.5 -16.5q-16 0 -28 6q-4 0 -8 -2q-9 -5 -16.5 -16.5t-13.5 -31.5t-10.5 -38t-9.5 -48t-7.5 -48t-6.5 -51q-8 -62 -13 -93.5t-15.5 -76t-24.5 -70.5t-34 -40t-43 -14q-8 0 -17 2q-9 1 -13.5 8.5t-3 16t9 13t15.5 2.5q16 -3 28 6
q18 13 33 58.5t21 83.5t15 109q8 61 13 91.5t14.5 72t23 64.5t32.5 35q-10 22 -10.5 62t3 72t13.5 94q4 27 6 41.5t5.5 41t4 42t1.5 37t-1 35t-5.5 27t-10 21.5t-15.5 11q-9 2 -13 10t-1.5 16t10.5 12t16 2q16 -5 27.5 -14.5t18 -25.5t11 -31t5 -40t0 -42.5t-4 -48.5
t-6 -48.5t-7.5 -51.5q-6 -44 -9.5 -68t-6 -58.5t0.5 -55.5t11 -31l1 -1q12 -1 24 -7z" />
    <glyph glyph-name="asciitilde" unicode="~" horiz-adv-x="713" 
d="M651 415.5q8 -3.5 11 -11.5t-1 -16q-32 -72 -110 -72q-28 0 -66.5 10.5t-64 21t-71.5 29.5q-40 17 -65.5 27.5t-54.5 19.5t-48 10.5t-38 -1.5t-31.5 -14.5t-21.5 -30.5q-4 -8 -12 -11t-16 0.5t-11 11.5t1 16q9 20 21.5 34t25.5 23t32 11.5t34 3.5t38.5 -4t38.5 -9.5
t41.5 -14.5t40.5 -15.5t41 -17.5q39 -17 64.5 -27t54.5 -19.5t48.5 -11t38 1.5t31 14.5t21.5 30.5q4 8 12 11t16 -0.5z" />
    <glyph glyph-name="nonbreakingspace" unicode="&#xa0;" horiz-adv-x="504" 
 />
    <glyph glyph-name="exclamdown" unicode="&#xa1;" horiz-adv-x="334" 
d="M244.5 932q-16.5 0 -28.5 11.5t-12 28.5t12 28.5t28.5 11.5t28 -11.5t11.5 -28.5t-11.5 -28.5t-28 -11.5zM209 807q19 -6 24.5 -29t-2 -81t-24.5 -137.5t-50 -219.5q-71 -296 -65 -331q9 -8 6 -20q-1 -5 -4.5 -9.5t-8.5 -6t-11 -0.5q-11 2 -18 12q-12 20 0.5 94.5
t59.5 269.5q20 81 30.5 129t26 120t20.5 114.5t0 56.5q-15 8 -10 24q5 15 20 15q4 0 6 -1z" />
    <glyph glyph-name="cent" unicode="&#xa2;" horiz-adv-x="568" 
d="M496.5 260q8.5 0 15 -6t6.5 -14q0 -62 -33 -109t-81.5 -70t-103.5 -25h-6q-34 0 -68 10l-82 -275q-4 -15 -20 -15q-3 0 -6 1q-8 3 -12 10.5t-2 15.5l83 278q-59 29 -95.5 88.5t-41.5 148.5q-2 70 11.5 128.5t43 102.5t73.5 70q80 49 177 29l84 280q1 4 3.5 7t6 5t7.5 2.5
t9 -0.5q8 -3 12 -10.5t2 -15.5l-84 -280q16 -6 29 -14q45 -25 69 -63.5t24 -83.5q0 -9 -6 -15t-15 -6t-15 6.5t-6 14.5q0 22 -8 43t-24.5 38t-38.5 30q-8 4 -21 10l-145 -489q30 -9 61 -9q70 2 123.5 45.5t53.5 116.5q0 8 6 14t14.5 6zM92 300q7 -144 107 -197l144 484
q-79 16 -144 -24q-55 -33 -82.5 -101t-24.5 -162z" />
    <glyph glyph-name="sterling" unicode="&#xa3;" horiz-adv-x="578" 
d="M600.5 72.5q5.5 -6.5 4.5 -15t-7 -14.5q-61 -50 -137 -50q-44 0 -136 24q-45 12 -69.5 17t-64.5 9.5t-77.5 -1t-76.5 -21.5q-13 -5 -23 5.5t-4 23.5q14 27 53 76q21 25 32 40t25.5 43t19 53t2 62t-14.5 79h-138q-9 0 -15 6.5t-6 15t6 14.5t15 6h123q-8 21 -17 41
q-17 52 -22 98.5t-0.5 78.5t16.5 60t24 44t27 29q53 48 133.5 57t154.5 -24q61 -28 95 -76t33 -108q0 -9 -6 -15t-14.5 -6t-15 6t-6.5 15q1 31 -11.5 59t-36 50t-56.5 37q-62 28 -130.5 20.5t-111.5 -46.5q-93 -83 -34 -264q12 -26 23 -56h222q8 0 14 -6t6 -14.5t-6 -15
t-14 -6.5h-209q13 -45 14 -86.5t-5 -69.5t-22.5 -59t-28 -46.5t-32.5 -42.5l-18 -21q35 7 69 8.5t70 -3.5t58 -10t60 -15l54 -13.5t47 -8t48 -0.5t42.5 12.5t44.5 26.5q7 6 15.5 5t14 -7.5z" />
    <glyph glyph-name="currency" unicode="&#xa4;" horiz-adv-x="653" 
d="M638 679q6 -6 6 -14.5t-6 -15.5l-109 -109l1.5 -2.5t1.5 -3.5q42 -98 13 -215q-18 -73 -62 -132l90 -116q6 -6 5 -15t-8 -14q-6 -4 -13 -4q-10 0 -17 8l-85 110q-72 -73 -157 -73q-21 0 -42 5q-63 16 -105 74l-107 -107q-6 -6 -15 -6t-15 6t-6 14.5t6 14.5l114 115
q-51 102 -20 228q15 59 48 111l-88 113q-6 7 -5 15.5t8 14t15.5 4.5t14.5 -8l81 -104q17 21 38 38q85 70 177 47q68 -17 111 -80l101 101q6 6 14.5 6t14.5 -6zM504 329q26 103 -10 189q-35 82 -107 100q-16 3 -32 3q-57 0 -109 -42q-72 -59 -97 -162q-25 -101 9.5 -185.5
t108 -103t143 40.5t94.5 160z" />
    <glyph glyph-name="yen" unicode="&#xa5;" horiz-adv-x="714" 
d="M643 241q8 0 14.5 -6t6.5 -15t-6.5 -15t-14.5 -6h-257v-212q0 -8 -6 -14.5t-15 -6.5t-15 6.5t-6 14.5v212h-273q-9 0 -15 6t-6 15t6 15t15 6h273v102l-9 15h-264q-9 0 -15 6t-6 15t6 15t15 6h240l-241 418q-4 8 -2 16.5t9.5 12.5t16 2t12.5 -10l253 -439h10l238 439
q4 7 12.5 9.5t16 -1.5t10 -12.5t-1.5 -15.5l-227 -419h226q8 0 14.5 -6t6.5 -15t-6.5 -15t-14.5 -6h-249l-8 -15v-102h257z" />
    <glyph glyph-name="section" unicode="&#xa7;" horiz-adv-x="535" 
d="M453 1017q32 -8 32 -46q0 -8 -6 -14t-14 -6t-14.5 5.5t-7.5 13.5q0 5 -1 7h-1t-4 -1t-6.5 -2t-10 -3.5t-13.5 -6.5q-3 -2 -6 -2q-31 -19 -68 -51t-76 -76.5t-62 -87.5q-46 -82 -10 -112q24 -20 55 -35t50.5 -21t51.5 -15q19 -5 28 -7.5t24.5 -8t23.5 -11t17 -13.5
t13.5 -19t5.5 -24q3 -39 -53 -118t-106 -117q37 -11 58 -27.5t24 -47.5q2 -40 -57 -122t-107 -117q-27 -20 -48 -20q-7 0 -14 3q-28 14 -30 38q-2 31 36 67.5t142 113.5l35 27q1 4 1 7q-1 16 -18 25t-63 21q-35 9 -56.5 15.5t-55.5 24t-61 39.5q-29 24 -31 64q-1 32 18 74
t47.5 80t64.5 75q-11 8 -22 17q-58 47 -8 149q32 65 103 139.5t133 107.5v1h1q36 20 60 18q4 -1 6 -1zM221 -5q34 34 65 77q-27 -20 -46.5 -35.5t-38.5 -32.5t-29 -29t-9 -18l5 -4l1.5 1t4 2t5.5 3t7.5 5.5t9.5 7.5t11.5 10t13.5 13zM299 305q34 34 64 77q-57 -43 -90.5 -73
t-31.5 -42q1 -2 5 -4l1.5 0.5t3.5 2t5.5 3.5t8 5.5t9.5 7.5t11.5 10t13.5 13zM413 478q-2 16 -18.5 25t-62.5 21q-73 19 -115 40q-58 -58 -92.5 -114t-32.5 -92q1 -21 15 -33q38 -31 93 -51q4 28 42.5 63t134.5 107l35 26v1q1 4 1 7z" />
    <glyph glyph-name="dieresis" unicode="&#xa8;" horiz-adv-x="361" 
d="M90 684q-17 0 -28.5 11.5t-11.5 28t11.5 28.5t28.5 12t28.5 -12t11.5 -28.5t-11.5 -28t-28.5 -11.5zM271 684q-17 0 -28.5 11.5t-11.5 28t11.5 28.5t28.5 12t28.5 -12t11.5 -28.5t-11.5 -28t-28.5 -11.5z" />
    <glyph glyph-name="copyright" unicode="&#xa9;" horiz-adv-x="808" 
d="M557 292q9 -1 14.5 -7.5t4.5 -15.5q-5 -53 -56.5 -91t-117.5 -38h-2q-30 0 -57 10.5t-51.5 31t-41 57t-19.5 85.5q0 66 24 115t69 75q41 23 90.5 23.5t88.5 -22.5q57 -33 56 -91q0 -18 -21 -21q-5 1 -10 3.5t-7.5 7.5t-2.5 11q0 33 -36 54q-29 17 -67.5 17t-69.5 -18
q-73 -42 -73 -153q3 -36 14 -63.5t25 -42t32 -23.5t31 -11.5t26 -2.5h2q50 0 89.5 27.5t42.5 63.5q1 9 7.5 14t15.5 5zM404 693q96 0 178 -47.5t129 -129t47 -177.5t-47 -177.5t-129 -129t-178 -47.5t-177.5 47.5t-129 129t-47.5 177.5q0 72 28 137.5t75.5 113t113 75.5
t137.5 28zM404 26q129 0 221 92t92 221t-92 220.5t-221 91.5t-220.5 -91.5t-91.5 -220.5t91.5 -221t220.5 -92z" />
    <glyph glyph-name="guillemotleft" unicode="&#xab;" horiz-adv-x="539" 
d="M97 280l188 -275q5 -7 3.5 -15.5t-8.5 -13.5q-5 -4 -12 -4q-11 0 -17 9l-197 289q-9 13 1 25l256 306q5 7 14 7.5t15.5 -5t7.5 -14t-5 -15.5zM481.5 603.5q6.5 -5.5 7.5 -14t-5 -15.5l-245 -294l188 -275q5 -7 3.5 -15.5t-9.5 -13.5q-5 -4 -11 -4q-11 0 -18 9l-197 289
q-9 13 1 25l256 306q6 7 14.5 7.5t15 -5z" />
    <glyph glyph-name="registered" unicode="&#xae;" horiz-adv-x="816" 
d="M445 317q61 -57 111 -169q3 -8 0 -16t-11 -11q-4 -2 -8 -2q-14 0 -19 13q-58 131 -134 180l-87 -1v-171q0 -9 -6 -15t-15 -6t-15 6t-6 15v357q0 8 6 14t15 6h171q44 0 70 -45q14 -25 14 -53.5t-13 -52.5q-23 -37 -73 -49zM391 354q70 -1 91 34q18 30 -2 64q-13 24 -33 24
h-150v-123l94 1v0zM408 697q72 0 138.5 -28.5t114.5 -76.5t76.5 -114t28.5 -139q0 -97 -48 -179.5t-130.5 -130.5t-179.5 -48t-179.5 48t-130.5 130.5t-48 179.5t48 179.5t130.5 130.5t179.5 48zM408 23q131 0 223.5 92.5t92.5 223.5t-92.5 223.5t-223.5 92.5t-223.5 -92.5
t-92.5 -223.5t92.5 -223.5t223.5 -92.5z" />
    <glyph glyph-name="degree" unicode="&#xb0;" horiz-adv-x="373" 
d="M228 815.5q54 -13.5 80 -72t9 -127.5q-15 -61 -56.5 -99.5t-89.5 -38.5q-13 0 -26 3q-53 13 -79.5 71.5t-9.5 128t67.5 109t104.5 26zM276 626q13 52 -4 96t-54 53q-8 2 -16 2q-34 0 -64 -30t-41 -77q-13 -52 4 -95.5t54.5 -53t72.5 21.5t48 83z" />
    <glyph glyph-name="plusminus" unicode="&#xb1;" 
d="M71 417q-4 0 -8 1.5t-7 4.5t-4.5 6.5t-1.5 8.5q0 8 6 14.5t15 6.5l294 -1v294q0 9 6 15t14.5 6t15 -6t6.5 -15v-294h294q8 0 14 -6t6 -14.5t-6 -14.5t-14 -6h-294v-294q0 -9 -6.5 -15t-15 -6t-14.5 6t-6 15v294h-294zM701 43q8 0 14 -6.5t6 -15t-6 -14.5t-14 -6h-630
q-9 0 -15 6t-6 14.5t6 15t15 6.5h630z" />
    <glyph glyph-name="acute" unicode="&#xb4;" horiz-adv-x="283" 
d="M217 814q14 -6 16 -21q0 -5 -2 -10t-6.5 -8.5t-10.5 -3.5q-8 -1 -15 4q-5 -1 -13 -4t-18 -8t-21.5 -14t-21.5 -19q-43 -48 -30 -113q1 -9 -3.5 -16t-13.5 -9q-11 -2 -19 6q-4 4 -5 11q-20 102 61 169q25 20 55 31.5t47 4.5z" />
    <glyph glyph-name="paragraph" unicode="&#xb6;" horiz-adv-x="579" 
d="M508 956q6 0 10.5 -2.5t7.5 -7.5t3 -11q0 -8 -6 -14t-15 -6h-117q1 -4 1 -8l-47 -886q0 -6 -3 -10.5t-7.5 -7t-10.5 -2.5h-1q-8 0 -14 6.5t-5 15.5l46 887l1 5h-119q0 -1 -1 -1h-1q1 -5 1 -7l-47 -886q0 -9 -6 -14.5t-14 -5.5h-2q-8 0 -14 6.5t-5 15.5l31 593
q-1 0 -1.5 -0.5t-1.5 -0.5q-13 0 -26 4q-55 13 -81 74q-24 57 -8 125q16 65 62 104t97 33q4 1 8 1h285z" />
    <glyph glyph-name="cedilla" unicode="&#xb8;" horiz-adv-x="358" 
d="M291 -69q25 -28 14 -71q-10 -40 -46 -60q-34 -20 -90 -20q-53 0 -104 14q-8 2 -12.5 9.5t-2 16t10 13t16.5 1.5q19 -5 45 -9t61 -2.5t55.5 13.5t26.5 35q5 21 -6 33q-15 17 -57.5 22.5t-80.5 1.5q-11 -1 -18 8t-4 19l27 86q3 8 10.5 12t16 1.5t12.5 -10t1 -15.5l-18 -57
q104 4 143 -41z" />
    <glyph glyph-name="guillemotright" unicode="&#xbb;" horiz-adv-x="539" 
d="M485 295q10 -12 1 -25l-198 -289q-6 -9 -17 -9q-6 0 -12 4q-7 5 -8.5 13.5t3.5 15.5l188 275l-246 294q-5 7 -4.5 15.5t7.5 14t15.5 5t14.5 -7.5zM343 295q10 -12 1 -25l-197 -289q-6 -9 -17 -9q-7 0 -12 4q-7 5 -8.5 13.5t2.5 15.5l189 275l-246 294q-6 7 -5 15.5
t7.5 14t15 5t14.5 -7.5z" />
    <glyph glyph-name="questiondown" unicode="&#xbf;" horiz-adv-x="721" 
d="M562.5 903q-16.5 0 -28 11.5t-11.5 28.5t11.5 28.5t28 11.5t28.5 -11.5t12 -28.5t-12 -28.5t-28.5 -11.5zM656 296q27 -52 4.5 -124t-86.5 -133q-34 -33 -75.5 -56t-90.5 -35t-104.5 -4t-108.5 39q-133 107 -144 240q-3 30 1 61t13 57.5t20 50t24.5 44t23.5 33.5t20 25
q14 15 30.5 29t40 28t39.5 23t46 25q37 19 56.5 29.5t49.5 31t46.5 37.5t31.5 41.5t19 51.5q2 8 7.5 13t13.5 5q2 0 3 -1q9 -1 14 -8t3 -16q-3 -20 -10 -39.5t-19.5 -36t-24 -30.5t-30 -28.5t-32 -24.5t-36.5 -23t-35.5 -20t-36.5 -19q-38 -20 -58 -31t-45.5 -29t-41.5 -36
q-15 -17 -29 -37.5t-31 -52t-26 -71t-5 -79.5q9 -115 126 -209q59 -34 123 -34t113.5 23.5t90.5 62.5q52 51 73 109.5t0 98.5q-4 8 -1.5 16t10 12t16 1.5t12.5 -10.5z" />
    <glyph glyph-name="Agrave" unicode="&#xc0;" horiz-adv-x="657" 
d="M441 1394q-8 1 -13.5 7.5t-4.5 15.5q1 14 15 20q17 7 47 -4t55 -32q82 -66 62 -169q-1 -7 -6 -11q-8 -8 -19 -6q-8 2 -13 9t-3 16q13 65 -31 113q-18 20 -39.5 31.5t-34.5 13.5q-6 -5 -15 -4zM684 557q9 0 15 -6t6 -15t-6 -15t-14 -6h-60q-1 -91 -6.5 -164t-19 -141.5
t-39 -116.5t-62.5 -71q-32 -20 -71 -20q-50 0 -111 33q-8 4 -10.5 12t1.5 16t12.5 10.5t15.5 -1.5q88 -47 141 -15q104 66 106 458h-120q-102 -184 -230 -336t-203 -180q-14 -5 -26 -5q-22 0 -35 16q-6 6 -5 15t7.5 14.5t15.5 4.5t14 -8q2 -2 15 2q61 23 181 164.5
t219 312.5h-64q-9 0 -15 6t-6 15t6 15t15 6h87q136 250 131 410q0 1 0.5 2l0.5 1q-1 50 -1 79q0 9 6.5 15t15.5 6q8 -1 14 -7t6 -15q-1 -57 6 -224q7 -175 8 -267h59zM484 557h98q0 88 -5 215q-32 -100 -93 -215z" />
    <glyph glyph-name="Aacute" unicode="&#xc1;" horiz-adv-x="661" 
d="M722 1437q14 -6 16 -20q1 -9 -4.5 -15.5t-14.5 -7.5q-8 -1 -14 4q-8 -1 -19.5 -5.5t-27 -15t-28.5 -24.5q-43 -48 -30 -113q1 -9 -3.5 -16t-13.5 -9q-11 -2 -18 6q-5 5 -6 11q-20 103 61 169q12 10 26 18t28 13.5t26.5 7t21.5 -2.5zM684 557q9 0 15 -6t6 -15t-6 -15
t-14 -6h-60q-1 -91 -6.5 -164t-19 -141.5t-39 -116.5t-62.5 -71q-32 -20 -71 -20q-50 0 -111 33q-8 4 -10.5 12t1.5 16t12.5 10.5t15.5 -1.5q88 -47 141 -15q104 66 106 458h-120q-67 -121 -150 -234t-158.5 -188.5t-124.5 -93.5q-14 -5 -26 -5q-22 0 -35 16q-6 6 -5 15
t7.5 14.5t15.5 4.5t14 -8q2 -2 15 2q61 23 181 164.5t219 312.5h-64q-9 0 -15 6t-6 15t6 15t15 6h87q136 250 131 410q0 1 0.5 2l0.5 1q-1 50 -1 79q0 9 6.5 15t15.5 6q5 0 10 -3t7.5 -8t2.5 -11q-1 -57 6 -224q7 -175 8 -267h59zM484 557h99q-1 88 -6 215
q-32 -100 -93 -215z" />
    <glyph glyph-name="Acircumflex" unicode="&#xc2;" horiz-adv-x="629" 
d="M645 1401q82 -66 62 -169q-2 -7 -6 -11q-8 -8 -19 -6q-8 2 -13 9t-3 16q12 65 -31 113q-27 30 -64 42q-3 -1 -4 -1q-5 -1 -10 2q-6 -3 -11 -2l-4 1q-36 -12 -64 -42q-43 -48 -30 -113q2 -9 -3 -16t-14 -9q-11 -2 -18 6q-5 5 -6 11q-20 103 61 169q45 36 85 39h1.5h2.5h2
h2q39 -3 84 -39zM656 557q9 0 15 -6t6 -15t-6 -15t-14 -6h-60q-1 -91 -6.5 -164t-19 -141.5t-39 -116.5t-62.5 -71q-32 -20 -71 -20q-50 0 -111 33q-8 4 -10.5 12t1.5 16t12.5 10.5t15.5 -1.5q88 -47 141 -15q104 66 106 458h-120q-102 -184 -230 -336t-203 -180
q-14 -5 -26 -5q-22 0 -35 16q-6 6 -5 15t7.5 14.5t15.5 4.5t14 -8q2 -2 15 2q61 23 181.5 164.5t218.5 312.5h-64q-9 0 -15 6t-6 15t6 15t15 6h87q136 250 131 410q0 1 0.5 2l0.5 1q-1 50 -1 79q0 9 6.5 15t15.5 6q8 -1 14 -7t6 -15q-1 -57 6 -224q7 -175 8 -267h59z
M456 557h99q-1 88 -6 215q-32 -100 -93 -215z" />
    <glyph glyph-name="Atilde" unicode="&#xc3;" horiz-adv-x="642" 
d="M786.5 1319q8.5 -3 12 -11t0.5 -16q-18 -53 -58 -68q-14 -5 -31 -5q-23 0 -52.5 10.5t-49 20.5t-55.5 31q-39 22 -60 33t-49 19t-45 2q-21 -8 -33 -43q-3 -8 -11 -12t-16 -1t-12 11t-1 16q18 53 58 68q11 4 24.5 5t25 -0.5t27 -7t27 -9.5t29 -13.5t27.5 -15t29 -16.5
q40 -22 60.5 -32.5t48.5 -19t45 -2.5q21 8 33 43q3 8 10.5 12t16 1zM661 557q8 0 14 -6t6 -15t-6 -15t-14 -6h-60q-1 -91 -6.5 -164t-19 -141.5t-39 -116.5t-62.5 -71q-32 -20 -71 -20q-50 0 -111 33q-8 4 -10.5 12t1.5 16t12.5 10.5t15.5 -1.5q88 -47 141 -15
q104 66 106 458h-120q-102 -184 -230 -336t-203 -180q-14 -5 -26 -5q-22 0 -35 16q-6 6 -5 15t7.5 14.5t15.5 4.5t14 -8q2 -2 15 2q61 23 181 164.5t219 312.5h-64q-9 0 -15 6t-6 15t6 15t15 6h87q136 250 131 410q0 1 0.5 2l0.5 1q-1 50 -1 79q1 9 7 15t15 6q8 -1 14 -7
t6 -15q-1 -57 6 -224q7 -175 8 -267h60zM460 557h98q0 88 -5 215q-32 -100 -93 -215z" />
    <glyph glyph-name="Adieresis" unicode="&#xc4;" horiz-adv-x="637" 
d="M468.5 1219q-16.5 0 -28.5 12t-12 28.5t12 28t28.5 11.5t28 -11.5t11.5 -28t-11.5 -28.5t-28 -12zM649.5 1219q-16.5 0 -28.5 12t-12 28.5t12 28t28.5 11.5t28 -11.5t11.5 -28t-11.5 -28.5t-28 -12zM668 557q9 0 15 -6t6 -15t-6 -15t-14 -6h-60q-1 -91 -6.5 -164
t-19 -141.5t-39 -116.5t-62.5 -71q-32 -20 -71 -20q-50 0 -111 33q-8 4 -10.5 12t1.5 16t12.5 10.5t15.5 -1.5q88 -47 141 -15q104 66 106 458h-120q-102 -184 -230 -336t-203 -180q-14 -5 -26 -5q-22 0 -35 16q-6 6 -5 15t7.5 14.5t15.5 4.5t14 -8q2 -2 15 2
q61 23 181 164.5t219 312.5h-64q-9 0 -15 6t-6 15t6 15t15 6h87q136 250 131 410q0 1 0.5 2l0.5 1q-1 50 -1 79q0 9 6.5 15t15.5 6q8 -1 14 -7t6 -15q-1 -57 6 -224q7 -175 8 -267h59zM468 557h98q0 88 -5 215q-32 -100 -93 -215z" />
    <glyph glyph-name="Aring" unicode="&#xc5;" horiz-adv-x="661" 
d="M551 1200q-34 9 -50.5 45t-6 78.5t42 67t65.5 15.5q22 -5 38 -24t20.5 -44.5t-1.5 -54.5q-9 -37 -35 -61t-56 -24q-8 0 -17 2zM535 1314q-4 -18 -2 -33t9.5 -26t18.5 -14q9 -2 17.5 1t16.5 10t14 18t9 23q4 18 2 33t-9.5 26t-18.5 14q-3 1 -7 1q-15 0 -29.5 -15.5
t-20.5 -37.5zM680 557q9 0 15 -6t6 -15t-6 -15t-14 -6h-60q-1 -91 -6.5 -164t-19 -141.5t-39 -116.5t-62.5 -71q-32 -20 -71 -20q-50 0 -111 33q-8 4 -10.5 12t1.5 16t12.5 10.5t15.5 -1.5q88 -47 141 -15q104 66 106 458h-120q-67 -121 -150 -234t-158.5 -188.5
t-124.5 -93.5q-14 -5 -26 -5q-22 0 -35 16q-6 6 -5 15t7.5 14.5t15.5 4.5t14 -8q2 -2 15 2q61 23 181 164.5t219 312.5h-64q-9 0 -15 6t-6 15t6 15t15 6h87q136 250 131 410q0 1 0.5 2l0.5 1q-1 50 -1 79q0 9 6.5 15t15.5 6q5 0 10 -3t7.5 -8t2.5 -11q-1 -57 6 -224
q7 -175 8 -267h59zM480 557h98q0 88 -5 215q-32 -100 -93 -215z" />
    <glyph glyph-name="AE" unicode="&#xc6;" horiz-adv-x="1176" 
d="M955 1064q70 0 133 -27t100.5 -71t37.5 -92q0 -8 -6.5 -14t-14.5 -6q-9 0 -15 6t-6 15q0 53 -68 100t-161 48q-21 0 -42.5 -3t-55.5 -14t-64 -29.5t-63 -54t-58.5 -82.5t-46 -119.5t-28.5 -161.5h360q8 0 14.5 -6t6.5 -14.5t-6.5 -15t-14.5 -6.5h-291q-5 -2 -9 -2h-60
q-1 -59 -3 -114q5 -82 28 -146t51.5 -100.5t66.5 -62t65.5 -34.5t56.5 -13q78 -12 145 11.5t77 55.5q2 8 10 12t16 1.5t12 -10t2 -16.5q-13 -43 -75.5 -71.5t-140.5 -28.5q-27 0 -53 4q-25 4 -50 11.5t-59.5 25.5t-63.5 43.5t-57.5 69t-45.5 97.5q-14 -85 -40.5 -143
t-68.5 -85q-32 -20 -71 -20q-50 0 -111 33q-8 4 -10.5 12.5t1.5 16t12.5 10t15.5 -1.5q88 -47 141 -14q90 56 104 353q-2 31 -2 42q0 23 3 62h-119q-102 -184 -230 -336t-203 -180q-14 -5 -26 -5q-22 0 -35 16q-6 6 -5 15t7.5 14.5t15.5 4.5t14 -8q2 -2 15 2
q61 23 181 164.5t219 312.5h-64q-9 0 -15 6t-6 15t6 15t15 6h87q136 250 131 410v2l1 1q-1 50 -1 79q0 9 6.5 15t15.5 6q5 0 10 -3t7.5 -8t2.5 -11q-1 -57 6 -224q0 -13 1 -39t1 -32q18 59 44.5 107.5t53.5 80t59.5 55.5t60.5 36.5t58 20t49.5 9.5t38.5 2zM549 772
q-32 -100 -93 -215h98q0 88 -5 215z" />
    <glyph glyph-name="Ccedilla" unicode="&#xc7;" horiz-adv-x="677" 
d="M438 1014q106 9 183 -37.5t85 -124.5q1 -6 -1.5 -11t-7 -8.5t-10 -4t-10.5 2t-8.5 7t-3.5 9.5q-7 61 -70.5 97t-153.5 28q-65 -6 -125 -34.5t-112 -83t-88.5 -129.5t-53 -181.5t-7.5 -231.5q15 -98 58.5 -163t111.5 -91q53 -21 108.5 -16.5t100 20.5t72.5 39q32 26 29 44
q-1 9 4 16t13.5 8t15.5 -4t9 -13q6 -42 -45 -83q-24 -20 -57.5 -35.5t-73.5 -25t-81 -9.5q-14 0 -30 2l-15 -46q104 4 143 -41q25 -28 14 -70q-10 -40 -46 -61q-34 -20 -90 -20q-53 0 -104 14q-8 3 -12 10.5t-2 15.5t9.5 12.5t16.5 2.5q19 -6 45 -10t61 -2.5t55.5 13.5
t26.5 35q5 21 -6 33q-15 18 -57 23.5t-81 1.5q-11 -2 -18 7t-4 20l22 69q-22 5 -38 11q-31 12 -58.5 31.5t-56 52t-50 85t-32.5 119.5q-9 134 9.5 248t58 194t96.5 138.5t123 89t138 37.5z" />
    <glyph glyph-name="Egrave" unicode="&#xc8;" horiz-adv-x="646" 
d="M305 1394q-9 1 -14.5 7.5t-4.5 15.5q1 14 16 20q16 7 46 -4t55 -32q82 -66 62 -169q-1 -7 -6 -11q-8 -8 -19 -6q-8 2 -13 9t-3 16q13 65 -30 113q-19 20 -40.5 31.5t-34.5 13.5q-6 -5 -14 -4zM406 1064q70 0 133 -27t100.5 -71t36.5 -92q0 -8 -6 -14.5t-14 -6.5h-1
q-8 0 -14 6.5t-6 14.5q0 54 -68 101t-161 47q-21 1 -43 -2t-55.5 -14t-63.5 -29.5t-63 -54t-58.5 -82.5t-46 -119.5t-28.5 -161.5h359q9 0 15 -6t6 -14.5t-6 -15t-15 -6.5h-362q-2 -35 -2 -64q0 -69 11 -126.5t28 -97.5t41.5 -72t48.5 -51.5t51.5 -33t48 -19t40.5 -8.5
q79 -12 146 11.5t77 54.5q2 9 10 13t16 1.5t12 -10t2 -16.5q-13 -43 -75.5 -71.5t-140.5 -28.5q-27 0 -53 4q-23 4 -46 10.5t-54.5 21.5t-58.5 36t-54.5 56.5t-47 79.5t-32 107.5t-12.5 138.5q0 35 3 75q-3 5 -3 10q0 7 4 13q8 98 30.5 178.5t51 132.5t66 91.5t71.5 60
t72 32.5t62.5 15t47.5 3z" />
    <glyph glyph-name="Eacute" unicode="&#xc9;" horiz-adv-x="645" 
d="M409 1221q-4 5 -6 11q-19 103 62 169q12 10 26 18t28 13.5t26.5 7t21.5 -2.5q14 -6 16 -20q0 -9 -5.5 -15.5t-13.5 -7.5t-15 4q-13 -2 -34.5 -13.5t-39.5 -31.5q-43 -48 -31 -113q2 -9 -3 -16t-13 -9q-11 -2 -19 6zM402 1064q70 0 133 -27t100.5 -71t36.5 -92
q0 -8 -6 -14.5t-14 -6.5h-1q-8 0 -14 6.5t-6 14.5q0 54 -68 101t-161 47q-21 1 -43 -2t-55.5 -14t-63.5 -29.5t-63 -54t-58.5 -82.5t-46 -119.5t-28.5 -161.5h359q9 0 15 -6t6 -14.5t-6 -15t-15 -6.5h-362q-2 -35 -2 -64q0 -69 11 -126.5t28 -97.5t41.5 -72t48.5 -51.5
t51.5 -33t48 -19t40.5 -8.5q79 -12 146 11.5t77 54.5q2 9 10 13t16 1.5t12 -10t2 -16.5q-13 -43 -75.5 -71.5t-140.5 -28.5q-27 0 -53 4q-23 4 -46 10.5t-54.5 21.5t-58.5 36t-54.5 56.5t-47 79.5t-32 107.5t-12.5 138.5q0 35 3 75q-3 5 -3 10q0 7 4 13q8 98 30.5 178.5
t51 132.5t66 91.5t71.5 60t72 32.5t62.5 15t47.5 3z" />
    <glyph glyph-name="Ecircumflex" unicode="&#xca;" horiz-adv-x="630" 
d="M229 1221q-5 5 -6 11q-20 103 62 169q44 36 84 39h2h2h2h2q40 -3 84 -39q82 -66 62 -169q-1 -7 -6 -11q-8 -8 -19 -6q-8 2 -13 9t-3 16q13 65 -30 113q-28 30 -64 42q-4 -1 -5 -1q-4 -1 -10 2q-6 -3 -10 -2q-1 0 -5 1q-36 -12 -64 -42q-43 -48 -30 -113q2 -9 -3 -16
t-13 -9q-11 -2 -19 6zM394 1064q70 0 133 -27t100.5 -71t36.5 -92q0 -8 -6 -14.5t-14 -6.5h-1q-8 0 -14 6.5t-6 14.5q0 54 -68 101t-161 47q-21 1 -43 -2t-55.5 -14t-63.5 -29.5t-63 -54t-58.5 -82.5t-46 -119.5t-28.5 -161.5h359q9 0 15 -6t6 -14.5t-6 -15t-15 -6.5h-362
q-2 -35 -2 -64q0 -69 11 -126.5t28 -97.5t41.5 -72t48.5 -51.5t51.5 -33t48 -19t40.5 -8.5q79 -12 146 11.5t77 54.5q2 9 10 13t16 1.5t12 -10t2 -16.5q-13 -43 -75.5 -71.5t-140.5 -28.5q-27 0 -53 4q-23 4 -46 10.5t-54.5 21.5t-58.5 36t-54.5 56.5t-47 79.5t-32 107.5
t-12.5 138.5q0 35 3 75q-3 5 -3 10q0 7 4 13q8 98 30.5 178.5t51 132.5t66 91.5t71.5 60t72 32.5t62.5 15t47.5 3z" />
    <glyph glyph-name="Edieresis" unicode="&#xcb;" horiz-adv-x="630" 
d="M335.5 1219q-16.5 0 -28.5 12t-12 28.5t12 28t28.5 11.5t28.5 -11.5t12 -28t-12 -28.5t-28.5 -12zM516.5 1219q-16.5 0 -28.5 12t-12 28.5t12 28t28.5 11.5t28 -11.5t11.5 -28t-11.5 -28.5t-28 -12zM414 1064q42 0 83 -10.5t74.5 -28.5t59 -41.5t40 -52t13.5 -57.5
q0 -8 -6 -14.5t-14 -6.5h-1q-8 0 -14 6.5t-6 14.5q0 54 -68 101t-161 47q-16 1 -32 -1t-40 -7.5t-47 -15t-49.5 -27.5t-50 -41.5t-46.5 -59t-41 -79t-31.5 -103t-20.5 -129.5h359q9 0 15 -6t6 -14.5t-6 -15t-15 -6.5h-362q-2 -35 -2 -64q0 -69 11 -126.5t28 -97.5t41.5 -72
t48.5 -51.5t51.5 -33t48 -19t40.5 -8.5q79 -12 146 11.5t77 54.5q2 9 10 13t16 1.5t12 -10t2 -16.5q-13 -43 -75.5 -71.5t-140.5 -28.5q-27 0 -53 4q-23 4 -46 10.5t-54.5 21.5t-58.5 36t-54.5 56.5t-47 79.5t-32 107.5t-12.5 138.5q0 35 3 75q-3 5 -3 10q0 7 4 13
q8 98 30.5 178.5t51 132.5t66 91.5t71.5 60t72 32.5t62.5 15t47.5 3z" />
    <glyph glyph-name="Igrave" unicode="&#xcc;" horiz-adv-x="497" 
d="M352 1366q-8 0 -13.5 7t-5.5 15q2 15 16 21q17 7 47 -4.5t55 -31.5q81 -67 61 -169q-1 -7 -5 -11q-8 -8 -19 -6q-6 1 -10 4.5t-6 9t-1 10.5q13 66 -30 114q-12 14 -28 24.5t-27 14.5t-19 6q-7 -5 -15 -4zM515 1044.5q9 -9.5 4 -21.5q-18 -45 -73 -308
q-31 -145 -48.5 -223.5t-45.5 -180t-50 -145.5q-32 -64 -75.5 -105.5t-86.5 -47.5q-7 -1 -14 -1q-41 0 -71 34q-5 7 -4.5 15.5t6.5 14t15 5t14 -6.5q21 -23 48 -19q32 4 68 40t62 90q17 32 35 89t38.5 144t33 145t34.5 161q43 202 59 263q-61 -45 -110.5 -123.5
t-47.5 -164.5q0 -9 -6 -15t-14 -6q-8 -1 -14.5 5t-7.5 15q-1 63 23 125.5t60.5 107.5t75.5 77t70 42q13 4 22 -5.5z" />
    <glyph glyph-name="Iacute" unicode="&#xcd;" horiz-adv-x="395" 
d="M508 1409q15 -6 16 -21q1 -8 -4.5 -15t-14.5 -7q-8 -1 -14 4q-14 -2 -35.5 -13.5t-39.5 -31.5q-43 -48 -30 -114q1 -4 0 -8t-3 -7t-5.5 -5.5t-8.5 -3.5q-10 -2 -18 6q-5 4 -6 11q-20 102 62 169q25 20 54.5 31.5t46.5 4.5zM405 1050q13 4 22 -5.5t4 -21.5
q-18 -45 -73 -308q-31 -145 -48.5 -223.5t-45.5 -180t-50 -145.5q-32 -64 -75.5 -105.5t-86.5 -47.5q-7 -1 -14 -1q-41 0 -71 34q-5 7 -4.5 15.5t6.5 14t15 5t14 -6.5q21 -23 48 -19q32 4 68 40t62 90q17 32 35 89t38.5 144t33 145t34.5 161q43 202 59 263
q-61 -45 -110.5 -123.5t-47.5 -164.5q0 -6 -2.5 -10.5t-7.5 -7.5t-10 -3q-8 -1 -14.5 5t-7.5 15q-1 63 23 125.5t60.5 107.5t75.5 77t70 42z" />
    <glyph glyph-name="Icircumflex" unicode="&#xce;" horiz-adv-x="420" 
d="M473 1373q81 -67 61 -169q-1 -7 -5 -11q-8 -8 -19 -6q-6 1 -10 4.5t-6 9t0 10.5q12 66 -31 114q-28 30 -64 42l-4 -1q-5 -1 -10 2q-6 -3 -11 -2l-4 1q-37 -12 -64 -42q-43 -48 -30 -114q1 -5 -1 -10.5t-6 -9t-10 -4.5q-11 -2 -19 6q-4 4 -5 11q-20 102 61 169
q45 36 84 38h2.5h2.5h2h2q39 -2 84 -38zM408 1050q13 4 22 -5.5t4 -21.5q-18 -45 -73 -308q-31 -145 -48.5 -223.5t-45.5 -180t-50 -145.5q-32 -64 -75.5 -105.5t-86.5 -47.5q-7 -1 -14 -1q-41 0 -71 34q-5 7 -4.5 15.5t6.5 14t15 5t14 -6.5q21 -23 48 -19q32 4 68 40t62 90
q17 32 35 89t38.5 144t33 145t34.5 161q43 202 59 263q-61 -45 -110.5 -123.5t-47.5 -164.5q0 -9 -6 -15t-14 -6q-5 -1 -10 1.5t-8 7.5t-4 11q-1 63 23 125.5t60.5 107.5t75.5 77t70 42z" />
    <glyph glyph-name="Idieresis" unicode="&#xcf;" horiz-adv-x="436" 
d="M239.5 1219q-16.5 0 -28.5 12t-12 28.5t12 28t28.5 11.5t28 -11.5t11.5 -28t-11.5 -28.5t-28 -12zM420.5 1219q-16.5 0 -28.5 12t-12 28.5t12 28t28.5 11.5t28 -11.5t11.5 -28t-11.5 -28.5t-28 -12zM423 1050q13 4 22 -5.5t4 -21.5q-18 -45 -73 -308
q-31 -145 -48.5 -223.5t-45.5 -180t-50 -145.5q-32 -64 -75.5 -105.5t-86.5 -47.5q-7 -1 -14 -1q-41 0 -71 34q-5 7 -4.5 15.5t6.5 14t15 5t14 -6.5q21 -23 48 -19q32 4 68 40t62 90q17 32 35 89t38.5 144t33 145t34.5 161q43 202 59 263q-61 -45 -110.5 -123.5
t-47.5 -164.5q0 -9 -6 -15t-14 -6q-5 -1 -10 1.5t-8 7.5t-4 11q-1 63 23 125.5t60.5 107.5t75.5 77t70 42z" />
    <glyph glyph-name="Eth" unicode="&#xd0;" horiz-adv-x="914" 
d="M750 953q97 -105 111.5 -270.5t-53.5 -370.5q-47 -111 -128 -184.5t-186 -101.5q-59 -15 -121 -15q-101 0 -193 40l-5 -24q-3 -16 -20 -16h-4q-9 2 -13.5 9t-3.5 16l8 35q-27 15 -45 30q-7 5 -8.5 13.5t4 15.5t14 8t15.5 -4q8 -7 28 -19l75 370h-154q-9 0 -15 6t-6 15
t6 15t15 6h162l99 493q-30 -12 -65.5 -37.5t-69.5 -59t-57.5 -78t-26.5 -88.5q-1 -9 -7.5 -15t-15.5 -5q-8 1 -14 7.5t-5 15.5q3 39 18.5 77.5t39 70t52.5 59.5t58.5 48t55.5 33.5t47 18.5l5 25q2 9 9 13.5t15 3.5q5 -1 8.5 -3.5t5.5 -6t3 -7.5t0 -8l-2 -8q101 15 199 -17.5
t165 -105.5zM768 327q65 193 52.5 347.5t-101.5 249.5q-63 68 -155 97t-187 11l-101 -505h237q9 0 15 -6.5t6 -15t-6 -14.5t-15 -6h-246l-78 -391q67 -32 143 -39.5t151 12.5q96 25 169.5 92t115.5 168z" />
    <glyph glyph-name="Ntilde" unicode="&#xd1;" horiz-adv-x="903" 
d="M348 1239q-4 2 -7.5 4.5t-5 6t-2 8t1.5 8.5q18 53 58 68q13 5 27.5 5.5t31 -3.5t30 -8.5t34 -14.5t32 -16.5l34.5 -19.5q39 -22 59.5 -32.5t49 -19t44.5 -2.5q21 8 33 43q3 8 11 12t16 1t12 -11t1 -16q-19 -53 -58 -68q-15 -5 -32 -5q-22 0 -51.5 10.5t-49.5 20.5t-56 31
q-39 22 -60 33t-49 19t-45 2q-21 -8 -33 -43q-3 -8 -10.5 -12t-15.5 -1zM932 1039q8 -2 12 -9.5t2 -15.5q-28 -100 -153 -390q-82 -191 -115 -278q46 -168 50 -206q4 -46 -19.5 -84.5t-58.5 -42.5h-5q-9 0 -17.5 3.5t-20 12t-20 29.5t-12.5 51q-7 64 59 240
q-41 143 -87.5 281t-98.5 252t-83 122q-4 0 -9 -8q-2 -4 -6 -6q-18 -59 -69 -299q-31 -151 -49.5 -233t-47.5 -187.5t-53 -151.5q-25 -51 -57 -79.5t-80 -41.5q-2 -1 -5 -1q-16 0 -20 15q-3 9 1.5 16.5t12.5 9.5q39 11 64.5 33.5t46.5 66.5q17 33 35.5 93t40 150.5t35 151
t36.5 167.5q45 216 63 280q-29 -18 -56 -44t-51.5 -60.5t-39 -79t-13.5 -92.5q0 -8 -6 -14.5t-14 -6.5q-9 -1 -15 5.5t-7 15.5q-1 54 15.5 105.5t42.5 88.5t58 67.5t61 48t53 25.5q4 2 10 1q15 8 33 4q32 -8 71 -69.5t77.5 -158.5t71.5 -196t64 -207q29 73 96 228
q124 288 151 384q2 6 6 9.5t9 5t11 -0.5zM686 136q-3 34 -32 144q-42 -121 -37 -166q3 -30 11.5 -45t17.5 -14q14 1 28.5 25.5t11.5 55.5z" />
    <glyph glyph-name="Ograve" unicode="&#xd2;" horiz-adv-x="943" 
d="M325 1394q-8 1 -13.5 7.5t-4.5 15.5q1 14 15 20q17 7 47 -4t55 -32q82 -66 62 -169q-1 -7 -6 -11q-8 -8 -19 -6q-8 2 -13 9t-3 16q13 65 -31 113q-18 20 -39.5 31.5t-34.5 13.5q-6 -5 -15 -4zM1011 896.5q2 -8.5 -2 -16t-13 -9.5q-104 -26 -215 -34q39 -86 45.5 -189
t-21.5 -213q-27 -102 -81 -187.5t-129 -143.5q-114 -89 -239 -89q-42 0 -83 11q-80 21 -142.5 79.5t-99.5 147.5q-36 87 -41 188t22 203q31 119 99 215q-16 2 -32 5q-8 2 -13 9.5t-3.5 16t9 13t15.5 2.5q26 -5 54 -7q69 81 155 125q5 2 11.5 5t22.5 8.5t30.5 8.5t33 2.5
t32.5 -6.5q74 -42 56 -91q-18 -46 -115.5 -73t-206.5 -22q-75 -96 -108 -222q-25 -95 -20.5 -189t38.5 -175q33 -79 88 -131.5t125.5 -71t144.5 0t142 70.5q46 36 83.5 83.5t66 105t44.5 120.5q27 107 19 207t-49 182h-8t-9.5 -0.5t-8.5 -0.5q-143 0 -186 41
q-26 27 -33 54.5t-2.5 42t14.5 26.5q18 24 48.5 34t52.5 -1h1l0.5 -0.5l0.5 -0.5q97 -48 157 -152q114 6 225 34q8 2 15.5 -2.5t9.5 -13zM552 905q30 -29 160 -28q-51 79 -127 116l-1 1v0q-7 3 -23.5 -2.5t-26.5 -18.5q-22 -28 18 -68zM315 986q-65 -33 -119 -90
q88 1 162.5 22.5t83.5 46.5q6 16 -34 39q-7 3 -18 3q-34 0 -75 -21z" />
    <glyph glyph-name="Oacute" unicode="&#xd3;" horiz-adv-x="954" 
d="M504 1221q-5 5 -6 11q-20 103 62 169q25 21 54.5 32t46.5 4q15 -6 16 -20q0 -5 -1 -9t-3.5 -7t-6 -5t-8.5 -2q-8 -1 -14 4q-14 -2 -35.5 -13.5t-39.5 -31.5q-43 -48 -30 -113q2 -9 -3 -16t-14 -9q-10 -2 -18 6zM1019 897q2 -9 -2 -16.5t-13 -9.5q-104 -26 -215 -34
q39 -86 45.5 -189t-21.5 -213q-27 -102 -81 -187.5t-129 -143.5q-114 -89 -239 -89q-42 0 -83 11q-80 21 -142.5 79.5t-99.5 147.5q-36 87 -41 188t22 203q31 119 99 215q-16 2 -32 5q-8 2 -13 9.5t-3.5 16t9 13t15.5 2.5q26 -5 54 -7q69 81 155 125q5 2 11.5 5t22.5 8.5
t30.5 8.5t33 2.5t32.5 -6.5q74 -42 56 -91q-18 -46 -115.5 -73t-206.5 -22q-75 -96 -108 -222q-25 -95 -20.5 -189t38.5 -175q33 -79 88 -131.5t125.5 -71t144.5 0t142 70.5q69 54 119 133.5t75 175.5q27 107 19 207t-49 182q-2 0 -11.5 -0.5t-14.5 -0.5q-143 0 -186 41
q-26 27 -33 54.5t-2.5 42t14.5 26.5q18 24 48.5 34t52.5 -1h1l0.5 -0.5l0.5 -0.5q97 -48 157 -152q114 6 225 34q4 1 8 0t7.5 -3t6 -5t3.5 -7zM560 905q30 -29 160 -28q-51 79 -127 116l-1 1v0q-7 3 -23.5 -2.5t-26.5 -18.5q-22 -28 18 -68zM323 986q-65 -33 -119 -90
q58 1 113.5 11t91 26t41.5 32t-34 39q-7 3 -18 3q-34 0 -75 -21z" />
    <glyph glyph-name="Ocircumflex" unicode="&#xd4;" horiz-adv-x="918" 
d="M358 1221q-4 5 -5 11q-20 103 61 169q45 36 84 39h2.5h2.5h1.5h2.5q39 -3 84 -39q81 -66 61 -169q-1 -6 -5 -11q-8 -8 -19 -6q-6 1 -10 5t-6 9t-1 11q13 65 -30 113q-27 30 -64 42l-4 -1q-5 -1 -10 2q-6 -3 -11 -2l-4 1q-37 -12 -64 -42q-43 -48 -30 -113q1 -9 -3.5 -16
t-13.5 -9q-11 -2 -19 6zM991 897q3 -9 -1.5 -16.5t-13.5 -9.5q-104 -26 -215 -34q39 -86 45.5 -189t-21.5 -213q-27 -102 -81 -187.5t-129 -143.5q-114 -89 -239 -89q-42 0 -83 11q-80 21 -142.5 79.5t-99.5 147.5q-36 87 -41 188t22 203q31 119 99 215q-16 2 -32 5
q-8 2 -13 9.5t-3.5 16t9 13t15.5 2.5q27 -5 54 -7q69 81 155 125q5 2 12 5t22.5 8.5t30 8.5t33 2.5t32.5 -6.5q74 -42 56 -91q-18 -46 -115.5 -73t-206.5 -22q-75 -96 -108 -222q-25 -95 -20.5 -189t38.5 -175q33 -79 88 -131.5t125.5 -71t144.5 0t142 70.5q46 36 83.5 83.5
t66 105t44.5 120.5q27 107 19 207t-49 182h-6h-7t-6.5 -0.5t-6.5 -0.5q-143 0 -186 41q-26 27 -33 54.5t-2.5 42t14.5 26.5q18 24 48.5 34t52.5 -1h1h1v-1q97 -48 157 -152q114 6 225 34q6 1 11 -0.5t9 -5.5t5 -9zM532 905q30 -29 160 -28q-51 79 -127 116l-1 1v0
q-7 3 -23.5 -2.5t-26.5 -18.5q-22 -28 18 -68zM295 986q-65 -33 -119 -90q88 1 162.5 22.5t83.5 46.5q6 16 -34 39q-7 3 -17 3q-35 0 -76 -21z" />
    <glyph glyph-name="Otilde" unicode="&#xd5;" horiz-adv-x="934" 
d="M276 1279q-8 3 -12 11t-1 16q18 53 58 68q13 5 27.5 5.5t31.5 -3.5t30.5 -8.5t33.5 -14.5t32 -16.5t34 -19.5q39 -22 60 -32.5t49 -19t45 -2.5q21 8 33 43q3 8 10.5 12t15.5 1t12 -11t1 -16q-18 -53 -58 -68q-14 -5 -32 -5q-22 0 -51.5 10.5t-49 20.5t-56.5 31
q-38 22 -59 33t-49.5 19t-44.5 2q-22 -8 -34 -43q-2 -8 -10 -12t-16 -1zM995 897q2 -6 0.5 -11.5t-5.5 -9t-10 -5.5q-104 -26 -215 -34q39 -86 45.5 -189t-21.5 -213q-27 -102 -81 -187.5t-129 -143.5q-114 -89 -239 -89q-42 0 -83 11q-80 21 -142.5 79.5t-99.5 147.5
q-36 87 -41 188t22 203q31 119 99 215q-16 2 -32 5q-8 2 -13 9.5t-3.5 16t9 13t15.5 2.5q26 -5 54 -7q69 81 155 125q5 2 11.5 5t22.5 8.5t30.5 8.5t33 2.5t32.5 -6.5q74 -42 56 -91q-18 -46 -115.5 -73t-206.5 -22q-75 -96 -108 -222q-25 -95 -20.5 -189t38.5 -175
q33 -79 88 -131.5t125.5 -71t144.5 0t142 70.5q46 36 83.5 83.5t66 105t44.5 120.5q27 107 19 207t-49 182h-8t-9.5 -0.5t-8.5 -0.5q-143 0 -186 41q-26 27 -33 54.5t-2.5 42t13.5 26.5q19 24 49.5 34t52.5 -1h1h1v-1q97 -48 157 -152q114 6 225 34q8 2 15.5 -2.5t9.5 -12.5
zM536 905q30 -29 160 -28q-51 79 -127 116l-1 1v0q-5 1 -13 0.5t-19 -6.5t-18 -15q-22 -28 18 -68zM299 986q-65 -33 -119 -90q58 1 113.5 11t91 26t41.5 32t-34 39q-7 3 -18 3q-34 0 -75 -21z" />
    <glyph glyph-name="Odieresis" unicode="&#xd6;" horiz-adv-x="915" 
d="M362 1219q-17 0 -28.5 12t-11.5 28.5t11.5 28t28.5 11.5t28.5 -11.5t11.5 -28t-11.5 -28.5t-28.5 -12zM543 1219q-17 0 -28.5 12t-11.5 28.5t11.5 28t28.5 11.5t28.5 -11.5t11.5 -28t-11.5 -28.5t-28.5 -12zM984.5 896.5q2.5 -8.5 -2 -16t-13.5 -9.5q-104 -26 -215 -34
q39 -86 45.5 -189t-21.5 -213q-27 -102 -81 -187.5t-129 -143.5q-114 -89 -239 -89q-42 0 -83 11q-80 21 -142.5 79.5t-99.5 147.5q-36 87 -41 188t22 203q31 119 99 215q-16 2 -32 5q-8 2 -13 9.5t-3.5 16t9 13t15.5 2.5q27 -5 54 -7q69 81 155 125q5 2 12 5t22.5 8.5
t30 8.5t33 2.5t32.5 -6.5q74 -42 56 -91q-18 -46 -115.5 -73t-206.5 -22q-75 -96 -108 -222q-25 -95 -20.5 -189t38.5 -175q33 -79 88 -131.5t125.5 -71t144.5 0t142 70.5q46 36 83.5 83.5t66 105t44.5 120.5q27 107 19 207t-49 182h-6h-7t-6.5 -0.5t-6.5 -0.5
q-143 0 -186 41q-26 27 -33 54.5t-2.5 42t14.5 26.5q18 24 48.5 34t52.5 -1h1l0.5 -0.5l0.5 -0.5q97 -48 157 -152q115 6 225 34q8 2 15.5 -2.5t10 -13zM525 905q30 -29 160 -28q-51 79 -127 116l-1 1v0q-7 3 -23.5 -2.5t-26.5 -18.5q-22 -28 18 -68zM288 986
q-65 -33 -119 -90q88 1 162.5 22.5t83.5 46.5q6 16 -34 39q-7 3 -18 3q-34 0 -75 -21z" />
    <glyph glyph-name="multiply" unicode="&#xd7;" horiz-adv-x="591" 
d="M325 387l209 -210q7 -6 7 -15t-6.5 -15t-15 -6t-14.5 6l-210 210l-209 -210q-6 -6 -15 -6t-15 6.5t-6 15t6 14.5l210 210l-210 209q-6 6 -6 15t6 15t15 6t15 -6l209 -210l210 210q6 6 14.5 6t15 -6t6.5 -15t-7 -15z" />
    <glyph glyph-name="Oslash" unicode="&#xd8;" horiz-adv-x="970" 
d="M1022 896.5q2 -8.5 -2 -16t-13 -9.5q-104 -26 -215 -34q39 -86 45.5 -189t-21.5 -213q-27 -102 -81 -187.5t-129 -143.5q-114 -89 -239 -89q-42 0 -83 11q-104 27 -176 116l-93 -103q-6 -7 -15 -7q-8 0 -14 5q-6 6 -6.5 14.5t4.5 14.5l98 110q-24 37 -40 77
q-36 87 -41 188t22 203q31 119 99 215q-16 2 -32 5q-8 2 -13 9t-3.5 16t9 13.5t15.5 2.5q26 -5 54 -7q69 81 155 125q5 2 11.5 5t22.5 8.5t30.5 8.5t33 2.5t32.5 -6.5q74 -42 55 -91q-17 -46 -114.5 -73t-206.5 -22q-75 -96 -108 -222q-25 -95 -20.5 -189t37.5 -175
q13 -29 32 -60l558 627q-103 7 -137 39q-27 27 -34 54.5t-2 42t14 26.5q19 24 49.5 34t52.5 -1h1l1 -1v0q75 -37 129 -111l87 97q6 7 14.5 7.5t15 -5.5t7 -14.5t-5.5 -15.5l-94 -105q1 -1 2 -2.5t1 -2.5q115 6 226 34q8 2 15.5 -2.5t9.5 -13zM326 986q-65 -33 -119 -90
q88 1 162.5 22.5t83.5 46.5q6 16 -35 39q-6 3 -17 3q-34 0 -75 -21zM562 905q28 -27 145 -28l8 10q-50 72 -119 106l-1 1v0q-7 3 -23.5 -2.5t-26.5 -18.5q-22 -28 17 -68zM775 446q27 107 19 207t-49 182h-10h-10l-589 -661q65 -83 159 -107q70 -19 144 -0.5t142 70.5
q45 36 83 83.5t66 105t45 120.5z" />
    <glyph glyph-name="Ugrave" unicode="&#xd9;" horiz-adv-x="851" 
d="M337 1366q-8 1 -13.5 7.5t-4.5 15.5q1 14 15 20q17 7 47 -4t55 -32q82 -66 62 -169q-2 -7 -6 -11q-8 -8 -19 -6q-5 1 -9.5 5t-6 9t-0.5 11q12 65 -31 113q-18 20 -39.5 31.5t-34.5 13.5q-7 -5 -15 -4zM868 110q6 1 11 -1t9 -6t5 -9.5t-1 -11t-6 -9t-9 -4.5q-20 -4 -38 -4
q-53 0 -86 34q-70 73 -40 315q-39 -109 -79 -187.5t-74.5 -123t-73.5 -70t-69.5 -32.5t-69.5 -7q-17 0 -54 2q-28 2 -42 2q-82 2 -141 66q-46 51 -67.5 127t-16.5 145q25 241 93 488q-31 11 -96 34l-52 19q-8 3 -12 11t-1 16t11 12t16 1l53 -19q64 -24 93 -34q52 176 92 198
q34 18 61 -4.5t34 -78t-8 -100.5q-22 -73 -75 -79q-26 -3 -76 12q-67 -245 -92 -480q-4 -60 14.5 -128t59.5 -112q46 -51 111 -53q13 0 43 -2q29 -6 60.5 -1.5t61.5 10.5t62.5 35t65 72t68 121t71.5 182t75.5 255.5t79.5 341.5q1 0 1.5 1t0.5 2q1 3 1 4q1 0 3 2q1 2 3 3
q0 1 1 1t1 1q3 1 5 2h2h1h1h3h1h1l2 -1h1q3 -1 4 -1.5t3 -2.5t2.5 -3t1.5 -4q2 -2 2 -3v-5l0.5 -1t0.5 -2q-7 -59 -51 -252q-15 -62 -22.5 -96t-21 -97t-19.5 -102.5t-14 -94.5t-8.5 -92t1.5 -75.5t11.5 -65.5t25.5 -43q29 -30 85 -18zM242 1025q-25 -15 -71 -173
q43 -13 59 -11q26 3 40 50q11 41 7 81.5t-19 52.5q-6 5 -16 0z" />
    <glyph glyph-name="Uacute" unicode="&#xda;" horiz-adv-x="867" 
d="M557 1193q-4 5 -6 11q-20 103 62 169q25 21 55 32t47 4q14 -6 15 -20q1 -9 -4.5 -15.5t-13.5 -7.5t-15 4q-8 -1 -19 -5.5t-27 -15t-28 -24.5q-43 -48 -31 -113q2 -9 -3 -16t-13 -9q-11 -2 -19 6zM876 110q9 2 16 -3t9 -13.5t-3 -15.5t-13 -9q-20 -4 -38 -4q-53 0 -86 34
q-70 73 -40 315q-39 -109 -79 -187.5t-74.5 -123t-73.5 -70t-69.5 -32.5t-69.5 -7q-17 0 -54 2q-28 2 -42 2q-82 2 -141 66q-46 51 -67.5 127t-16.5 145q25 241 93 488q-31 11 -96 34l-52 19q-8 3 -12 11t-1 16t11 12t16 1l53 -19q64 -24 93 -34q52 176 92 198
q34 18 61 -4.5t34 -78t-8 -100.5q-22 -73 -75 -79q-26 -3 -76 12q-67 -245 -92 -480q-4 -60 14.5 -128t59.5 -112q46 -51 111 -53q13 0 43 -2q29 -6 60.5 -1.5t61.5 10.5t62.5 35t65 72t68 121t71.5 182t75.5 255.5t79.5 341.5q1 0 1.5 1t0.5 2q1 3 1 4q1 0 3 2q1 2 3 3
q0 1 1 1t1 1q3 1 5 2h2h1h1h3h1h1t2 -0.5l1 -0.5q3 -1 4 -1.5t3 -2.5t2.5 -3t1.5 -4q2 -2 2 -3v-5l0.5 -1t0.5 -2q-7 -59 -51 -252q-15 -62 -22.5 -96t-21 -97t-19.5 -102.5t-14 -94.5t-8.5 -92t1.5 -75.5t11.5 -65.5t25.5 -43q29 -30 85 -18zM250 1025q-25 -15 -71 -173
q43 -13 59 -11q26 3 40 50q11 41 6.5 81.5t-18.5 52.5q-6 5 -16 0z" />
    <glyph glyph-name="Ucircumflex" unicode="&#xdb;" horiz-adv-x="852" 
d="M388 1249q-5 5 -6 11q-20 103 62 170q44 36 84 38h2h2h2h2q40 -2 84 -38q82 -67 62 -170q-1 -6 -6 -11q-8 -7 -19 -5q-8 1 -13 8.5t-3 15.5q13 66 -31 113q-27 31 -63 42q-4 -1 -5 -1q-5 0 -10 2q-6 -2 -11 -2l-4 1q-36 -11 -64 -42q-43 -47 -30 -113q1 -3 0.5 -6.5
t-2 -6.5t-3.5 -5t-5 -4t-7 -2q-10 -2 -18 5zM868 138q6 1 11 -0.5t9 -6t5 -9.5q2 -9 -3 -16t-13 -9q-20 -4 -38 -4q-53 0 -86 34q-70 73 -40 315q-39 -109 -79 -187.5t-74.5 -123t-73.5 -69.5t-69.5 -32.5t-69.5 -7.5q-17 0 -54 2q-28 2 -42 2q-82 2 -141 66
q-46 51 -67.5 127.5t-16.5 144.5q25 241 93 489q-31 10 -96 34l-52 19q-8 3 -12 10.5t-1 16t11 12t16 0.5l53 -19q64 -24 93 -33q52 176 92 197q34 18 61 -4t34 -78t-8 -101q-22 -73 -75 -79q-26 -3 -76 12q-67 -244 -92 -479q-4 -61 14.5 -128.5t59.5 -112.5
q46 -51 111 -52q13 -1 43 -2q29 -7 60.5 -2t61.5 10.5t62.5 35t65 72t68 120.5t71.5 182t75.5 255.5t79.5 341.5q1 1 1.5 2l0.5 1q1 3 1 4q1 0 3 2q1 3 3 4h1l1 1q3 1 5 2h2h1l1.5 0.5t2.5 0.5l0.5 -0.5l0.5 -0.5h1t2 -0.5l1 -0.5q3 -1 4 -2q1 0 3 -2t2.5 -3t2 -3.5
t1.5 -3.5v-4q0 -1 0.5 -2l0.5 -1q-7 -60 -51 -253q-15 -62 -22.5 -96t-21 -97t-19.5 -102.5t-14 -94t-8.5 -91.5t1.5 -76t11.5 -65.5t25.5 -43.5q29 -29 85 -18zM242 1053q-25 -15 -71 -173q43 -12 59 -10q26 2 40 49q11 41 7 82t-19 53q-6 4 -16 -1z" />
    <glyph glyph-name="Udieresis" unicode="&#xdc;" horiz-adv-x="864" 
d="M483.5 1309q-16.5 0 -28.5 11.5t-12 28t12 28.5t28.5 12t28 -12t11.5 -28.5t-11.5 -28t-28 -11.5zM664.5 1309q-16.5 0 -28.5 11.5t-12 28t12 28.5t28.5 12t28 -12t11.5 -28.5t-11.5 -28t-28 -11.5zM868 138q9 2 16 -3t9 -13q1 -6 -1 -11t-6 -9t-9 -5q-20 -4 -38 -4
q-53 0 -86 34q-70 73 -40 315q-39 -109 -79 -187.5t-74.5 -123t-73.5 -69.5t-69.5 -32.5t-69.5 -7.5q-17 0 -54 2q-28 2 -42 2q-82 2 -141 66q-46 51 -67.5 127.5t-16.5 144.5q25 241 93 489q-31 10 -96 34l-52 19q-8 3 -12 10.5t-1 16t11 12t16 0.5l53 -19q64 -24 93 -33
q52 176 92 197q34 18 61 -4t34 -78t-8 -101q-22 -73 -75 -79q-26 -3 -76 12q-67 -244 -92 -479q-2 -39 4 -81t24 -86t46 -74q46 -51 111 -52q13 -1 43 -2q29 -7 60.5 -2t61.5 10.5t62.5 35t65 72t68 120.5t71.5 182t75.5 255.5t79.5 341.5q1 1 1.5 2l0.5 1q1 3 1 4q1 0 3 2
q1 3 3 4h1l1 1q3 1 5 2h2h1l1.5 0.5t2.5 0.5l1 -1h1t2 -0.5l1 -0.5q3 -1 4 -2q1 0 3 -2t2.5 -3t2 -3.5t1.5 -3.5v-4q0 -1 0.5 -2l0.5 -1q-7 -60 -51 -253q-30 -127 -44.5 -200.5t-31.5 -184t-9 -180t38 -101.5q29 -29 85 -18zM242 1053q-25 -15 -71 -173q43 -12 59 -11
q26 3 40 50q11 41 7 82t-19 53q-6 4 -16 -1z" />
    <glyph glyph-name="Yacute" unicode="&#xdd;" horiz-adv-x="816" 
d="M831 1052.5q8 -3.5 11.5 -11.5t0.5 -16q-19 -46 -76 -318q-19 -89 -29 -136.5t-28.5 -127t-31.5 -127.5t-29.5 -98t-30.5 -78q-23 -56 -73 -90.5t-117 -40.5q-12 -1 -24 -1q-78 0 -148 39.5t-112 107.5q-9 14 -21 28t-32 31t-46.5 27t-55.5 9q-9 0 -15 6t-6 14
q0 6 2.5 10.5t7.5 7.5t11 3q25 0 48.5 -5.5t42.5 -16t35 -22t28.5 -25.5t21 -24t14.5 -21q40 -63 106.5 -97.5t139.5 -28.5q55 4 95.5 32t59.5 75q43 85 113 404q5 56 -32.5 127.5t-97.5 133.5t-124 99q-110 64 -167 24q-7 -5 -15.5 -3.5t-13.5 8.5t-3.5 15.5t8.5 13.5
q38 27 93 21.5t119 -43.5q80 -46 152 -127t104 -163q3 15 10 48q58 275 78 325q3 8 11 11.5t16 0zM519 1242q-4 5 -6 11q-20 103 62 169q12 10 26 18t28 13.5t26.5 7t21.5 -1.5q14 -7 16 -21q0 -9 -5.5 -15.5t-13.5 -7.5t-15 4q-13 -2 -34.5 -13.5t-39.5 -31.5
q-43 -47 -31 -113q1 -3 0.5 -5.5l-1 -5t-2 -5t-3.5 -4t-4.5 -3t-5.5 -1.5q-11 -3 -19 5z" />
    <glyph glyph-name="Thorn" unicode="&#xde;" horiz-adv-x="760" 
d="M487.5 1041.5q78.5 -19.5 140.5 -77.5t96 -140t43 -182.5t-19 -205.5q-16 -68 -45 -129t-68 -112.5t-87 -90.5q-113 -93 -238 -93q-38 0 -75 9q-123 31 -200 151l-21 -152q-1 -8 -7 -13t-14 -5h-3q-9 1 -14 8t-4 16l29 207v0.5t-1 0.5q50 377 84 600l34 249q2 9 8.5 14
t15 4t14 -8t4.5 -15l-21 -152q21 22 35 33q73 60 154 81.5t159.5 2zM708 446q25 96 17.5 189t-37.5 168t-85.5 128t-125.5 70q-32 8 -64 8q-111 0 -213 -83q-38 -32 -71 -72q-5 -40 -15 -107l-70 -509q33 -69 84.5 -115t116.5 -62q69 -17 140.5 2.5t136.5 72.5
q66 55 114 135t72 175z" />
    <glyph glyph-name="germandbls" unicode="&#xdf;" horiz-adv-x="564" 
d="M420 327q15 -10 23 -16t22 -17.5t21.5 -23t16 -27.5t12.5 -35.5t4 -43.5q0 -70 -59.5 -119.5t-143.5 -49.5q-60 0 -96.5 26.5t-54.5 84.5q-2 8 2 15.5t12 10.5t16 -1t10 -13q14 -44 39 -63t72 -19q71 0 116 39.5t45 88.5q0 27 -5.5 47t-19.5 35.5t-24 23.5t-31 22
q-18 12 -27.5 19.5t-23 21t-19.5 30.5t-6 38q0 28 8.5 49t26 34t30 19.5t35.5 14.5q23 9 34.5 14.5t27 17.5t22.5 30t9 45q2 33 -8 61t-31 48t-49 29q-42 12 -87 -6t-77 -75q-31 -48 -58 -113.5t-50.5 -149.5t-36.5 -136.5t-34 -141.5q-20 -90 -29 -123q-2 -8 -9.5 -12.5
t-16 -2.5t-12.5 9.5t-2 15.5q9 35 29 122q16 72 25.5 112.5t29.5 114t37 123t41.5 106.5t49.5 98q36 63 93.5 90t118.5 9q57 -17 89.5 -67t28.5 -114q-2 -29 -11 -52t-19 -36t-28.5 -25t-30 -17t-31.5 -13q-22 -8 -32.5 -13t-21.5 -14t-15 -21t-4 -30q0 -24 12.5 -38.5
t44.5 -35.5z" />
    <glyph glyph-name="agrave" unicode="&#xe0;" horiz-adv-x="546" 
d="M552 315.5q7 -5.5 8.5 -14t-3.5 -15.5q-3 -3 -36 -49.5t-72 -101t-47 -65.5q-50 -60 -84 -60q-9 0 -16 3q-36 16 -35 100q-89 -94 -164 -94q-29 0 -52 15q-47 29 -53 103t33 158q2 5 8 9q25 42 62 70.5t70 39t69.5 13.5t56 1t35.5 -6l5 21q3 9 10 13.5t15.5 2.5t13 -9.5
t2.5 -15.5l-65 -271q-5 -37 -3.5 -71.5t9.5 -40.5q1 1 2 1t2.5 1t4 2.5t5.5 3.5t7 5.5t8 7.5t9.5 10t11.5 13q5 8 30 43t50.5 70.5t49.5 69l24 33.5q5 7 13.5 8.5t15.5 -4zM73.5 69q29.5 -18 81.5 7t117 106l4 2l47 198q-15 3 -32 5t-50 -1t-62 -13t-61 -37.5t-53 -69.5
q0 -1 -1 -1.5t-1 -1.5q-28 -71 -23.5 -123.5t34 -70.5zM163 779q-8 1 -13.5 8t-4.5 15q1 15 15 21q17 7 47 -4.5t55 -31.5q19 -16 34 -35.5t25.5 -56t2.5 -78.5q-2 -6 -6 -10q-8 -8 -19 -6q-8 2 -13 9t-3 15q12 66 -31 114q-18 20 -39.5 31.5t-34.5 13.5q-7 -5 -15 -5z" />
    <glyph glyph-name="aacute" unicode="&#xe1;" horiz-adv-x="534" 
d="M544 315.5q7 -5.5 8.5 -14t-3.5 -15.5q-116 -158 -155 -216q-50 -60 -84 -60q-8 0 -16 3q-36 17 -35 100q-89 -94 -163 -94q-30 0 -52 15q-48 29 -54 103t33 158q2 5 8 9q25 42 62 70.5t70 39t70 13.5t56 1t35 -6l6 21q2 9 9 13.5t15.5 2.5t13 -9.5t2.5 -15.5l-65 -271
q-5 -37 -3.5 -71.5t9.5 -40.5l0.5 0.5t1.5 0.5t3 1t4 2.5t5 3.5t7 5.5t8 7.5t9.5 10t11.5 13q6 8 30.5 43t50 70.5t49.5 69l24 33.5q5 7 13.5 8.5t15.5 -4zM65.5 69q29.5 -18 81.5 7t117 106l4 2l47 198q-15 3 -32 5t-50 -1t-62 -13t-61 -37.5t-53 -69.5q0 -1 -1 -1.5
t-1 -1.5q-28 -71 -23.5 -123.5t34 -70.5zM122 607q-5 4 -6 11q-20 102 62 169q25 20 55 31.5t47 4.5q14 -6 15 -21q1 -5 -1.5 -10t-7 -8.5t-9.5 -4.5q-8 0 -15 5q-13 -2 -34.5 -13.5t-39.5 -31.5q-44 -48 -31 -114q2 -8 -3 -15t-13 -9q-11 -2 -19 6z" />
    <glyph glyph-name="acircumflex" unicode="&#xe2;" horiz-adv-x="542" 
d="M552 315.5q7 -5.5 8.5 -14t-3.5 -15.5q-116 -158 -155 -216q-50 -60 -84 -60q-9 0 -16 3q-36 17 -35 100q-89 -94 -164 -94q-29 0 -52 15q-47 29 -53 103t33 158q2 5 8 9q25 42 62 70.5t70 39t69.5 13.5t56 1t35.5 -6l5 21q2 9 9.5 13.5t16 2.5t13 -9.5t2.5 -15.5
l-65 -271q-5 -37 -3.5 -71.5t9.5 -40.5l0.5 0.5t1.5 0.5t2.5 1t4 2.5t5.5 3.5t7 5.5t8 7.5t9.5 10t11.5 13q5 8 30 43t50.5 70.5t49.5 69l24 33.5q5 7 13.5 8.5t15.5 -4zM73.5 69q29.5 -18 81.5 7t117 106l4 2l47 198q-15 3 -32 5t-50 -0.5t-62 -13t-61 -38t-53 -69.5
q0 -1 -1 -1.5t-1 -1.5q-28 -71 -23.5 -123.5t34 -70.5zM117 607q-4 4 -5 10q-20 103 61 170q45 36 84 38h2.5h2h2.5h2q39 -2 84 -38q81 -67 62 -170q-2 -6 -6 -10q-8 -8 -19 -6q-8 2 -13 9t-3 15q12 66 -31 114q-27 30 -64 42q-3 -1 -4 -2q-5 0 -10 3q-6 -3 -11 -3q0 1 -4 2
q-36 -12 -64 -42q-43 -48 -30 -114q1 -8 -3.5 -15t-13.5 -9q-11 -2 -19 6z" />
    <glyph glyph-name="atilde" unicode="&#xe3;" horiz-adv-x="526" 
d="M512 311q5 7 13.5 8.5t15.5 -4t8.5 -14t-3.5 -15.5q-2 -3 -35.5 -49.5t-72.5 -101t-47 -65.5q-50 -60 -84 -60q-8 0 -16 3q-36 16 -35 100q-89 -94 -163 -94q-30 0 -52 15q-48 29 -54 103t33 158q2 5 8 9q25 42 62 70.5t70 39t70 13.5t56 1t35 -6l5 21q3 9 10 13.5
t15.5 2.5t13 -9.5t2.5 -15.5l-65 -271q-5 -37 -3.5 -71.5t9.5 -40.5q1 1 2 1t2.5 1t4 2.5t5.5 3.5t7 5.5t8 7.5t9.5 10t11.5 13q7 11 154 216zM62.5 69q29.5 -18 81.5 7t117 106l4 2l47 198q-15 3 -32 5t-50 -1t-62 -13t-61 -37.5t-53 -69.5q0 -1 -1 -1.5t-1 -1.5
q-28 -71 -23.5 -123.5t34 -70.5zM574 704q4 -1 7 -4t5 -6.5t2 -7.5t-1 -8q-19 -53 -58 -68q-15 -6 -32 -6q-22 0 -51.5 10.5t-49.5 21t-56 31.5q-17 9 -25.5 14t-24 13t-24.5 12t-22 9t-22 6.5t-18.5 1.5t-17.5 -3q-21 -8 -33 -42q-3 -8 -10.5 -12t-16 -1t-12 10.5
t-0.5 15.5q18 54 58 69q13 4 27.5 5t31 -3t30 -8.5t34 -15t32.5 -16.5t34 -19q39 -22 59.5 -33t49 -19t44.5 -2q21 8 33 42q3 9 11 12.5t16 0.5z" />
    <glyph glyph-name="adieresis" unicode="&#xe4;" horiz-adv-x="526" 
d="M532 315.5q7 -5.5 8.5 -14t-3.5 -15.5q-116 -158 -155 -216q-50 -60 -84 -60q-8 0 -16 3q-36 17 -35 100q-89 -94 -163 -94q-30 0 -53 15q-47 29 -53 103t33 158q2 5 8 9q25 42 62 70.5t70 39t70 13.5t56 1t35 -6l5 21q3 9 10 13.5t15.5 2.5t13 -9.5t2.5 -15.5l-65 -271
q-5 -37 -3.5 -71.5t9.5 -40.5q1 1 2 1t2.5 1t4 2.5t5.5 3.5t7 5.5t8 7.5t9.5 10t11.5 13q4 5 16.5 23.5t29 41.5t35.5 49t34.5 47.5t26.5 37.5t12 17q5 7 13.5 8.5t15.5 -4zM53.5 69q29.5 -18 81.5 7t117 106l4 2l47 198q-15 3 -32 5t-50 -1t-62 -13t-61 -37.5t-53 -69.5
q0 -1 -1 -1.5t-1 -1.5q-28 -71 -23.5 -123.5t34 -70.5zM235.5 605q-16.5 0 -28.5 11.5t-12 28t12 28.5t28.5 12t28 -12t11.5 -28.5t-11.5 -28t-28 -11.5zM416.5 605q-16.5 0 -28.5 11.5t-12 28t12 28.5t28.5 12t28 -12t11.5 -28.5t-11.5 -28t-28 -11.5z" />
    <glyph glyph-name="aring" unicode="&#xe5;" horiz-adv-x="538" 
d="M544 315.5q7 -5.5 8.5 -14t-3.5 -15.5q-3 -3 -36 -49.5t-72 -101t-47 -65.5q-50 -60 -84 -60q-8 0 -16 3q-36 16 -35 100q-89 -94 -163 -94q-30 0 -52 15q-48 29 -54 103t33 158q2 5 8 9q25 42 62 70.5t70 39t69.5 13.5t56 1t35.5 -6l5 21q2 9 9.5 13.5t16 2.5t13 -9.5
t2.5 -15.5l-65 -271q-5 -37 -3.5 -71.5t9.5 -40.5l0.5 0.5t1.5 0.5t2.5 1t4 2.5t5.5 3.5t7 5.5t8 7.5t9.5 10t11.5 13q5 8 30 43t50.5 70.5t49.5 69l24 33.5q5 7 13.5 8.5t15.5 -4zM65.5 69q29.5 -18 81.5 7t117 106l4 2l47 198q-15 3 -32 5t-50 -0.5t-62 -13t-61 -38
t-53 -69.5q0 -1 -1 -2q-1 0 -1 -1q-28 -71 -23.5 -123.5t34 -70.5zM279 586q-34 8 -50.5 44.5t-6 79t42 66.5t65.5 16t50.5 -44.5t5.5 -78.5q-4 -19 -13.5 -34.5t-21.5 -26.5t-26.5 -17.5t-29.5 -6.5q-8 0 -16 2zM263 699q-7 -25 1 -46.5t25 -25.5q8 -2 17 1t16.5 10
t14 17.5t9.5 23.5q6 25 -1.5 46.5t-24.5 25.5q-4 1 -7 1q-16 0 -30.5 -15t-19.5 -38z" />
    <glyph glyph-name="ae" unicode="&#xe6;" horiz-adv-x="606" 
d="M614 324.5q8 -3.5 11.5 -11.5t0.5 -16q-19 -47 -65.5 -110.5t-98.5 -109.5l-0.5 -0.5l-0.5 -0.5l-0.5 -0.5t-1.5 -0.5q-70 -62 -120 -62h-7q-52 5 -67 72q-1 5 -3 22q-93 -99 -169 -99q-30 0 -53 14q-47 30 -53 104t33 157q2 6 8 9q25 43 62 71t70 39t69.5 13.5t56 0.5
t35.5 -5l5 21q2 6 5.5 10t9 5.5t11.5 -0.5q5 -1 9 -5q18 15 39.5 21.5t42.5 -1.5q35 -18 16 -75q-6 -25 -153 -221l-3 -12q0 -23 7.5 -49.5t24.5 -34.5q31 -16 98 37q15 13 30.5 29t30.5 33.5t29 36t26 37t22 36.5t16 34q3 8 11 11.5t16 0zM421 426q-7 0 -19 -6.5t-18 -14.5
q-15 -19 -34 -56l-20 -80q84 113 89 130q4 11 4 26q-1 1 -2 1zM63 58q29 -18 80 6.5t115 101.5q2 100 53 199l1 5q-15 4 -32 5.5t-50 -1t-62 -13t-61 -38t-53 -68.5q0 -1 -1 -2l-1 -1q-28 -71 -23.5 -123.5t34.5 -70.5z" />
    <glyph glyph-name="ccedilla" unicode="&#xe7;" horiz-adv-x="468" 
d="M156 -3q-1 -4 -1 -5l-18 -56q104 3 143 -41q25 -28 14 -71q-10 -40 -46 -60q-34 -20 -90 -20q-53 0 -104 14q-8 2 -12.5 9.5t-2 16t10 12.5t16.5 2q19 -5 45 -9t61 -2.5t55.5 13.5t26.5 35q5 21 -6 33q-15 17 -57 22.5t-81 1.5q-11 -1 -18 8q-7 8 -4 19l24 75
q-58 3 -86 38q-33 40 -22 115q2 18 14 54q12 37 32.5 65.5t44 45.5t51 28.5t50.5 16.5t44.5 6.5t31 1.5h12.5q8 -1 14 -7.5t5 -15t-7.5 -14.5t-15.5 -5q-4 0 -12 0.5t-27 -1t-37 -5.5t-41.5 -13.5t-42 -23.5t-36 -38t-26.5 -54q-11 -33 -13 -47q-8 -57 13 -82q17 -21 56 -24
q120 -8 352 226q6 6 15 6t15 -6t6 -14.5t-6 -15.5q-209 -210 -340 -234z" />
    <glyph glyph-name="egrave" unicode="&#xe8;" horiz-adv-x="340" 
d="M348 319.5q8 -3.5 11 -11.5t0 -16q-20 -51 -68 -116t-110.5 -116.5t-108.5 -51.5h-6q-53 5 -67 72q-6 30 -7.5 61t1.5 57.5t10 53.5t14.5 48t17.5 42t17.5 34.5t16 26t11 16.5t4.5 6q9 12 25 22t34 13.5t33 -3.5q35 -18 17 -75q-6 -26 -160 -230q0 -32 7 -63
q8 -37 29 -39q32 -2 84 40.5t99.5 104t67.5 113.5q4 8 12 11.5t16 0zM117 400q-6 -8 -16 -23t-29.5 -58t-29.5 -85q104 140 111 160q3 11 3 26h-1q-7 0 -19 -6t-19 -14zM90 724q-9 1 -14.5 7.5t-4.5 15.5q1 15 16 21q12 4 29.5 0t36.5 -14t35 -23q82 -66 62 -169
q-1 -6 -6 -11q-8 -7 -19 -5q-8 1 -13 8.5t-3 15.5q13 66 -30 113q-19 20 -40.5 31.5t-34.5 13.5q-6 -5 -14 -4z" />
    <glyph glyph-name="eacute" unicode="&#xe9;" horiz-adv-x="336" 
d="M352 319q5 -2 8.5 -6.5t4 -9.5t-1.5 -11q-15 -37 -47.5 -85.5t-73 -93t-86 -75t-80.5 -30.5h-6q-53 5 -67 72q-18 83 6.5 173t44.5 122t34 50q15 20 43 31t49 1q35 -18 17 -75q-6 -26 -160 -230q0 -32 7 -63q8 -37 29 -39q24 -2 61 23.5t73.5 64t69 85t47.5 85.5
q4 8 12 11.5t16 -0.5zM121 400q-6 -8 -16 -23t-29.5 -58t-29.5 -85q104 140 111 160q6 20 3 26h-1q-7 0 -19 -6t-19 -14zM114 551q-4 5 -6 11q-20 103 62 169q25 21 55 32.5t47 4.5q14 -6 16 -21q0 -9 -5.5 -15.5t-13.5 -7.5t-15 4q-13 -2 -34.5 -13.5t-39.5 -31.5
q-43 -47 -31 -113q2 -8 -3 -15.5t-13 -8.5q-11 -3 -19 5z" />
    <glyph glyph-name="ecircumflex" unicode="&#xea;" horiz-adv-x="328" 
d="M344 319.5q8 -3.5 11.5 -11.5t0.5 -16q-21 -51 -69 -116t-110 -116.5t-108 -51.5h-7q-52 5 -67 72q-17 83 7.5 173t44 122t34.5 50q14 20 42.5 31t49.5 1q35 -18 16 -75q-6 -26 -160 -230q1 -32 7 -63q8 -37 30 -39q24 -2 61 23.5t73.5 64.5t69 85t47.5 85q3 8 11 11.5
t16 0zM114 400q-5 -7 -15.5 -22.5t-30.5 -58.5t-30 -85q104 140 111 160q4 11 4 26h-2q-7 0 -19 -6t-18 -14zM7 546q-11 -3 -19 5q-4 5 -5 11q-20 103 61 169q45 37 84 39h2.5h2.5h2h2q39 -2 84 -39q81 -66 61 -169q-1 -6 -5 -11q-8 -7 -19 -5q-8 1 -13 8.5t-4 15.5
q13 66 -30 113q-27 31 -64 42l-4 -1q-5 0 -10 2q-6 -2 -11 -2l-4 1q-36 -11 -64 -42q-43 -47 -30 -113q1 -8 -3.5 -15.5t-13.5 -8.5z" />
    <glyph glyph-name="edieresis" unicode="&#xeb;" horiz-adv-x="340" 
d="M344 319.5q8 -3.5 11 -11.5t0 -16q-20 -51 -68 -116t-110.5 -116.5t-108.5 -51.5h-6q-53 5 -67 72q-18 83 6.5 173t44.5 122t34 50q15 20 43 31t49 1q35 -18 17 -75q-6 -26 -160 -230q0 -32 7 -63q8 -37 29 -39q31 -3 83.5 40t100 104.5t67.5 113.5q4 8 12 11.5t16 0z
M113 400q-6 -8 -16 -23t-29.5 -58t-29.5 -85q104 139 111 160q3 11 3 26h-1q-4 0 -11 -2.5t-14.5 -7t-12.5 -10.5zM92.5 549q-16.5 0 -28 12t-11.5 28.5t11.5 28t28 11.5t28.5 -11.5t12 -28t-12 -28.5t-28.5 -12zM273.5 549q-16.5 0 -28.5 12t-12 28.5t12 28t28.5 11.5
t28.5 -11.5t12 -28t-12 -28.5t-28.5 -12z" />
    <glyph glyph-name="igrave" unicode="&#xec;" horiz-adv-x="218" 
d="M237.5 293q7.5 -5 9 -13.5t-3.5 -15.5q-17 -26 -39.5 -60t-61 -88.5t-51.5 -68.5q-39 -41 -67 -41q-7 0 -14 2q-28 11 -30 62q0 83 87 348q3 8 10.5 12t15.5 1q6 -2 9.5 -6t4.5 -9.5t0 -10.5q-11 -33 -24.5 -76t-37 -133.5t-23.5 -124.5q0 -18 4 -24l1 0.5t2.5 1.5t3.5 2
t5 3.5l6 5t7.5 7t9.5 8.5q28 30 147 212q5 7 13.5 9t16 -3zM252 757q82 -66 62 -169q-2 -7 -6 -11q-8 -8 -19 -6q-8 2 -13 9t-3 16q12 65 -31 113q-18 20 -39.5 31.5t-34.5 13.5q-7 -5 -15 -4t-13.5 7.5t-4.5 14.5q1 15 15 21q17 7 47 -4.5t55 -31.5z" />
    <glyph glyph-name="iacute" unicode="&#xed;" horiz-adv-x="249" 
d="M259.5 293q7.5 -5 9 -13.5t-3.5 -15.5q-18 -29 -39.5 -61t-60.5 -87t-52 -69q-39 -41 -67 -41q-7 0 -14 2q-28 11 -30 62q0 83 87 348q3 8 10.5 12t15.5 1q6 -2 9.5 -6t4.5 -9.5t0 -10.5q-11 -33 -24.5 -76t-37 -133.5t-23.5 -124.5q0 -18 4 -24l1.5 1l4.5 3t7 4.5t9.5 8
t12.5 11.5q28 30 147 212q5 7 13.5 9t16 -3zM294 793q14 -6 16 -21q1 -8 -4.5 -14.5t-14.5 -7.5q-8 -1 -15 4q-13 -2 -34.5 -13.5t-39.5 -31.5q-43 -48 -30 -113q1 -9 -3.5 -16t-13.5 -9q-11 -2 -19 6q-4 5 -5 11q-20 103 61 169q25 20 55 31.5t47 4.5z" />
    <glyph glyph-name="icircumflex" unicode="&#xee;" horiz-adv-x="250" 
d="M252.5 293q7.5 -5 9 -13.5t-3.5 -15.5q-10 -16 -25.5 -39t-42.5 -63.5t-50.5 -72.5t-33.5 -42q-39 -41 -67 -41q-7 0 -14 2q-28 11 -30 62q0 83 87 348q3 8 10.5 12t15.5 1q6 -2 9.5 -6t4.5 -9.5t0 -10.5q-11 -33 -24.5 -76t-37 -133.5t-23.5 -124.5q0 -18 4 -24l1.5 1
l4.5 3t7 4.5t9.5 8t12.5 11.5q28 30 147 212q5 7 13.5 9t16 -3zM285 757q81 -66 61 -169q-1 -7 -5 -11q-8 -8 -19 -6q-9 2 -13.5 9t-3.5 16q13 65 -30 113q-28 30 -64 42l-4 -1q-5 -1 -11 2q-5 -3 -10 -2l-4 1q-37 -12 -64 -42q-43 -48 -30 -113q1 -9 -3.5 -16t-13.5 -9
q-11 -2 -19 6q-4 5 -5 11q-20 103 61 169q45 36 84 38q1 1 2.5 1h1.5h2.5t2.5 -1q39 -2 84 -38z" />
    <glyph glyph-name="idieresis" unicode="&#xef;" horiz-adv-x="269" 
d="M272.5 293q7.5 -5 9 -13.5t-3.5 -15.5q-17 -26 -39.5 -60t-61 -88.5t-51.5 -68.5q-39 -41 -67 -41q-7 0 -14 2q-28 11 -30 62q0 83 87 348q3 8 10.5 12t15.5 1q6 -2 9.5 -6t4.5 -9.5t0 -10.5q-4 -13 -9.5 -30t-20.5 -66.5t-26 -89.5t-20 -83.5t-9 -64.5q0 -18 4 -24
l1.5 1l4.5 3t7 4.5t9.5 8t12.5 11.5q28 30 147 212q5 7 13.5 9t16 -3zM58 603q-17 0 -28.5 12t-11.5 28.5t11.5 28t28.5 11.5t28.5 -11.5t11.5 -28t-11.5 -28.5t-28.5 -12zM238.5 603q-16.5 0 -28 12t-11.5 28.5t11.5 28t28 11.5t28.5 -11.5t12 -28t-12 -28.5t-28.5 -12z
" />
    <glyph glyph-name="eth" unicode="&#xf0;" horiz-adv-x="597" 
d="M543 278q8 -13 0 -25q-1 -25 -4 -48q-12 -81 -50.5 -132t-101.5 -69q-32 -8 -62 -8q-94 0 -155 78q-48 63 -57.5 151.5t25.5 150.5q41 73 124 73q11 0 23 -1q119 -15 207 -106q-10 88 -41.5 180.5t-73.5 160.5l-183 -125q-5 -4 -11 -4q-11 0 -18 9q-5 7 -3 15.5t9 13.5
l183 125q-30 40 -58 57q-35 21 -70 21q-11 0 -22 -1.5t-29 -8t-32 -17.5t-27 -33t-19 -52q-1 -8 -7.5 -13.5t-15.5 -5.5h-4q-10 2 -15.5 10t-4.5 18q8 41 27 71t39.5 44.5t45.5 23.5t39 10.5t26 1.5q47 -1 94 -29q35 -21 72 -70l91 63q7 4 15.5 2.5t13.5 -8.5t3.5 -15.5
t-9.5 -13.5l-91 -62q55 -88 91 -207.5t36 -224.5zM491 211q4 25 4 52q-87 121 -216 137q-9 1 -17 1q-55 0 -83 -48q-28 -50 -19.5 -124t48.5 -126q47 -60 117 -60q23 0 49 7q98 27 117 161z" />
    <glyph glyph-name="ntilde" unicode="&#xf1;" horiz-adv-x="444" 
d="M470.5 233.5q7.5 -4.5 9.5 -13t-3 -15.5q-36 -58 -114 -150q-41 -46 -73 -46q-8 0 -15 3q-13 5 -21.5 17t-12 26.5t-4.5 23.5t-1 17q1 25 21 120q18 81 21 107q3 30 -16 35q-31 9 -85 -26.5t-78 -90.5q-2 -5 -6 -8l-64 -234q-4 -15 -20 -15h-6q-8 3 -12.5 10.5t-1.5 15.5
l110 407q3 8 10.5 12t15.5 2t12.5 -9.5t2.5 -15.5l-18 -66q37 34 79 50.5t72 7.5q17 -4 28 -15t16 -28t2 -37q-3 -28 -21 -111q-19 -91 -20 -112q0 -15 4 -28.5t8 -15.5q11 -2 41 31q77 89 111 145q4 7 12.5 9t16 -2.5zM493.5 673q8.5 -3 12 -10.5t1.5 -15.5
q-19 -53 -58 -68q-15 -6 -32 -6q-22 0 -51.5 10.5t-49.5 21t-56 30.5q-39 22 -60 33t-49 19t-45 2q-21 -8 -33 -42q-3 -9 -11 -12.5t-16 -1t-11.5 10.5t-1.5 16q19 53 58 68q10 4 21 5.5t23 0t22 -4t24.5 -8t24 -9.5t25 -12.5t24.5 -13.5t25 -14q39 -22 60 -33t49 -19t45 -2
q21 8 33 42q3 8 10.5 12t16 1z" />
    <glyph glyph-name="ograve" unicode="&#xf2;" horiz-adv-x="463" 
d="M492.5 298.5q6.5 -5.5 7 -14.5t-5.5 -15q-59 -68 -90 -95.5t-66 -42.5q-28 -65 -77.5 -104t-104.5 -39q-10 0 -20 1q-24 6 -36.5 24t-8.5 40q12 33 61.5 56.5t141.5 48.5q3 1 11 4q4 12 7 23q20 79 -7 144q-25 63 -78 76.5t-106 -29.5q-55 -44 -75 -123q-23 -88 12 -157
q7 -16 18 -20q9 -3 13 -10.5t1 -15.5t-10.5 -12t-15.5 -2q-31 10 -44 43q-41 81 -14 184q23 92 89 146q68 56 142 37t107 -101q29 -72 12 -157q34 25 107 108q5 7 14 7.5t15.5 -5zM144 30q36 -5 73 17t64 64q-139 -40 -150 -68q-1 -10 13 -13zM45 761q-8 1 -13.5 7.5
t-4.5 15.5q1 14 15 20q12 5 30 1t37 -14t35 -23q82 -66 62 -169q-2 -7 -6 -11q-8 -8 -19 -6q-8 2 -13 9t-3 16q12 65 -31 113q-18 20 -39.5 31.5t-34.5 13.5q-7 -5 -15 -4z" />
    <glyph glyph-name="oacute" unicode="&#xf3;" horiz-adv-x="467" 
d="M484.5 298.5q6.5 -5.5 7 -14.5t-5.5 -15q-59 -68 -90 -95.5t-66 -42.5q-28 -65 -77.5 -104t-104.5 -39q-10 0 -20 1q-24 6 -36.5 24t-8.5 40q12 33 61.5 56.5t141.5 48.5q3 1 11 4q4 12 7 23q20 79 -7 144q-25 63 -78 76.5t-106 -29.5q-55 -44 -75 -123q-23 -88 12 -157
q7 -16 18 -20q9 -3 13 -10.5t1 -15.5t-10.5 -12t-15.5 -2q-31 10 -44 43q-41 81 -14 184q23 93 89 146q68 56 142 37t107 -101q29 -72 12 -157q34 25 107 108q5 7 14 7.5t15.5 -5zM136 30q36 -5 73 17t64 64q-139 -40 -150 -68q-1 -10 13 -13zM213 588q-5 4 -6 11
q-20 103 62 169q25 21 55 32t47 4q14 -6 15 -20q1 -6 -1.5 -11t-7 -8.5t-9.5 -3.5q-8 -1 -15 4q-13 -2 -34.5 -13.5t-39.5 -31.5q-44 -48 -31 -113q2 -9 -3 -16t-13 -9q-11 -2 -19 6z" />
    <glyph glyph-name="ocircumflex" unicode="&#xf4;" horiz-adv-x="447" 
d="M472.5 298.5q6.5 -5.5 7 -14.5t-5.5 -15q-59 -68 -90 -95.5t-66 -42.5q-28 -65 -77.5 -104t-104.5 -39q-10 0 -20 1q-24 6 -36.5 24t-8.5 40q12 33 61.5 56.5t141.5 48.5q3 1 11 4q4 12 7 23q20 79 -7 144q-25 63 -78 76.5t-106 -29.5q-55 -44 -75 -123q-23 -88 12 -157
q7 -16 18 -20q9 -3 13 -10.5t1 -15.5t-10.5 -12t-15.5 -2q-31 10 -44 43q-41 81 -14 184q23 93 89 146q68 56 142 37t107 -101q29 -72 12 -157q34 25 107 108q5 7 14 7.5t15.5 -5zM124 30q37 -5 73.5 17t63.5 64q-54 -15 -88.5 -29t-46.5 -23t-15 -16q-1 -10 13 -13zM73 588
q-5 5 -6 11q-20 103 62 169q45 36 84 38q1 1 2.5 1h2h2t1.5 -1q40 -2 85 -38q81 -66 61 -169q-1 -7 -6 -11q-7 -8 -18 -6q-9 2 -13.5 9t-3.5 16q13 65 -30 113q-28 30 -64 42l-4 -1q-5 -1 -11 2q-5 -3 -10 -2q-1 0 -4 1q-37 -12 -64 -42q-43 -48 -31 -113q2 -9 -3 -16
t-13 -9q-11 -2 -19 6z" />
    <glyph glyph-name="otilde" unicode="&#xf5;" horiz-adv-x="443" 
d="M480 298.5q7 -5.5 7.5 -14.5t-5.5 -15q-59 -68 -90 -95.5t-66 -42.5q-28 -65 -77.5 -104t-104.5 -39q-10 0 -20 1q-24 6 -36.5 24t-8.5 40q12 33 61.5 56.5t141.5 48.5q3 1 11 4q4 12 7 23q20 79 -7 144q-25 63 -78.5 76.5t-105.5 -29.5q-55 -44 -75 -123
q-23 -88 12 -157q7 -16 18 -20q9 -3 13 -10.5t1 -15.5t-10.5 -12t-15.5 -2q-31 10 -44 43q-41 81 -14 184q23 92 89 146q68 56 142 37t107 -101q29 -72 12 -157q34 25 107 108q5 7 13.5 7.5t15.5 -5zM132 30q37 -5 73.5 17t63.5 64q-139 -40 -150 -68q-1 -10 13 -13zM8 659
q-3 -8 -11 -12t-16 -1t-12 10.5t-1 16.5q19 53 58 68q13 5 27.5 5.5t31.5 -3.5t30.5 -8.5t34 -14.5t32 -16.5t33.5 -19.5q40 -22 60.5 -32.5t48.5 -19t45 -2.5q21 8 33 43q3 8 10.5 11.5t16 1t12 -10.5t0.5 -16q-18 -53 -58 -68q-14 -5 -31 -5q-23 0 -52.5 10.5t-49 20.5
t-55.5 31q-40 22 -60.5 32.5t-48.5 19t-45 2.5q-21 -8 -33 -43z" />
    <glyph glyph-name="odieresis" unicode="&#xf6;" horiz-adv-x="463" 
d="M492.5 298.5q6.5 -5.5 7 -14.5t-5.5 -15q-59 -68 -90 -95.5t-66 -42.5q-28 -65 -77.5 -104t-104.5 -39q-10 0 -20 1q-24 6 -36.5 24t-8.5 40q12 33 61.5 56.5t141.5 48.5q3 1 11 4q4 12 7 23q20 79 -7 144q-25 63 -78 76.5t-106 -29.5q-55 -44 -75 -123q-23 -88 12 -157
q7 -16 18 -20q9 -3 13 -10.5t1 -15.5t-10.5 -12t-15.5 -2q-31 10 -44 43q-41 81 -14 184q23 92 89 146q69 56 142.5 37t106.5 -101q29 -72 12 -157q34 25 107 108q5 7 14 7.5t15.5 -5zM144 30q37 -5 73.5 17t63.5 64q-139 -40 -150 -68q-1 -10 13 -13zM136.5 586
q-16.5 0 -28.5 11.5t-12 28.5t12 28.5t28.5 11.5t28 -11.5t11.5 -28.5t-11.5 -28.5t-28 -11.5zM317.5 586q-16.5 0 -28.5 11.5t-12 28.5t12 28.5t28.5 11.5t28 -11.5t11.5 -28.5t-11.5 -28.5t-28 -11.5z" />
    <glyph glyph-name="divide" unicode="&#xf7;" horiz-adv-x="618" 
d="M548 425q8 0 14 -6.5t6 -15t-6 -14.5t-14 -6h-477q-9 0 -15 6t-6 14.5t6 15t15 6.5h477zM319.5 534q-16.5 0 -28 12t-11.5 28.5t11.5 28t28 11.5t28.5 -11.5t12 -28t-12 -28.5t-28.5 -12zM319.5 193q-16.5 0 -28 12t-11.5 28.5t11.5 28t28 11.5t28.5 -11.5t12 -28
t-12 -28.5t-28.5 -12z" />
    <glyph glyph-name="oslash" unicode="&#xf8;" horiz-adv-x="460" 
d="M500.5 298.5q6.5 -5.5 7 -14.5t-4.5 -15q-60 -68 -91 -95.5t-66 -42.5q-27 -65 -76.5 -104.5t-104.5 -39.5q-10 0 -21 2q-23 6 -35.5 23.5t-9.5 40.5q12 33 62 56.5t142 48.5q3 1 11 4q4 12 6 23q21 79 -6 144q-8 19 -22 37l-217 -283q5 -5 10 -7q8 -3 12 -10.5
t1.5 -15.5t-10.5 -12t-16 -2q-12 4 -23 14l-40 -52q-6 -9 -16 -9q-7 0 -13 5q-7 5 -8 13.5t4 15.5l49 64q-36 80 -11 176q24 92 89 146q69 56 143 37q19 -5 40 -19l38 50q5 7 14 8.5t15.5 -4t8 -14t-4.5 -15.5l-39 -52q22 -25 35 -55q29 -72 11 -157q35 25 107 108
q6 7 14.5 7.5t15 -5zM55 253q-17 -66 0 -127l206 268q-13 8 -26 11q-53 14 -105 -29q-55 -44 -75 -123zM153 30q36 -5 73 17t63 64q-139 -40 -149 -68q-1 -10 13 -13z" />
    <glyph glyph-name="ugrave" unicode="&#xf9;" horiz-adv-x="455" 
d="M465 319q7 -5 9 -13t-2 -16q-131 -211 -160 -242q-26 -28 -48 -28q-7 0 -13 2q-32 12 -34 86v3v2q-24 -44 -45 -70q-13 -16 -38 -29.5t-50 -13.5q-8 0 -15 2q-49 9 -67 72q-13 43 5 125.5t39 138.5t36 85q4 8 12 10.5t16 -1t10.5 -12t-1.5 -15.5q-31 -64 -61.5 -167.5
t-15.5 -151.5q11 -39 35 -43q16 -4 35 5.5t27 20.5q32 40 66.5 114.5t59.5 151.5q16 56 27 88q3 8 10.5 12t15.5 1.5t12 -10.5t2 -16l-1 -3t-3 -9.5t-5 -13.5q-6 -25 -18 -61q-46 -160 -46 -215q1 -33 7 -45q6 3 15 13q27 29 155 236q5 8 13.5 10t15.5 -3zM179 789
q-9 1 -14.5 7.5t-4.5 15.5q2 14 16 21q17 7 47 -4.5t55 -32.5q81 -66 61 -169q-1 -6 -5 -11q-8 -8 -19 -6q-9 2 -13.5 9t-3.5 16q13 66 -30 113q-18 20 -39.5 31.5t-34.5 13.5q-7 -5 -15 -4z" />
    <glyph glyph-name="uacute" unicode="&#xfa;" horiz-adv-x="447" 
d="M453 319q7 -5 9 -13t-2 -16q-131 -211 -160 -242q-26 -28 -48 -28q-7 0 -13 2q-32 12 -34 86v3v2q-24 -44 -45 -70q-13 -16 -38 -29.5t-50 -13.5q-8 0 -15 2q-49 9 -67 72q-13 43 4.5 125.5t39 138.5t36.5 85q4 8 12 10.5t16 -1t10.5 -12t-1.5 -15.5
q-31 -64 -61.5 -167.5t-15.5 -151.5q11 -39 35 -43q16 -4 35 5.5t27 20.5q22 27 46.5 73.5t44 95t35.5 97.5q15 52 27 88q3 8 10.5 12t15.5 1.5t12 -10.5t2 -16l-1 -3t-3 -9.5t-4 -12.5q-7 -25 -19 -62q-46 -161 -46 -215q1 -33 7 -45q6 3 15 13q27 29 155 236q5 8 13.5 10
t15.5 -3zM144 616q-5 5 -6 11q-20 103 62 169q25 21 54.5 32.5t46.5 4.5q15 -7 16 -21q1 -9 -4.5 -15.5t-14.5 -7.5q-8 -1 -14 4q-13 -2 -34.5 -13.5t-40.5 -31.5q-43 -47 -30 -113q2 -9 -3 -16t-14 -9q-10 -2 -18 6z" />
    <glyph glyph-name="ucircumflex" unicode="&#xfb;" horiz-adv-x="579" 
d="M152 533q-5 4 -6 10q-20 103 62 170q44 36 84 38h4h4q40 -2 84 -38q82 -67 62 -170q-1 -6 -6 -10q-8 -8 -19 -6q-8 2 -13 9t-3 15q13 66 -30 114q-28 30 -64 42q-4 -2 -5 -2q-4 0 -10 3q-6 -3 -10 -3q-1 0 -5 2q-36 -12 -64 -42q-43 -48 -30 -114q2 -8 -3 -15t-13 -9
q-11 -2 -19 6zM519 338.5q7 -4.5 9 -13t-2 -15.5q-20 -32 -43.5 -69t-63.5 -98.5t-53 -75.5q-26 -27 -48 -27q-7 0 -13 2q-32 12 -34 85v3v3q-24 -44 -45 -70q-13 -16 -38 -29.5t-50 -13.5q-8 0 -15 1q-49 10 -67 73q-13 43 5 125.5t39 138t36 85.5q4 8 12 10.5t16 -1.5
t10.5 -12t-1.5 -16q-31 -64 -61.5 -167.5t-15.5 -150.5q11 -39 35 -44q8 -1 18 1t18.5 6.5t15 9.5t10.5 10q22 27 46.5 73.5t44 95t35.5 97.5q16 54 27 88q3 8 10.5 12t15.5 1t12 -10.5t2 -15.5l-1 -3.5t-3 -10t-5 -13.5q-6 -24 -18 -60q-46 -161 -46 -215q1 -33 7 -45
q6 3 15 13q27 29 155 236q5 7 13.5 9t15.5 -2.5z" />
    <glyph glyph-name="udieresis" unicode="&#xfc;" horiz-adv-x="579" 
d="M217 592q-17 0 -28.5 11.5t-11.5 28t11.5 28.5t28.5 12t28.5 -12t11.5 -28.5t-11.5 -28t-28.5 -11.5zM398 592q-17 0 -28.5 11.5t-11.5 28t11.5 28.5t28.5 12t28.5 -12t11.5 -28.5t-11.5 -28t-28.5 -11.5zM519 328.5q7 -4.5 9 -13t-2 -15.5q-130 -210 -160 -242
q-26 -28 -48 -28q-7 0 -13 2q-32 12 -34 85v3.5v2.5q-24 -44 -45 -70q-13 -16 -38 -29.5t-50 -13.5q-8 0 -15 1q-49 10 -67 73q-13 43 5 125.5t39 138.5t36 85q4 8 12 10.5t16 -1.5t10.5 -12t-1.5 -16q-31 -63 -61.5 -167t-15.5 -151q11 -39 35 -44q10 -2 23.5 2.5
t23.5 11.5t15 13q32 39 66.5 114t59.5 151q15 53 27 89q2 5 6 9t9.5 5t10.5 -1q8 -3 12 -10.5t2 -15.5l-1 -3t-3 -9.5t-4 -13.5q-6 -24 -19 -61q-46 -161 -46 -215q1 -33 7 -45q6 3 15 13q27 28 155 236q5 7 13.5 9t15.5 -2.5z" />
    <glyph glyph-name="yacute" unicode="&#xfd;" horiz-adv-x="796" 
d="M733 338q12 -5 13 -18q2 -22 -187 -205q-7 -21 -13 -44q-14 -55 -36.5 -140t-65 -230t-60.5 -180q-25 -55 -65.5 -87.5t-88.5 -35.5h-10q-42 0 -79 21.5t-60 58.5q-34 54 -31 121.5t43 137.5q20 37 53.5 76t76.5 77.5t76.5 65.5t79.5 62q-14 0 -22 2q-67 13 -88 83
q-7 24 -6.5 57t4.5 61.5t15 70t18 64.5t20 64q13 37 16 50q3 9 10.5 13t16 1.5t12.5 -10t1 -15.5q-3 -13 -16 -52q-9 -26 -13.5 -40.5t-13 -42.5t-12.5 -46.5t-9.5 -44.5t-7 -44.5t-0.5 -38.5t5 -35q14 -46 56 -54q30 -6 62 5t40 21q24 29 46.5 89t33.5 103t27 116
q12 52 18 75q2 8 9.5 12.5t15.5 2.5l1 -1h1q8 3 15 0q8 -3 11.5 -11t0.5 -16q-7 -19 -34 -130q-21 -87 -32 -132q109 110 126 131v1q3 8 11 11t16 0zM346 -460q39 71 153 518q-16 -14 -73 -57q-51 -38 -81.5 -62.5t-78.5 -65.5t-82 -80.5t-55 -76.5q-33 -59 -36.5 -115.5
t23.5 -100.5q19 -30 48.5 -46t62.5 -14q76 5 119 100zM446 526q-4 4 -6 10q-20 103 62 170q12 9 26 17.5t28 13.5t26.5 6.5t21.5 -1.5q14 -6 15 -21q1 -9 -4.5 -15.5t-13.5 -7.5t-15 4q-8 -1 -19 -5.5t-27 -15t-28 -24.5q-43 -47 -31 -113q2 -8 -3 -15.5t-13 -8.5
q-11 -2 -19 6z" />
    <glyph glyph-name="thorn" unicode="&#xfe;" horiz-adv-x="536" 
d="M344 542q53 -14 90 -60t47.5 -109.5t-5.5 -136.5q-26 -106 -101 -168q-57 -47 -121 -47q-19 0 -37 5q-52 13 -88 58l-37 -267q-1 -8 -7 -13t-14 -5h-3q-9 1 -14 8t-4 15l129 935q1 9 8 14t16 4q3 -1 5.5 -2t4.5 -2.5t3.5 -3.5t2.5 -4.5t1.5 -5.5t0.5 -6l-35 -252
q76 63 158 43zM442 244q22 90 -9.5 165.5t-97.5 91.5q-15 4 -30 4q-51 0 -98 -39q-15 -12 -30 -30l-40 -291q32 -64 91 -78q65 -17 128 34q63 52 86 143z" />
    <glyph glyph-name="ydieresis" unicode="&#xff;" horiz-adv-x="796" 
d="M733 338q12 -5 13 -18q2 -22 -187 -205q-7 -22 -13 -44q-5 -17 -15.5 -57.5t-32 -121t-41.5 -150.5t-41 -134.5t-32 -86.5q-25 -55 -65.5 -87.5t-88.5 -35.5h-10q-42 0 -79 21.5t-60 58.5q-34 54 -31 121.5t43 137.5q20 37 53.5 76t76.5 77.5t76.5 65.5t79.5 62
q-14 0 -22 2q-67 13 -88 83q-5 18 -6.5 40t0 42t6.5 47.5t9.5 47.5t13.5 49.5t14 45.5t14 45q12 37 16 50q3 9 10.5 13t16 1.5t12.5 -10t1 -15.5q-4 -16 -16 -52q-10 -31 -15.5 -48.5t-15 -49.5t-14 -55t-8.5 -50t-3.5 -49t5.5 -40q14 -46 56 -54q30 -6 62 5t40 21
q24 29 46.5 89t33.5 103t27 116q12 52 18 75q2 8 9.5 12.5t15.5 2.5l1 -1h1q8 3 15 0q8 -3 11.5 -11t0.5 -16q-7 -19 -34 -130q-20 -84 -32 -132q109 110 126 131v1q3 8 11 11t16 0zM346 -460q39 71 153 518q-16 -14 -73 -57q-51 -38 -81.5 -62.5t-78.5 -65.5t-82 -80.5
t-55 -76.5q-33 -59 -36.5 -115.5t23.5 -100.5q19 -30 49 -46t62 -14q76 5 119 100zM435.5 592q-16.5 0 -28.5 11.5t-12 28t12 28.5t28.5 12t28 -12t11.5 -28.5t-11.5 -28t-28 -11.5zM616.5 592q-16.5 0 -28.5 11.5t-12 28t12 28.5t28.5 12t28 -12t11.5 -28.5t-11.5 -28
t-28 -11.5z" />
    <glyph glyph-name="OE" unicode="&#x152;" horiz-adv-x="1386" 
d="M1187 1064q70 0 133 -27t100.5 -71t36.5 -92q0 -6 -2.5 -10.5t-7.5 -7.5t-11 -3q-8 0 -14 6.5t-6 14.5q0 53 -68 100t-161 48q-23 0 -47 -4t-58 -15t-70 -37t-66 -63q28 6 39 9q8 2 15.5 -2.5t9.5 -13t-2 -16t-13 -9.5q-36 -9 -83 -17q-66 -114 -83 -295h359q9 0 15 -6
t6 -15t-6 -15t-15 -6h-362q-2 -35 -2 -64q0 -69 10.5 -127t28 -97.5t42 -71.5t48.5 -51.5t51.5 -33t48 -19.5t40.5 -9q79 -11 146 12t77 55q2 9 9.5 13t16.5 1q5 -1 9 -5.5t5 -9.5t0 -11q-13 -43 -75.5 -71.5t-140.5 -28.5q-27 0 -53 4q-21 3 -42 9t-49.5 19t-54 30.5
t-52.5 47t-47 66t-35.5 89t-20.5 114.5q-62 -173 -192 -274q-114 -89 -239 -89q-42 0 -83 11q-80 21 -142.5 79.5t-99.5 147.5q-36 87 -41 188t22 203q31 119 99 215q-16 2 -32 5q-8 2 -13 9.5t-3.5 16t9 13t15.5 2.5q26 -5 54 -7q69 81 155 125q5 2 11.5 5t22.5 8.5
t30.5 8.5t33 2.5t32.5 -6.5q74 -42 56 -91q-18 -46 -115.5 -73t-206.5 -22q-75 -96 -108 -222q-25 -95 -20.5 -189t38.5 -175q33 -79 88 -131.5t125.5 -71t144.5 0t142 70.5q69 54 119 133.5t75 175.5q27 107 19 207t-49 182h-8t-9.5 -0.5t-8.5 -0.5q-143 0 -186 41
q-26 27 -33 54.5t-2.5 42t13.5 26.5q19 24 49.5 34t52.5 -1h1l0.5 -0.5l0.5 -0.5q97 -48 157 -152q59 3 125 14q29 44 64.5 77.5t67.5 51t67.5 28t58 13t44.5 2.5zM551 905q30 -29 160 -29q-51 80 -127 117l-1 1v0q-7 3 -23.5 -2.5t-26.5 -18.5q-22 -28 18 -68zM314 986
q-65 -33 -119 -90q88 1 162.5 22.5t83.5 46.5q6 16 -34 39q-7 3 -18 3q-34 0 -75 -21zM815 724q18 67 45 122q-45 -6 -80 -9q23 -51 35 -113z" />
    <glyph glyph-name="oe" unicode="&#x153;" horiz-adv-x="664" 
d="M674 322q8 -3 11.5 -11t0.5 -16q-15 -37 -48 -85.5t-73 -93t-85.5 -75t-80.5 -30.5h-7q-52 5 -67 72q-2 11 -4 28q-19 -37 -46 -65t-59.5 -43t-66.5 -15q-10 0 -20 1q-24 6 -36.5 24t-8.5 40q12 33 61.5 56.5t141.5 48.5q7 3 11 5q4 10 7 22q20 79 -7 144
q-25 63 -78 76.5t-106 -28.5q-55 -45 -75 -124q-23 -88 12 -157q7 -16 18 -20q9 -2 13 -10t1 -16t-10.5 -12t-16 -1.5t-16 8t-12 10.5t-8 10.5t-5 8.5l-2.5 5q-41 81 -14 184q23 93 89 146q68 56 142 37t107 -101q6 -13 10 -34q28 73 64 117q14 19 42.5 30.5t49.5 0.5
q35 -18 16 -74q-6 -26 -160 -230q1 -32 7 -64q8 -36 30 -38q31 -3 83.5 40t99.5 104.5t68 113.5q3 8 11 11t16 0zM444 403q-2 -3 -6.5 -9t-14.5 -22.5t-19 -35t-19 -46t-16 -54.5q104 141 110 160q4 12 4 27h-2q-6 0 -18.5 -6t-18.5 -14zM137 30q36 -6 73 16.5t64 64.5
q-139 -40 -150 -68q-1 -10 13 -13z" />
    <glyph glyph-name="Scaron" unicode="&#x160;" horiz-adv-x="724" 
d="M666 536q52 -17 57 -69q5 -44 -27.5 -106t-86 -121.5t-116.5 -113.5t-120 -88q-88 -48 -172 -48q-73 0 -127 37q-48 33 -69 90.5t-11 128.5q2 9 8.5 14t15.5 4t14 -8t4 -16q-9 -59 7 -105.5t55 -73.5q47 -32 115.5 -28.5t139.5 42.5q74 43 152.5 117t130 150t46.5 120
q-3 26 -31 35q-21 9 -46.5 15t-59 8.5t-56 3.5t-63.5 1l-70.5 1.5t-62 4.5t-61 10.5t-46 20t-37.5 32.5q-39 54 -9 152q14 80 66 156.5t118 128t139.5 79t131.5 17.5q18 -3 34 -10t34.5 -21t31.5 -37.5t22 -55.5t8.5 -80t-10.5 -107q-2 -8 -9 -13t-15.5 -3.5t-13.5 8.5
t-3 16q20 115 -2 183t-85 79q-49 9 -115 -17.5t-125.5 -75t-106.5 -118t-60 -139.5q-24 -80 3 -117q13 -18 36.5 -29t62.5 -15.5t66 -5.5t78 -2q58 -1 89.5 -2t76 -8.5t74.5 -20.5zM367 1249q-4 5 -5 11q-20 103 61 170q45 36 84 38h3h2h2h2q39 -2 84 -38q82 -67 62 -170
q-2 -6 -6 -11q-8 -7 -19 -5q-8 1 -13 8.5t-3 15.5q12 66 -31 113q-27 31 -64 42l-4 -1q-5 0 -10 2q-6 -2 -11 -2l-4 1q-36 -11 -64 -42q-43 -47 -30 -113q1 -8 -3.5 -15.5t-13.5 -8.5q-11 -2 -19 5z" />
    <glyph glyph-name="scaron" unicode="&#x161;" horiz-adv-x="531" 
d="M376 795q31 -8 31 -46q0 -8 -5.5 -14t-14.5 -7q-8 0 -14.5 6t-6.5 14q-1 5 -2 7l-1 -0.5t-3.5 -1t-6.5 -1.5t-10 -4t-13 -6q-3 -2 -7 -3q-22 -13 -49.5 -35.5t-56 -50.5t-55.5 -62t-45 -66q-46 -83 -10 -112q24 -20 55 -35t50.5 -21t52.5 -15l33 -9t28 -10.5t25.5 -15
t16 -20t9.5 -28.5q1 -27 -27.5 -76.5t-67.5 -95t-69 -67.5q-27 -20 -48 -20q-7 0 -14 3q-28 14 -30 38q-2 30 36 66.5t142 114.5l35 26q1 5 1 7q-1 17 -18 26t-63 21q-35 9 -56.5 15.5t-55.5 23.5t-61 40q-58 47 -8 149q32 65 103 139.5t132 107.5q1 1 2 1q36 20 60 17h6z
M222 83q33 34 64 77q-57 -43 -91 -73.5t-32 -42.5l5 -3l1.5 0.5t4 2t5.5 3.5l7.5 5t9.5 7.5t12 10.5t14 13zM477 1089q20 -103 -62 -169q-44 -36 -84 -38q0 -1 -2 -1h-2h-2t-2 1q-40 2 -84 38q-82 66 -62 169q1 6 6 11q8 8 19 6q8 -2 13 -9t3 -16q-13 -65 30 -113
q28 -30 64 -42q4 1 5 1q4 1 10 -2q6 3 10 2q1 0 5 -1q36 12 64 42q43 48 30 113q-1 4 0 8.5t3 7.5t5.5 5.5t7.5 3.5q11 2 19 -6q5 -5 6 -11z" />
    <glyph glyph-name="Ydieresis" unicode="&#x178;" horiz-adv-x="816" 
d="M831 1052.5q8 -3.5 11.5 -11.5t0.5 -16q-19 -46 -76 -318q-19 -89 -29 -136.5t-28.5 -127t-31.5 -127.5t-29.5 -98t-30.5 -78q-23 -56 -73 -90.5t-117 -40.5q-12 -1 -24 -1q-78 0 -148 39.5t-112 107.5q-9 14 -21 28t-32 31t-46.5 27t-55.5 9q-9 0 -15 6t-6 14
q0 6 2.5 10.5t7.5 7.5t11 3q25 0 48.5 -5.5t42.5 -16t35 -22t28.5 -25.5t21 -24t14.5 -21q40 -63 106.5 -97.5t139.5 -28.5q55 4 95.5 32t59.5 75q43 85 113 404q5 56 -32.5 127.5t-97.5 133.5t-124 99q-110 64 -167 24q-7 -5 -15.5 -3.5t-13.5 8.5t-3.5 15.5t8.5 13.5
q38 27 93 21.5t119 -43.5q80 -46 152 -127t104 -163q3 15 10 48q58 275 78 325q3 8 11 11.5t16 0zM466.5 1309q-16.5 0 -28 11.5t-11.5 28t11.5 28.5t28 12t28.5 -12t12 -28.5t-12 -28t-28.5 -11.5zM647.5 1309q-16.5 0 -28 11.5t-11.5 28t11.5 28.5t28 12t28.5 -12
t12 -28.5t-12 -28t-28.5 -11.5z" />
    <glyph glyph-name="Zcaron" unicode="&#x17d;" horiz-adv-x="1021" 
d="M1024 247q4 -1 7 -4t5 -6.5t2.5 -7.5t-0.5 -8q-18 -69 -54 -117t-88 -76q-68 -35 -165 -35q-66 0 -153 18.5t-141 36t-145 49.5q-56 19 -80 27q-52 -52 -71 -61q-59 -27 -101 3q-33 24 -30 61q4 41 51 61q35 17 140 -16q173 180 566 663q-60 17 -194 74q-53 22 -80 33.5
t-74.5 28.5t-77.5 23.5t-67 12t-66 0t-54 -19.5q-80 -45 -101 -196q-1 -6 -4.5 -10t-8.5 -6t-11 -2q-8 1 -13.5 8t-3.5 16q24 171 122 226q28 17 61.5 23.5t74 2t73 -11t82.5 -24.5t79.5 -30t84.5 -35q146 -63 207 -77q71 87 98 122q28 37 64 30q33 -5 45 -41
q9 -27 -1.5 -58.5t-38.5 -61.5q-49 -54 -151 -37q-391 -481 -568 -668q28 -9 62 -21q61 -21 95.5 -32.5t96.5 -30.5t106 -26t96.5 -11.5t96.5 3t80 26.5q88 47 121 167q2 8 9.5 12.5t16.5 2.5zM927 967q-9 -11 -84 -104q60 -5 89 27q43 46 32 79q-4 12 -13 13q-12 2 -24 -15
zM123 101q13 6 45 37q-51 15 -74 15q-10 0 -16 -3q-24 -10 -26 -27q-1 -13 12 -23q23 -16 59 1zM478 1282q-81 66 -62 169q2 7 6 11q8 8 19 6q8 -2 13 -9t3 -16q-12 -65 31 -113q27 -30 64 -42q3 1 4 1q5 1 10 -2q6 3 11 2l4 -1q36 12 64 42q43 48 30 113q-1 9 3.5 16
t13.5 9q11 2 18 -6q5 -4 6 -11q20 -102 -61 -169q-45 -36 -84 -38h-2.5h-2h-2.5h-2q-39 2 -84 38z" />
    <glyph glyph-name="zcaron" unicode="&#x17e;" horiz-adv-x="448" 
d="M459.5 320q7.5 -5 9 -13.5t-3.5 -15.5q-25 -38 -146 -156q5 -11 9 -24q27 -94 -2.5 -249.5t-121.5 -313.5q-93 -159 -199 -159q-21 -1 -40 6q-50 18 -77.5 72.5t-17.5 118.5q8 54 38.5 116t66 114t92 116.5t97 106t100.5 100.5q-24 12 -49.5 -5t-69.5 -64q-1 -1 -4 -3.5
t-4 -3.5q-16 -19 -31 -33q-6 -6 -15 -6t-15 7q-6 6 -5.5 15t6.5 14q1 1 12 13l1 1l16 16q22 25 38 51.5t25.5 49t15 45t7 38.5t1.5 31t-0.5 20.5t-1.5 8.5q-8 50 -30 63q-18 10 -52 -2q-25 -11 -49 -42t-33 -57q-3 -8 -11 -12t-16 -1t-12 11t-1 16q7 20 21 42.5t37.5 46.5
t47.5 35q54 19 89 -1q38 -22 50 -91q2 -9 3.5 -25t-4.5 -58t-22 -82q40 17 76 -1q5 -3 10 -7q113 111 135 145q5 7 13.5 9t16 -3zM167 -431q48 81 79 166t42 153.5t10.5 122t-10.5 89.5l-0.5 1.5l-0.5 1.5q-57 -56 -97 -97t-93 -102t-87.5 -110t-62.5 -107t-36 -108
q-8 -48 12 -90t56 -54q43 -16 93 20t95 114zM39 595q-5 5 -6 11q-20 103 62 169q44 36 84 39h2h2h2h2q40 -3 84 -39q82 -66 62 -169q-1 -6 -6 -11q-8 -8 -18 -6q-9 2 -14 9t-3 16q13 65 -30 113q-28 30 -64 42l-4 -1q-5 -1 -11 2q-5 -3 -10 -2q-1 0 -5 1q-36 -12 -63 -42
q-44 -48 -31 -113q1 -6 -0.5 -11t-6 -9t-9.5 -5q-11 -2 -19 6z" />
    <glyph glyph-name="circumflex" unicode="&#x2c6;" horiz-adv-x="407" 
d="M292 817q81 -67 61 -169q-1 -7 -5 -11q-8 -8 -19 -6q-9 2 -13.5 9t-3.5 15q13 66 -30 114q-27 30 -64 42l-4 -1q-5 -1 -10 2q-6 -3 -11 -2l-4 1q-36 -12 -64 -42q-43 -48 -30 -114q0 -4 -0.5 -8t-3 -7t-6 -5.5t-7.5 -3.5q-11 -2 -19 6q-4 4 -5 11q-20 102 61 169
q45 36 84 38h2.5h2h2.5h2q39 -2 84 -38z" />
    <glyph glyph-name="ilde" unicode="&#x2dc;" horiz-adv-x="575" 
d="M511.5 783q8.5 -3 12 -10.5t0.5 -15.5q-18 -53 -58 -68q-14 -6 -31 -6q-23 0 -52.5 10.5t-49 21t-55.5 30.5q-40 23 -60.5 33.5t-48.5 19t-45 1.5q-21 -8 -33 -42q-2 -6 -6.5 -9.5t-9.5 -4.5t-11 1q-8 3 -12 10.5t-1 15.5q19 53 58 68q13 5 27.5 6t31.5 -3t30.5 -8.5
t33.5 -15t32 -17t34 -18.5q39 -22 60 -33t49 -19t45 -2q21 8 33 42q3 9 10.5 12.5t16 0.5z" />
    <glyph glyph-name="endash" unicode="&#x2013;" 
d="M701 394q8 0 14 -6t6 -15t-6 -15t-14 -6h-630q-9 0 -15 6t-6 15t6 15t15 6h630z" />
    <glyph glyph-name="emdash" unicode="&#x2014;" horiz-adv-x="1109" 
d="M1038 394q9 0 15 -6t6 -15t-6 -15t-15 -6h-967q-9 0 -15 6t-6 15t6 15t15 6h967z" />
    <glyph glyph-name="quoteleft" unicode="&#x2018;" horiz-adv-x="226" 
d="M175 1009q2 -6 1 -11t-4.5 -9.5t-8.5 -6.5q-51 -20 -66 -70q-6 -19 -5 -42q1 0 2 0.5t2 0.5q16 0 27 -11t11 -27t-11 -27t-27 -11q-12 0 -23 8v1h-1q-3 2 -4 4q-8 9 -12.5 24t-5 31.5t0.5 32.5q11 91 97 125q5 2 10.5 1t10 -4.5t6.5 -8.5z" />
    <glyph glyph-name="quoteright" unicode="&#x2019;" horiz-adv-x="226" 
d="M158 988q11 -13 15.5 -38.5t1.5 -49.5q-11 -92 -97 -125q-3 -1 -7 -1q-14 0 -20 13q-3 8 0.5 16t11.5 11q51 20 66 69q6 20 5 43q-1 0 -2 -0.5t-2 -0.5q-16 0 -27 11t-11 27t11 27t27 11q12 0 23 -8l0.5 -0.5l0.5 -0.5q3 -2 4 -4z" />
    <glyph glyph-name="quotesinglbase" unicode="&#x201a;" horiz-adv-x="226" 
d="M158 92q11 -12 15.5 -37.5t1.5 -50.5q-11 -91 -97 -124q-3 -1 -7 -1q-14 0 -20 13q-2 6 -1 11t4.5 9.5t8.5 6.5q51 20 66 69q6 20 5 43l-2 -1h-2q-16 0 -27 11t-11 27t11 27t27 11q12 0 23 -8q0 -1 0.5 -1h0.5q3 -3 4 -5z" />
    <glyph glyph-name="quotedblleft" unicode="&#x201c;" horiz-adv-x="358" 
d="M148 1021q8 3 15.5 -0.5t11 -11.5t0 -16t-11.5 -11q-51 -20 -66 -70q-6 -19 -5 -42q1 0 2 0.5t2 0.5q16 0 27 -11t11 -27t-11 -27t-27 -11q-12 0 -23 8v1h-1l-4 4q-8 9 -12.5 24t-5 31.5t0.5 32.5q11 92 97 125zM306 1009q2 -6 1 -11t-4.5 -9.5t-8.5 -6.5
q-51 -20 -66 -70q-6 -19 -5 -42q1 0 2.5 0.5l1.5 0.5q16 0 27.5 -11t11.5 -27t-11.5 -27t-27.5 -11q-12 0 -23 8v1h-1l-4 4q-7 9 -12 24t-5.5 31.5t0.5 32.5q12 91 97 125q8 3 16 -0.5t11 -11.5z" />
    <glyph glyph-name="quotedblright" unicode="&#x201d;" horiz-adv-x="358" 
d="M158 1000q11 -12 15.5 -37.5t1.5 -50.5q-11 -91 -97 -124q-3 -2 -7 -2q-14 0 -20 14q-3 8 0.5 16t11.5 11q51 19 66 69q6 20 5 42l-1.5 -0.5t-2.5 -0.5q-16 0 -27 11.5t-11 27t11 27t27 11.5q12 0 23 -9h1v-1q3 -2 4 -4zM290 1000q10 -12 14.5 -37.5t1.5 -50.5
q-11 -91 -96 -124q-4 -2 -8 -2q-14 0 -19 14q-4 8 -0.5 16t11.5 11q51 19 66 69q6 20 5 42h-2q-1 -1 -2 -1q-16 0 -27 11.5t-11 27t11 27t27 11.5q12 0 23 -9h1v-1q3 -2 5 -4z" />
    <glyph glyph-name="quotedblbase" unicode="&#x201e;" horiz-adv-x="352" 
d="M284 92q11 -12 15.5 -37.5t1.5 -50.5q-11 -91 -97 -124q-3 -1 -7 -1q-14 0 -20 13q-3 8 0.5 16t11.5 11q51 20 66 69q6 20 5 43l-2 -1h-2q-16 0 -27 11t-11 27t11 27t27 11q12 0 23 -8q0 -1 0.5 -1h0.5q3 -3 4 -5zM154 97l4 -4q11 -13 15.5 -38.5t1.5 -50.5
q-11 -91 -97 -124q-3 -1 -7 -1q-14 0 -20 13q-3 8 0.5 16t11.5 11q51 20 66 69q6 20 5 43q-1 0 -2 -0.5t-2 -0.5q-16 0 -27 11t-11 27t11 27t27 11q12 0 23 -8q0 -1 0.5 -1h0.5z" />
    <glyph glyph-name="dagger" unicode="&#x2020;" horiz-adv-x="585" 
d="M514 745q9 0 15 -6.5t6 -15t-6 -14.5t-15 -6h-194v-711q0 -8 -6 -14t-15 -6t-15 6t-6 14v711h-207q-9 0 -15 6t-6 14.5t6 15t15 6.5h207v231q0 9 6 15t15 6t15 -6t6 -15v-231h194z" />
    <glyph glyph-name="daggerdbl" unicode="&#x2021;" horiz-adv-x="606" 
d="M535 218q9 0 15 -6.5t6 -15t-6 -14.5t-15 -6h-210v-184q0 -8 -6 -14t-15 -6t-15 6t-6 14v184h-212q-9 0 -15 6t-6 14.5t6 15t15 6.5h212v485h-212q-9 0 -15 6t-6 14.5t6 15t15 6.5h212v231q0 9 6 15t15 6t15 -6t6 -15v-231h210q9 0 15 -6.5t6 -15t-6 -14.5t-15 -6h-210
v-485h210z" />
    <glyph glyph-name="bullet" unicode="&#x2022;" horiz-adv-x="373" 
d="M309 488q25 -57 8 -125q-15 -61 -56.5 -99.5t-89.5 -38.5q-13 0 -26 3q-35 8 -59.5 38.5t-32 72t2.5 88.5q17 68 65 107q51 42 107 28.5t81 -74.5z" />
    <glyph glyph-name="ellipsis" unicode="&#x2026;" horiz-adv-x="543" 
d="M90 26q-17 0 -28.5 11.5t-11.5 28.5t11.5 28.5t28.5 11.5t28.5 -11.5t11.5 -28.5t-11.5 -28.5t-28.5 -11.5zM271 26q-17 0 -28.5 11.5t-11.5 28.5t11.5 28.5t28.5 11.5t28.5 -11.5t11.5 -28.5t-11.5 -28.5t-28.5 -11.5zM452.5 26q-16.5 0 -28 11.5t-11.5 28.5t11.5 28.5
t28 11.5t28.5 -11.5t12 -28.5t-12 -28.5t-28.5 -11.5z" />
    <glyph glyph-name="perthousand" unicode="&#x2030;" horiz-adv-x="1227" 
d="M204 531q-16 0 -32 4q-69 17 -102.5 92.5t-11.5 164.5q22 88 84 139q65 53 136 35.5t104 -94.5q31 -74 9.5 -162t-84.5 -139q-48 -40 -103 -40zM99 782q-18 -72 6.5 -132.5t76.5 -73.5q50 -12 99 28q51 42 69.5 116t-7.5 136q-25 58 -75 70q-11 3 -23 3q-39 0 -76 -30
q-52 -43 -70 -117zM644.5 925q7.5 -4 10.5 -12.5t-1 -15.5l-475 -926q-5 -12 -18 -12q-5 0 -10 3q-7 4 -10 12t1 16l474 926q4 7 12.5 10t16 -1zM638 404q71 -17 104 -95q31 -74 9.5 -161.5t-83.5 -138.5q-49 -40 -103 -40q-17 0 -33 4q-71 17 -104 95q-31 74 -9.5 161.5
t84.5 138.5q65 54 135 36zM711 157.5q18 74.5 -8 135.5q-24 58 -75 71q-11 2 -22 2q-40 0 -77 -30q-52 -42 -70 -116.5t8 -135.5q24 -58 74.5 -70.5t99.5 27.5q52 42 70 116.5zM1159 309q32 -74 10 -161.5t-84 -138.5q-48 -40 -103 -40q-16 0 -33 4q-70 17 -103 95
q-32 74 -10 161.5t84 138.5q65 54 136 36q70 -17 103 -95zM1128.5 157.5q18.5 74.5 -7.5 135.5q-25 58 -75 71q-11 2 -23 2q-40 0 -77 -30q-51 -42 -69.5 -116.5t7.5 -135.5q25 -58 75.5 -70.5t99.5 27.5q51 42 69.5 116.5z" />
    <glyph glyph-name="guilsinglleft" unicode="&#x2039;" horiz-adv-x="398" 
d="M340.5 603.5q6.5 -5.5 7 -14t-4.5 -15.5l-246 -294l188 -275q5 -7 3.5 -15.5t-8.5 -13.5q-5 -4 -12 -4q-11 0 -17 9l-197 289q-9 13 1 25l256 306q5 7 14 7.5t15.5 -5z" />
    <glyph glyph-name="guilsinglright" unicode="&#x203a;" horiz-adv-x="398" 
d="M343 295q10 -12 1 -25l-197 -289q-6 -9 -17 -9q-7 0 -12 4q-7 5 -8.5 13.5t2.5 15.5l189 275l-246 294q-6 7 -5 15.5t7.5 14t15 5t14.5 -7.5z" />
    <glyph glyph-name="Euro" unicode="&#x20ac;" horiz-adv-x="760" 
d="M500 871q75 -1 143.5 -25.5t109 -65t40.5 -84.5q0 -4 -1.5 -8t-4.5 -6.5t-7 -4.5t-8 -2q-9 1 -15 7t-6 15q0 29 -33.5 59t-93 51t-125.5 22h-3q-14 0 -28.5 -1.5t-35.5 -5t-41 -10t-43.5 -18t-44.5 -27t-43 -38t-39.5 -50t-33 -65t-25.5 -80.5l428 -17q9 0 15 -6.5
t5 -14.5q0 -9 -6 -14.5t-15 -5.5l-436 16q-10 -61 -10 -125v-1l432 -16q9 -1 14.5 -7.5t5.5 -14.5q0 -9 -6 -14.5t-15 -5.5h-1l-429 16q4 -58 18 -106t35 -80.5t45.5 -56.5t53 -38.5t53 -22.5t49.5 -11q63 -10 126.5 1.5t100 31t41.5 36.5q3 8 10.5 12.5t16 2t12.5 -10.5
t1 -16q-12 -40 -87 -71.5t-165 -31.5q-32 0 -62 4q-36 6 -69 17t-73 37.5t-69.5 63.5t-51.5 99.5t-27 141.5l-95 3q-9 1 -14.5 7.5t-5.5 14.5t7 14t15 6l92 -3q1 66 10 126l-89 3q-8 1 -14 7t-6 15q1 8 7.5 14t14.5 6l95 -4q13 64 37.5 116.5t52.5 86.5t63 59.5t65.5 39
t64.5 22t55.5 10.5t42.5 2z" />
    <glyph glyph-name="trademark" unicode="&#x2122;" horiz-adv-x="870" 
d="M412 672q0 -5 -3 -10t-7.5 -8t-10.5 -3h-143l-59 -340q-1 -8 -7 -12.5t-14 -4.5h-3q-9 1 -14 8.5t-3 15.5l58 333h-135q-9 0 -15 6.5t-6 15t6 14.5t15 6h320q9 0 15 -6t6 -15zM807 692q16 -6 13 -23l-63 -358q-1 -8 -7 -12.5t-13 -4.5h-4q-8 1 -13 8t-4 16l44 249
l-160 -263q-7 -12 -20.5 -10.5t-17.5 14.5l-82 274l-47 -271q-2 -9 -9 -14t-15.5 -3.5t-13.5 9t-3 15.5l62 358q3 16 20 17q16 1 21 -15l94 -313l193 318q9 15 25 9z" />
    <glyph glyph-name="S.alt1" unicode="&#xf05c;" horiz-adv-x="1347" 
d="M1221 416q46 -15 84.5 -60.5t57.5 -106.5t12 -118q-3 -20 -9.5 -39.5t-25 -47t-45 -48t-74.5 -36t-109 -18.5q-41 3 -77.5 16t-56.5 25.5t-54 37.5q-36 25 -58 39.5t-66.5 33.5t-94.5 29q-54 12 -104.5 14t-124.5 -14.5t-150.5 -56t-178 -119t-211.5 -194.5q-6 -6 -15 -6
q-8 0 -14 6q-7 6 -7 14.5t6 14.5q114 119 220 201.5t186 123.5t158.5 58t132 14.5t111.5 -15.5q54 -11 102 -31.5t71.5 -35.5t60.5 -42q33 -24 51 -35.5t48.5 -22.5t64.5 -13q97 4 154.5 43.5t66.5 109.5q10 72 -29.5 146.5t-97.5 93.5q-25 11 -67.5 12t-75 -3t-94.5 -14
q-45 -7 -69 -10t-65 -7t-67 -2.5t-57.5 6t-56.5 16.5t-45 30q-75 68 -66 226q7 71 24.5 128.5t38.5 95.5t49 66t53 43t53 24q84 26 172.5 -4t142.5 -91q41 -46 51.5 -96.5t-10.5 -95.5q-4 -8 -12 -11t-16 0.5t-11 12t1 15.5q15 34 6.5 72.5t-40.5 74.5q-47 53 -123 79.5
t-148 3.5q-31 -10 -58 -29.5t-55 -55.5t-48 -96t-29 -140q-8 -137 52 -191q20 -18 50 -28t57.5 -13t71.5 0t70.5 7t77.5 12q50 7 76 10.5t65 6.5t67 -1t50 -14z" />
    <glyph glyph-name="T.alt1" unicode="&#xf05d;" horiz-adv-x="958" 
d="M999 994.5q7 -4.5 8.5 -13t-3.5 -16.5q-58 -86 -183 -86q-29 0 -70 6q-99 -687 -128 -756q-13 -49 -39 -82.5t-55.5 -48.5t-59.5 -15q-9 0 -17 2q-49 7 -83.5 55t-31.5 136q0 9 7 15t15 5q8 0 14 -6.5t6 -15.5q-3 -61 19 -101.5t60 -46.5q36 -6 72.5 24t53.5 92
q27 67 126 750q-92 20 -287 93q-38 15 -58 22t-55.5 20t-55.5 19t-51 14.5t-49.5 11t-43 5.5t-40 0t-32.5 -8t-29 -15t-20 -25q-4 -7 -12.5 -9.5t-16 2t-10 13t2.5 15.5q11 19 25 33t34 21.5t38 12.5t45.5 2.5t48 -4t54.5 -10.5t55.5 -15t60.5 -20t60.5 -22t63.5 -24
q44 -16 66.5 -24.5t63.5 -23t64.5 -21t60.5 -16.5t60 -12.5t53.5 -5.5t51 1.5t43 11.5t39.5 21t30 34q5 7 13.5 8.5t15.5 -3z" />
  </font>
</defs>
</svg>
